%TF.GenerationSoftware,KiCad,Pcbnew,7.0.7*%
%TF.CreationDate,2024-05-19T18:37:27+02:00*%
%TF.ProjectId,Smart-mobility,536d6172-742d-46d6-9f62-696c6974792e,rev?*%
%TF.SameCoordinates,Original*%
%TF.FileFunction,Drillmap*%
%TF.FilePolarity,Positive*%
%FSLAX45Y45*%
G04 Gerber Fmt 4.5, Leading zero omitted, Abs format (unit mm)*
G04 Created by KiCad (PCBNEW 7.0.7) date 2024-05-19 18:37:27*
%MOMM*%
%LPD*%
G01*
G04 APERTURE LIST*
%ADD10C,0.100000*%
%ADD11C,0.200000*%
%ADD12C,0.040000*%
%ADD13C,0.068000*%
%ADD14C,0.080000*%
%ADD15C,0.090000*%
G04 APERTURE END LIST*
D10*
X4822000Y-3048000D02*
X10680000Y-3048000D01*
X10680000Y-11438000D01*
X4822000Y-11438000D01*
X4822000Y-3048000D01*
D11*
D12*
X6112440Y-4867360D02*
X6152440Y-4907360D01*
X6152440Y-4867360D02*
X6112440Y-4907360D01*
X6274500Y-4646220D02*
X6314500Y-4686220D01*
X6314500Y-4646220D02*
X6274500Y-4686220D01*
X6284170Y-4370210D02*
X6324170Y-4410210D01*
X6324170Y-4370210D02*
X6284170Y-4410210D01*
X6298540Y-6759980D02*
X6338540Y-6799980D01*
X6338540Y-6759980D02*
X6298540Y-6799980D01*
X6336220Y-6277330D02*
X6376220Y-6317330D01*
X6376220Y-6277330D02*
X6336220Y-6317330D01*
X6600870Y-7455150D02*
X6640870Y-7495150D01*
X6640870Y-7455150D02*
X6600870Y-7495150D01*
X6877250Y-5242200D02*
X6917250Y-5282200D01*
X6917250Y-5242200D02*
X6877250Y-5282200D01*
X7206010Y-5764290D02*
X7246010Y-5804290D01*
X7246010Y-5764290D02*
X7206010Y-5804290D01*
X7229660Y-4613830D02*
X7269660Y-4653830D01*
X7269660Y-4613830D02*
X7229660Y-4653830D01*
X7248300Y-4099230D02*
X7288300Y-4139230D01*
X7288300Y-4099230D02*
X7248300Y-4139230D01*
X7608800Y-6317820D02*
X7648800Y-6357820D01*
X7648800Y-6317820D02*
X7608800Y-6357820D01*
X7650130Y-5775460D02*
X7690130Y-5815460D01*
X7690130Y-5775460D02*
X7650130Y-5815460D01*
X7785250Y-5400760D02*
X7825250Y-5440760D01*
X7825250Y-5400760D02*
X7785250Y-5440760D01*
X7876970Y-5763660D02*
X7916970Y-5803660D01*
X7916970Y-5763660D02*
X7876970Y-5803660D01*
X7922250Y-4851720D02*
X7962250Y-4891720D01*
X7962250Y-4851720D02*
X7922250Y-4891720D01*
X7956860Y-5007260D02*
X7996860Y-5047260D01*
X7996860Y-5007260D02*
X7956860Y-5047260D01*
X7958040Y-5139330D02*
X7998040Y-5179330D01*
X7998040Y-5139330D02*
X7958040Y-5179330D01*
X8057650Y-4320540D02*
X8097650Y-4360540D01*
X8097650Y-4320540D02*
X8057650Y-4360540D01*
X8077420Y-4481260D02*
X8117420Y-4521260D01*
X8117420Y-4481260D02*
X8077420Y-4521260D01*
X8103340Y-5155980D02*
X8143340Y-5195980D01*
X8143340Y-5155980D02*
X8103340Y-5195980D01*
X8197670Y-4467500D02*
X8237670Y-4507500D01*
X8237670Y-4467500D02*
X8197670Y-4507500D01*
X8221400Y-6944960D02*
X8261400Y-6984960D01*
X8261400Y-6944960D02*
X8221400Y-6984960D01*
X8234480Y-6034420D02*
X8274480Y-6074420D01*
X8274480Y-6034420D02*
X8234480Y-6074420D01*
X8268310Y-6595010D02*
X8308310Y-6635010D01*
X8308310Y-6595010D02*
X8268310Y-6635010D01*
X8381740Y-6808580D02*
X8421740Y-6848580D01*
X8421740Y-6808580D02*
X8381740Y-6848580D01*
X8424230Y-8823170D02*
X8464230Y-8863170D01*
X8464230Y-8823170D02*
X8424230Y-8863170D01*
X8433120Y-6021510D02*
X8473120Y-6061510D01*
X8473120Y-6021510D02*
X8433120Y-6061510D01*
X8444170Y-5070380D02*
X8484170Y-5110380D01*
X8484170Y-5070380D02*
X8444170Y-5110380D01*
X8479820Y-5212050D02*
X8519820Y-5252050D01*
X8519820Y-5212050D02*
X8479820Y-5252050D01*
X8571440Y-4465730D02*
X8611440Y-4505730D01*
X8611440Y-4465730D02*
X8571440Y-4505730D01*
X8595350Y-7414060D02*
X8635350Y-7454060D01*
X8635350Y-7414060D02*
X8595350Y-7454060D01*
X8785390Y-7524240D02*
X8825390Y-7564240D01*
X8825390Y-7524240D02*
X8785390Y-7564240D01*
X8914790Y-5992790D02*
X8954790Y-6032790D01*
X8954790Y-5992790D02*
X8914790Y-6032790D01*
X9000990Y-8671250D02*
X9040990Y-8711250D01*
X9040990Y-8671250D02*
X9000990Y-8711250D01*
X9656180Y-6010490D02*
X9696180Y-6050490D01*
X9696180Y-6010490D02*
X9656180Y-6050490D01*
X9714720Y-7545270D02*
X9754720Y-7585270D01*
X9754720Y-7545270D02*
X9714720Y-7585270D01*
D13*
X6789500Y-7957500D02*
G75*
G03*
X6789500Y-7957500I-34000J0D01*
G01*
X6916500Y-7830500D02*
G75*
G03*
X6916500Y-7830500I-34000J0D01*
G01*
X6916500Y-8084500D02*
G75*
G03*
X6916500Y-8084500I-34000J0D01*
G01*
D14*
X8092000Y-9741500D02*
X8092000Y-9821500D01*
X8052000Y-9781500D02*
X8132000Y-9781500D01*
X9108000Y-9741500D02*
X9108000Y-9821500D01*
X9068000Y-9781500D02*
X9148000Y-9781500D01*
D15*
X6099820Y-9560820D02*
X6099820Y-9497180D01*
X6036180Y-9497180D01*
X6036180Y-9560820D01*
X6099820Y-9560820D01*
X6599820Y-9310820D02*
X6599820Y-9247180D01*
X6536180Y-9247180D01*
X6536180Y-9310820D01*
X6599820Y-9310820D01*
X6599820Y-9810820D02*
X6599820Y-9747180D01*
X6536180Y-9747180D01*
X6536180Y-9810820D01*
X6599820Y-9810820D01*
X8955320Y-7349320D02*
X8955320Y-7285680D01*
X8891680Y-7285680D01*
X8891680Y-7349320D01*
X8955320Y-7349320D01*
X9082320Y-7349320D02*
X9082320Y-7285680D01*
X9018680Y-7285680D01*
X9018680Y-7349320D01*
X9082320Y-7349320D01*
X9209320Y-7349320D02*
X9209320Y-7285680D01*
X9145680Y-7285680D01*
X9145680Y-7349320D01*
X9209320Y-7349320D01*
X9336320Y-7349320D02*
X9336320Y-7285680D01*
X9272680Y-7285680D01*
X9272680Y-7349320D01*
X9336320Y-7349320D01*
D10*
X5552000Y-8559000D02*
X5602000Y-8509000D01*
X5552000Y-8459000D01*
X5502000Y-8509000D01*
X5552000Y-8559000D01*
X5552000Y-10339500D02*
X5602000Y-10289500D01*
X5552000Y-10239500D01*
X5502000Y-10289500D01*
X5552000Y-10339500D01*
X5575000Y-7650000D02*
X5625000Y-7600000D01*
X5575000Y-7550000D01*
X5525000Y-7600000D01*
X5575000Y-7650000D01*
X5806000Y-8559000D02*
X5856000Y-8509000D01*
X5806000Y-8459000D01*
X5756000Y-8509000D01*
X5806000Y-8559000D01*
X5806000Y-10339500D02*
X5856000Y-10289500D01*
X5806000Y-10239500D01*
X5756000Y-10289500D01*
X5806000Y-10339500D01*
X6060000Y-8559000D02*
X6110000Y-8509000D01*
X6060000Y-8459000D01*
X6010000Y-8509000D01*
X6060000Y-8559000D01*
X6060000Y-10339500D02*
X6110000Y-10289500D01*
X6060000Y-10239500D01*
X6010000Y-10289500D01*
X6060000Y-10339500D01*
X6314000Y-8559000D02*
X6364000Y-8509000D01*
X6314000Y-8459000D01*
X6264000Y-8509000D01*
X6314000Y-8559000D01*
X6314000Y-10339500D02*
X6364000Y-10289500D01*
X6314000Y-10239500D01*
X6264000Y-10289500D01*
X6314000Y-10339500D01*
X6335000Y-7650000D02*
X6385000Y-7600000D01*
X6335000Y-7550000D01*
X6285000Y-7600000D01*
X6335000Y-7650000D01*
X6568000Y-8559000D02*
X6618000Y-8509000D01*
X6568000Y-8459000D01*
X6518000Y-8509000D01*
X6568000Y-8559000D01*
X6568000Y-10339500D02*
X6618000Y-10289500D01*
X6568000Y-10239500D01*
X6518000Y-10289500D01*
X6568000Y-10339500D01*
X6822000Y-8559000D02*
X6872000Y-8509000D01*
X6822000Y-8459000D01*
X6772000Y-8509000D01*
X6822000Y-8559000D01*
X6822000Y-10339500D02*
X6872000Y-10289500D01*
X6822000Y-10239500D01*
X6772000Y-10289500D01*
X6822000Y-10339500D01*
X7076000Y-8559000D02*
X7126000Y-8509000D01*
X7076000Y-8459000D01*
X7026000Y-8509000D01*
X7076000Y-8559000D01*
X7076000Y-10339500D02*
X7126000Y-10289500D01*
X7076000Y-10239500D01*
X7026000Y-10289500D01*
X7076000Y-10339500D01*
X7330000Y-8559000D02*
X7380000Y-8509000D01*
X7330000Y-8459000D01*
X7280000Y-8509000D01*
X7330000Y-8559000D01*
X7330000Y-10339500D02*
X7380000Y-10289500D01*
X7330000Y-10239500D01*
X7280000Y-10289500D01*
X7330000Y-10339500D01*
X7485500Y-7730000D02*
X7535500Y-7680000D01*
X7485500Y-7630000D01*
X7435500Y-7680000D01*
X7485500Y-7730000D01*
X7488000Y-8197500D02*
X7538000Y-8147500D01*
X7488000Y-8097500D01*
X7438000Y-8147500D01*
X7488000Y-8197500D01*
X7584000Y-8559000D02*
X7634000Y-8509000D01*
X7584000Y-8459000D01*
X7534000Y-8509000D01*
X7584000Y-8559000D01*
X7584000Y-10339500D02*
X7634000Y-10289500D01*
X7584000Y-10239500D01*
X7534000Y-10289500D01*
X7584000Y-10339500D01*
X7739500Y-7730000D02*
X7789500Y-7680000D01*
X7739500Y-7630000D01*
X7689500Y-7680000D01*
X7739500Y-7730000D01*
X7742000Y-8197500D02*
X7792000Y-8147500D01*
X7742000Y-8097500D01*
X7692000Y-8147500D01*
X7742000Y-8197500D01*
X7838000Y-8559000D02*
X7888000Y-8509000D01*
X7838000Y-8459000D01*
X7788000Y-8509000D01*
X7838000Y-8559000D01*
X7838000Y-10339500D02*
X7888000Y-10289500D01*
X7838000Y-10239500D01*
X7788000Y-10289500D01*
X7838000Y-10339500D01*
X7993500Y-7730000D02*
X8043500Y-7680000D01*
X7993500Y-7630000D01*
X7943500Y-7680000D01*
X7993500Y-7730000D01*
X7996000Y-8197500D02*
X8046000Y-8147500D01*
X7996000Y-8097500D01*
X7946000Y-8147500D01*
X7996000Y-8197500D01*
X8092000Y-8559000D02*
X8142000Y-8509000D01*
X8092000Y-8459000D01*
X8042000Y-8509000D01*
X8092000Y-8559000D01*
X8092000Y-10339500D02*
X8142000Y-10289500D01*
X8092000Y-10239500D01*
X8042000Y-10289500D01*
X8092000Y-10339500D01*
X8247500Y-7730000D02*
X8297500Y-7680000D01*
X8247500Y-7630000D01*
X8197500Y-7680000D01*
X8247500Y-7730000D01*
X8250000Y-8197500D02*
X8300000Y-8147500D01*
X8250000Y-8097500D01*
X8200000Y-8147500D01*
X8250000Y-8197500D01*
X8346000Y-8559000D02*
X8396000Y-8509000D01*
X8346000Y-8459000D01*
X8296000Y-8509000D01*
X8346000Y-8559000D01*
X8346000Y-10339500D02*
X8396000Y-10289500D01*
X8346000Y-10239500D01*
X8296000Y-10289500D01*
X8346000Y-10339500D01*
X8600000Y-8559000D02*
X8650000Y-8509000D01*
X8600000Y-8459000D01*
X8550000Y-8509000D01*
X8600000Y-8559000D01*
X8600000Y-10339500D02*
X8650000Y-10289500D01*
X8600000Y-10239500D01*
X8550000Y-10289500D01*
X8600000Y-10339500D01*
X8854000Y-8559000D02*
X8904000Y-8509000D01*
X8854000Y-8459000D01*
X8804000Y-8509000D01*
X8854000Y-8559000D01*
X8854000Y-10339500D02*
X8904000Y-10289500D01*
X8854000Y-10239500D01*
X8804000Y-10289500D01*
X8854000Y-10339500D01*
X9108000Y-8559000D02*
X9158000Y-8509000D01*
X9108000Y-8459000D01*
X9058000Y-8509000D01*
X9108000Y-8559000D01*
X9108000Y-10339500D02*
X9158000Y-10289500D01*
X9108000Y-10239500D01*
X9058000Y-10289500D01*
X9108000Y-10339500D01*
X9135500Y-7831000D02*
X9185500Y-7781000D01*
X9135500Y-7731000D01*
X9085500Y-7781000D01*
X9135500Y-7831000D01*
X9135500Y-8085000D02*
X9185500Y-8035000D01*
X9135500Y-7985000D01*
X9085500Y-8035000D01*
X9135500Y-8085000D01*
X9362000Y-8559000D02*
X9412000Y-8509000D01*
X9362000Y-8459000D01*
X9312000Y-8509000D01*
X9362000Y-8559000D01*
X9362000Y-10339500D02*
X9412000Y-10289500D01*
X9362000Y-10239500D01*
X9312000Y-10289500D01*
X9362000Y-10339500D01*
X9389500Y-7831000D02*
X9439500Y-7781000D01*
X9389500Y-7731000D01*
X9339500Y-7781000D01*
X9389500Y-7831000D01*
X9389500Y-8085000D02*
X9439500Y-8035000D01*
X9389500Y-7985000D01*
X9339500Y-8035000D01*
X9389500Y-8085000D01*
X9616000Y-8559000D02*
X9666000Y-8509000D01*
X9616000Y-8459000D01*
X9566000Y-8509000D01*
X9616000Y-8559000D01*
X9616000Y-10339500D02*
X9666000Y-10289500D01*
X9616000Y-10239500D01*
X9566000Y-10289500D01*
X9616000Y-10339500D01*
X9643500Y-7831000D02*
X9693500Y-7781000D01*
X9643500Y-7731000D01*
X9593500Y-7781000D01*
X9643500Y-7831000D01*
X9643500Y-8085000D02*
X9693500Y-8035000D01*
X9643500Y-7985000D01*
X9593500Y-8035000D01*
X9643500Y-8085000D01*
X9810000Y-7210000D02*
X9860000Y-7160000D01*
X9810000Y-7110000D01*
X9760000Y-7160000D01*
X9810000Y-7210000D01*
X9810000Y-7464000D02*
X9860000Y-7414000D01*
X9810000Y-7364000D01*
X9760000Y-7414000D01*
X9810000Y-7464000D01*
X9870000Y-8559000D02*
X9920000Y-8509000D01*
X9870000Y-8459000D01*
X9820000Y-8509000D01*
X9870000Y-8559000D01*
X9870000Y-10339500D02*
X9920000Y-10289500D01*
X9870000Y-10239500D01*
X9820000Y-10289500D01*
X9870000Y-10339500D01*
X9897500Y-7831000D02*
X9947500Y-7781000D01*
X9897500Y-7731000D01*
X9847500Y-7781000D01*
X9897500Y-7831000D01*
X9897500Y-8085000D02*
X9947500Y-8035000D01*
X9897500Y-7985000D01*
X9847500Y-8035000D01*
X9897500Y-8085000D01*
X10124000Y-8559000D02*
X10174000Y-8509000D01*
X10124000Y-8459000D01*
X10074000Y-8509000D01*
X10124000Y-8559000D01*
X10124000Y-10339500D02*
X10174000Y-10289500D01*
X10124000Y-10239500D01*
X10074000Y-10289500D01*
X10124000Y-10339500D01*
X10378000Y-8559000D02*
X10428000Y-8509000D01*
X10378000Y-8459000D01*
X10328000Y-8509000D01*
X10378000Y-8559000D01*
X10378000Y-10339500D02*
X10428000Y-10289500D01*
X10378000Y-10239500D01*
X10328000Y-10289500D01*
X10378000Y-10339500D01*
D11*
X5077777Y-11754484D02*
X5077777Y-11554484D01*
X5077777Y-11554484D02*
X5125396Y-11554484D01*
X5125396Y-11554484D02*
X5153967Y-11564008D01*
X5153967Y-11564008D02*
X5173015Y-11583055D01*
X5173015Y-11583055D02*
X5182539Y-11602103D01*
X5182539Y-11602103D02*
X5192063Y-11640198D01*
X5192063Y-11640198D02*
X5192063Y-11668769D01*
X5192063Y-11668769D02*
X5182539Y-11706865D01*
X5182539Y-11706865D02*
X5173015Y-11725912D01*
X5173015Y-11725912D02*
X5153967Y-11744960D01*
X5153967Y-11744960D02*
X5125396Y-11754484D01*
X5125396Y-11754484D02*
X5077777Y-11754484D01*
X5277777Y-11754484D02*
X5277777Y-11621150D01*
X5277777Y-11659246D02*
X5287301Y-11640198D01*
X5287301Y-11640198D02*
X5296824Y-11630674D01*
X5296824Y-11630674D02*
X5315872Y-11621150D01*
X5315872Y-11621150D02*
X5334920Y-11621150D01*
X5401586Y-11754484D02*
X5401586Y-11621150D01*
X5401586Y-11554484D02*
X5392063Y-11564008D01*
X5392063Y-11564008D02*
X5401586Y-11573531D01*
X5401586Y-11573531D02*
X5411110Y-11564008D01*
X5411110Y-11564008D02*
X5401586Y-11554484D01*
X5401586Y-11554484D02*
X5401586Y-11573531D01*
X5525396Y-11754484D02*
X5506348Y-11744960D01*
X5506348Y-11744960D02*
X5496824Y-11725912D01*
X5496824Y-11725912D02*
X5496824Y-11554484D01*
X5630158Y-11754484D02*
X5611110Y-11744960D01*
X5611110Y-11744960D02*
X5601586Y-11725912D01*
X5601586Y-11725912D02*
X5601586Y-11554484D01*
X5858729Y-11754484D02*
X5858729Y-11554484D01*
X5858729Y-11554484D02*
X5925396Y-11697341D01*
X5925396Y-11697341D02*
X5992062Y-11554484D01*
X5992062Y-11554484D02*
X5992062Y-11754484D01*
X6173015Y-11754484D02*
X6173015Y-11649722D01*
X6173015Y-11649722D02*
X6163491Y-11630674D01*
X6163491Y-11630674D02*
X6144443Y-11621150D01*
X6144443Y-11621150D02*
X6106348Y-11621150D01*
X6106348Y-11621150D02*
X6087301Y-11630674D01*
X6173015Y-11744960D02*
X6153967Y-11754484D01*
X6153967Y-11754484D02*
X6106348Y-11754484D01*
X6106348Y-11754484D02*
X6087301Y-11744960D01*
X6087301Y-11744960D02*
X6077777Y-11725912D01*
X6077777Y-11725912D02*
X6077777Y-11706865D01*
X6077777Y-11706865D02*
X6087301Y-11687817D01*
X6087301Y-11687817D02*
X6106348Y-11678293D01*
X6106348Y-11678293D02*
X6153967Y-11678293D01*
X6153967Y-11678293D02*
X6173015Y-11668769D01*
X6268253Y-11621150D02*
X6268253Y-11821150D01*
X6268253Y-11630674D02*
X6287301Y-11621150D01*
X6287301Y-11621150D02*
X6325396Y-11621150D01*
X6325396Y-11621150D02*
X6344443Y-11630674D01*
X6344443Y-11630674D02*
X6353967Y-11640198D01*
X6353967Y-11640198D02*
X6363491Y-11659246D01*
X6363491Y-11659246D02*
X6363491Y-11716388D01*
X6363491Y-11716388D02*
X6353967Y-11735436D01*
X6353967Y-11735436D02*
X6344443Y-11744960D01*
X6344443Y-11744960D02*
X6325396Y-11754484D01*
X6325396Y-11754484D02*
X6287301Y-11754484D01*
X6287301Y-11754484D02*
X6268253Y-11744960D01*
X6449205Y-11735436D02*
X6458729Y-11744960D01*
X6458729Y-11744960D02*
X6449205Y-11754484D01*
X6449205Y-11754484D02*
X6439682Y-11744960D01*
X6439682Y-11744960D02*
X6449205Y-11735436D01*
X6449205Y-11735436D02*
X6449205Y-11754484D01*
X6449205Y-11630674D02*
X6458729Y-11640198D01*
X6458729Y-11640198D02*
X6449205Y-11649722D01*
X6449205Y-11649722D02*
X6439682Y-11640198D01*
X6439682Y-11640198D02*
X6449205Y-11630674D01*
X6449205Y-11630674D02*
X6449205Y-11649722D01*
D12*
X4777000Y-12063000D02*
X4817000Y-12103000D01*
X4817000Y-12063000D02*
X4777000Y-12103000D01*
D11*
X5115872Y-11974484D02*
X5134920Y-11974484D01*
X5134920Y-11974484D02*
X5153967Y-11984008D01*
X5153967Y-11984008D02*
X5163491Y-11993531D01*
X5163491Y-11993531D02*
X5173015Y-12012579D01*
X5173015Y-12012579D02*
X5182539Y-12050674D01*
X5182539Y-12050674D02*
X5182539Y-12098293D01*
X5182539Y-12098293D02*
X5173015Y-12136388D01*
X5173015Y-12136388D02*
X5163491Y-12155436D01*
X5163491Y-12155436D02*
X5153967Y-12164960D01*
X5153967Y-12164960D02*
X5134920Y-12174484D01*
X5134920Y-12174484D02*
X5115872Y-12174484D01*
X5115872Y-12174484D02*
X5096824Y-12164960D01*
X5096824Y-12164960D02*
X5087301Y-12155436D01*
X5087301Y-12155436D02*
X5077777Y-12136388D01*
X5077777Y-12136388D02*
X5068253Y-12098293D01*
X5068253Y-12098293D02*
X5068253Y-12050674D01*
X5068253Y-12050674D02*
X5077777Y-12012579D01*
X5077777Y-12012579D02*
X5087301Y-11993531D01*
X5087301Y-11993531D02*
X5096824Y-11984008D01*
X5096824Y-11984008D02*
X5115872Y-11974484D01*
X5268253Y-12155436D02*
X5277777Y-12164960D01*
X5277777Y-12164960D02*
X5268253Y-12174484D01*
X5268253Y-12174484D02*
X5258729Y-12164960D01*
X5258729Y-12164960D02*
X5268253Y-12155436D01*
X5268253Y-12155436D02*
X5268253Y-12174484D01*
X5449205Y-12041150D02*
X5449205Y-12174484D01*
X5401586Y-11964960D02*
X5353967Y-12107817D01*
X5353967Y-12107817D02*
X5477777Y-12107817D01*
X5592063Y-11974484D02*
X5611110Y-11974484D01*
X5611110Y-11974484D02*
X5630158Y-11984008D01*
X5630158Y-11984008D02*
X5639682Y-11993531D01*
X5639682Y-11993531D02*
X5649205Y-12012579D01*
X5649205Y-12012579D02*
X5658729Y-12050674D01*
X5658729Y-12050674D02*
X5658729Y-12098293D01*
X5658729Y-12098293D02*
X5649205Y-12136388D01*
X5649205Y-12136388D02*
X5639682Y-12155436D01*
X5639682Y-12155436D02*
X5630158Y-12164960D01*
X5630158Y-12164960D02*
X5611110Y-12174484D01*
X5611110Y-12174484D02*
X5592063Y-12174484D01*
X5592063Y-12174484D02*
X5573015Y-12164960D01*
X5573015Y-12164960D02*
X5563491Y-12155436D01*
X5563491Y-12155436D02*
X5553967Y-12136388D01*
X5553967Y-12136388D02*
X5544444Y-12098293D01*
X5544444Y-12098293D02*
X5544444Y-12050674D01*
X5544444Y-12050674D02*
X5553967Y-12012579D01*
X5553967Y-12012579D02*
X5563491Y-11993531D01*
X5563491Y-11993531D02*
X5573015Y-11984008D01*
X5573015Y-11984008D02*
X5592063Y-11974484D01*
X5782539Y-11974484D02*
X5801586Y-11974484D01*
X5801586Y-11974484D02*
X5820634Y-11984008D01*
X5820634Y-11984008D02*
X5830158Y-11993531D01*
X5830158Y-11993531D02*
X5839682Y-12012579D01*
X5839682Y-12012579D02*
X5849205Y-12050674D01*
X5849205Y-12050674D02*
X5849205Y-12098293D01*
X5849205Y-12098293D02*
X5839682Y-12136388D01*
X5839682Y-12136388D02*
X5830158Y-12155436D01*
X5830158Y-12155436D02*
X5820634Y-12164960D01*
X5820634Y-12164960D02*
X5801586Y-12174484D01*
X5801586Y-12174484D02*
X5782539Y-12174484D01*
X5782539Y-12174484D02*
X5763491Y-12164960D01*
X5763491Y-12164960D02*
X5753967Y-12155436D01*
X5753967Y-12155436D02*
X5744443Y-12136388D01*
X5744443Y-12136388D02*
X5734920Y-12098293D01*
X5734920Y-12098293D02*
X5734920Y-12050674D01*
X5734920Y-12050674D02*
X5744443Y-12012579D01*
X5744443Y-12012579D02*
X5753967Y-11993531D01*
X5753967Y-11993531D02*
X5763491Y-11984008D01*
X5763491Y-11984008D02*
X5782539Y-11974484D01*
X5934920Y-12174484D02*
X5934920Y-12041150D01*
X5934920Y-12060198D02*
X5944443Y-12050674D01*
X5944443Y-12050674D02*
X5963491Y-12041150D01*
X5963491Y-12041150D02*
X5992063Y-12041150D01*
X5992063Y-12041150D02*
X6011110Y-12050674D01*
X6011110Y-12050674D02*
X6020634Y-12069722D01*
X6020634Y-12069722D02*
X6020634Y-12174484D01*
X6020634Y-12069722D02*
X6030158Y-12050674D01*
X6030158Y-12050674D02*
X6049205Y-12041150D01*
X6049205Y-12041150D02*
X6077777Y-12041150D01*
X6077777Y-12041150D02*
X6096824Y-12050674D01*
X6096824Y-12050674D02*
X6106348Y-12069722D01*
X6106348Y-12069722D02*
X6106348Y-12174484D01*
X6201586Y-12174484D02*
X6201586Y-12041150D01*
X6201586Y-12060198D02*
X6211110Y-12050674D01*
X6211110Y-12050674D02*
X6230158Y-12041150D01*
X6230158Y-12041150D02*
X6258729Y-12041150D01*
X6258729Y-12041150D02*
X6277777Y-12050674D01*
X6277777Y-12050674D02*
X6287301Y-12069722D01*
X6287301Y-12069722D02*
X6287301Y-12174484D01*
X6287301Y-12069722D02*
X6296824Y-12050674D01*
X6296824Y-12050674D02*
X6315872Y-12041150D01*
X6315872Y-12041150D02*
X6344443Y-12041150D01*
X6344443Y-12041150D02*
X6363491Y-12050674D01*
X6363491Y-12050674D02*
X6373015Y-12069722D01*
X6373015Y-12069722D02*
X6373015Y-12174484D01*
X6763491Y-11964960D02*
X6592063Y-12222103D01*
X7020634Y-11974484D02*
X7039682Y-11974484D01*
X7039682Y-11974484D02*
X7058729Y-11984008D01*
X7058729Y-11984008D02*
X7068253Y-11993531D01*
X7068253Y-11993531D02*
X7077777Y-12012579D01*
X7077777Y-12012579D02*
X7087301Y-12050674D01*
X7087301Y-12050674D02*
X7087301Y-12098293D01*
X7087301Y-12098293D02*
X7077777Y-12136388D01*
X7077777Y-12136388D02*
X7068253Y-12155436D01*
X7068253Y-12155436D02*
X7058729Y-12164960D01*
X7058729Y-12164960D02*
X7039682Y-12174484D01*
X7039682Y-12174484D02*
X7020634Y-12174484D01*
X7020634Y-12174484D02*
X7001586Y-12164960D01*
X7001586Y-12164960D02*
X6992063Y-12155436D01*
X6992063Y-12155436D02*
X6982539Y-12136388D01*
X6982539Y-12136388D02*
X6973015Y-12098293D01*
X6973015Y-12098293D02*
X6973015Y-12050674D01*
X6973015Y-12050674D02*
X6982539Y-12012579D01*
X6982539Y-12012579D02*
X6992063Y-11993531D01*
X6992063Y-11993531D02*
X7001586Y-11984008D01*
X7001586Y-11984008D02*
X7020634Y-11974484D01*
X7173015Y-12155436D02*
X7182539Y-12164960D01*
X7182539Y-12164960D02*
X7173015Y-12174484D01*
X7173015Y-12174484D02*
X7163491Y-12164960D01*
X7163491Y-12164960D02*
X7173015Y-12155436D01*
X7173015Y-12155436D02*
X7173015Y-12174484D01*
X7306348Y-11974484D02*
X7325396Y-11974484D01*
X7325396Y-11974484D02*
X7344444Y-11984008D01*
X7344444Y-11984008D02*
X7353967Y-11993531D01*
X7353967Y-11993531D02*
X7363491Y-12012579D01*
X7363491Y-12012579D02*
X7373015Y-12050674D01*
X7373015Y-12050674D02*
X7373015Y-12098293D01*
X7373015Y-12098293D02*
X7363491Y-12136388D01*
X7363491Y-12136388D02*
X7353967Y-12155436D01*
X7353967Y-12155436D02*
X7344444Y-12164960D01*
X7344444Y-12164960D02*
X7325396Y-12174484D01*
X7325396Y-12174484D02*
X7306348Y-12174484D01*
X7306348Y-12174484D02*
X7287301Y-12164960D01*
X7287301Y-12164960D02*
X7277777Y-12155436D01*
X7277777Y-12155436D02*
X7268253Y-12136388D01*
X7268253Y-12136388D02*
X7258729Y-12098293D01*
X7258729Y-12098293D02*
X7258729Y-12050674D01*
X7258729Y-12050674D02*
X7268253Y-12012579D01*
X7268253Y-12012579D02*
X7277777Y-11993531D01*
X7277777Y-11993531D02*
X7287301Y-11984008D01*
X7287301Y-11984008D02*
X7306348Y-11974484D01*
X7563491Y-12174484D02*
X7449206Y-12174484D01*
X7506348Y-12174484D02*
X7506348Y-11974484D01*
X7506348Y-11974484D02*
X7487301Y-12003055D01*
X7487301Y-12003055D02*
X7468253Y-12022103D01*
X7468253Y-12022103D02*
X7449206Y-12031627D01*
X7744444Y-11974484D02*
X7649206Y-11974484D01*
X7649206Y-11974484D02*
X7639682Y-12069722D01*
X7639682Y-12069722D02*
X7649206Y-12060198D01*
X7649206Y-12060198D02*
X7668253Y-12050674D01*
X7668253Y-12050674D02*
X7715872Y-12050674D01*
X7715872Y-12050674D02*
X7734920Y-12060198D01*
X7734920Y-12060198D02*
X7744444Y-12069722D01*
X7744444Y-12069722D02*
X7753967Y-12088769D01*
X7753967Y-12088769D02*
X7753967Y-12136388D01*
X7753967Y-12136388D02*
X7744444Y-12155436D01*
X7744444Y-12155436D02*
X7734920Y-12164960D01*
X7734920Y-12164960D02*
X7715872Y-12174484D01*
X7715872Y-12174484D02*
X7668253Y-12174484D01*
X7668253Y-12174484D02*
X7649206Y-12164960D01*
X7649206Y-12164960D02*
X7639682Y-12155436D01*
X7820634Y-11974484D02*
X7953967Y-11974484D01*
X7953967Y-11974484D02*
X7868253Y-12174484D01*
X8020634Y-11974484D02*
X8020634Y-12012579D01*
X8096825Y-11974484D02*
X8096825Y-12012579D01*
X8392063Y-12250674D02*
X8382539Y-12241150D01*
X8382539Y-12241150D02*
X8363491Y-12212579D01*
X8363491Y-12212579D02*
X8353968Y-12193531D01*
X8353968Y-12193531D02*
X8344444Y-12164960D01*
X8344444Y-12164960D02*
X8334920Y-12117341D01*
X8334920Y-12117341D02*
X8334920Y-12079246D01*
X8334920Y-12079246D02*
X8344444Y-12031627D01*
X8344444Y-12031627D02*
X8353968Y-12003055D01*
X8353968Y-12003055D02*
X8363491Y-11984008D01*
X8363491Y-11984008D02*
X8382539Y-11955436D01*
X8382539Y-11955436D02*
X8392063Y-11945912D01*
X8449206Y-11974484D02*
X8573015Y-11974484D01*
X8573015Y-11974484D02*
X8506349Y-12050674D01*
X8506349Y-12050674D02*
X8534920Y-12050674D01*
X8534920Y-12050674D02*
X8553968Y-12060198D01*
X8553968Y-12060198D02*
X8563491Y-12069722D01*
X8563491Y-12069722D02*
X8573015Y-12088769D01*
X8573015Y-12088769D02*
X8573015Y-12136388D01*
X8573015Y-12136388D02*
X8563491Y-12155436D01*
X8563491Y-12155436D02*
X8553968Y-12164960D01*
X8553968Y-12164960D02*
X8534920Y-12174484D01*
X8534920Y-12174484D02*
X8477777Y-12174484D01*
X8477777Y-12174484D02*
X8458730Y-12164960D01*
X8458730Y-12164960D02*
X8449206Y-12155436D01*
X8744444Y-11974484D02*
X8706349Y-11974484D01*
X8706349Y-11974484D02*
X8687301Y-11984008D01*
X8687301Y-11984008D02*
X8677777Y-11993531D01*
X8677777Y-11993531D02*
X8658730Y-12022103D01*
X8658730Y-12022103D02*
X8649206Y-12060198D01*
X8649206Y-12060198D02*
X8649206Y-12136388D01*
X8649206Y-12136388D02*
X8658730Y-12155436D01*
X8658730Y-12155436D02*
X8668253Y-12164960D01*
X8668253Y-12164960D02*
X8687301Y-12174484D01*
X8687301Y-12174484D02*
X8725396Y-12174484D01*
X8725396Y-12174484D02*
X8744444Y-12164960D01*
X8744444Y-12164960D02*
X8753968Y-12155436D01*
X8753968Y-12155436D02*
X8763491Y-12136388D01*
X8763491Y-12136388D02*
X8763491Y-12088769D01*
X8763491Y-12088769D02*
X8753968Y-12069722D01*
X8753968Y-12069722D02*
X8744444Y-12060198D01*
X8744444Y-12060198D02*
X8725396Y-12050674D01*
X8725396Y-12050674D02*
X8687301Y-12050674D01*
X8687301Y-12050674D02*
X8668253Y-12060198D01*
X8668253Y-12060198D02*
X8658730Y-12069722D01*
X8658730Y-12069722D02*
X8649206Y-12088769D01*
X9001587Y-12174484D02*
X9001587Y-11974484D01*
X9087301Y-12174484D02*
X9087301Y-12069722D01*
X9087301Y-12069722D02*
X9077777Y-12050674D01*
X9077777Y-12050674D02*
X9058730Y-12041150D01*
X9058730Y-12041150D02*
X9030158Y-12041150D01*
X9030158Y-12041150D02*
X9011111Y-12050674D01*
X9011111Y-12050674D02*
X9001587Y-12060198D01*
X9211111Y-12174484D02*
X9192063Y-12164960D01*
X9192063Y-12164960D02*
X9182539Y-12155436D01*
X9182539Y-12155436D02*
X9173015Y-12136388D01*
X9173015Y-12136388D02*
X9173015Y-12079246D01*
X9173015Y-12079246D02*
X9182539Y-12060198D01*
X9182539Y-12060198D02*
X9192063Y-12050674D01*
X9192063Y-12050674D02*
X9211111Y-12041150D01*
X9211111Y-12041150D02*
X9239682Y-12041150D01*
X9239682Y-12041150D02*
X9258730Y-12050674D01*
X9258730Y-12050674D02*
X9268253Y-12060198D01*
X9268253Y-12060198D02*
X9277777Y-12079246D01*
X9277777Y-12079246D02*
X9277777Y-12136388D01*
X9277777Y-12136388D02*
X9268253Y-12155436D01*
X9268253Y-12155436D02*
X9258730Y-12164960D01*
X9258730Y-12164960D02*
X9239682Y-12174484D01*
X9239682Y-12174484D02*
X9211111Y-12174484D01*
X9392063Y-12174484D02*
X9373015Y-12164960D01*
X9373015Y-12164960D02*
X9363492Y-12145912D01*
X9363492Y-12145912D02*
X9363492Y-11974484D01*
X9544444Y-12164960D02*
X9525396Y-12174484D01*
X9525396Y-12174484D02*
X9487301Y-12174484D01*
X9487301Y-12174484D02*
X9468253Y-12164960D01*
X9468253Y-12164960D02*
X9458730Y-12145912D01*
X9458730Y-12145912D02*
X9458730Y-12069722D01*
X9458730Y-12069722D02*
X9468253Y-12050674D01*
X9468253Y-12050674D02*
X9487301Y-12041150D01*
X9487301Y-12041150D02*
X9525396Y-12041150D01*
X9525396Y-12041150D02*
X9544444Y-12050674D01*
X9544444Y-12050674D02*
X9553968Y-12069722D01*
X9553968Y-12069722D02*
X9553968Y-12088769D01*
X9553968Y-12088769D02*
X9458730Y-12107817D01*
X9630158Y-12164960D02*
X9649206Y-12174484D01*
X9649206Y-12174484D02*
X9687301Y-12174484D01*
X9687301Y-12174484D02*
X9706349Y-12164960D01*
X9706349Y-12164960D02*
X9715873Y-12145912D01*
X9715873Y-12145912D02*
X9715873Y-12136388D01*
X9715873Y-12136388D02*
X9706349Y-12117341D01*
X9706349Y-12117341D02*
X9687301Y-12107817D01*
X9687301Y-12107817D02*
X9658730Y-12107817D01*
X9658730Y-12107817D02*
X9639682Y-12098293D01*
X9639682Y-12098293D02*
X9630158Y-12079246D01*
X9630158Y-12079246D02*
X9630158Y-12069722D01*
X9630158Y-12069722D02*
X9639682Y-12050674D01*
X9639682Y-12050674D02*
X9658730Y-12041150D01*
X9658730Y-12041150D02*
X9687301Y-12041150D01*
X9687301Y-12041150D02*
X9706349Y-12050674D01*
X9782539Y-12250674D02*
X9792063Y-12241150D01*
X9792063Y-12241150D02*
X9811111Y-12212579D01*
X9811111Y-12212579D02*
X9820634Y-12193531D01*
X9820634Y-12193531D02*
X9830158Y-12164960D01*
X9830158Y-12164960D02*
X9839682Y-12117341D01*
X9839682Y-12117341D02*
X9839682Y-12079246D01*
X9839682Y-12079246D02*
X9830158Y-12031627D01*
X9830158Y-12031627D02*
X9820634Y-12003055D01*
X9820634Y-12003055D02*
X9811111Y-11984008D01*
X9811111Y-11984008D02*
X9792063Y-11955436D01*
X9792063Y-11955436D02*
X9782539Y-11945912D01*
D13*
X4817000Y-12347000D02*
G75*
G03*
X4817000Y-12347000I-34000J0D01*
G01*
D11*
X5115872Y-12238484D02*
X5134920Y-12238484D01*
X5134920Y-12238484D02*
X5153967Y-12248008D01*
X5153967Y-12248008D02*
X5163491Y-12257531D01*
X5163491Y-12257531D02*
X5173015Y-12276579D01*
X5173015Y-12276579D02*
X5182539Y-12314674D01*
X5182539Y-12314674D02*
X5182539Y-12362293D01*
X5182539Y-12362293D02*
X5173015Y-12400388D01*
X5173015Y-12400388D02*
X5163491Y-12419436D01*
X5163491Y-12419436D02*
X5153967Y-12428960D01*
X5153967Y-12428960D02*
X5134920Y-12438484D01*
X5134920Y-12438484D02*
X5115872Y-12438484D01*
X5115872Y-12438484D02*
X5096824Y-12428960D01*
X5096824Y-12428960D02*
X5087301Y-12419436D01*
X5087301Y-12419436D02*
X5077777Y-12400388D01*
X5077777Y-12400388D02*
X5068253Y-12362293D01*
X5068253Y-12362293D02*
X5068253Y-12314674D01*
X5068253Y-12314674D02*
X5077777Y-12276579D01*
X5077777Y-12276579D02*
X5087301Y-12257531D01*
X5087301Y-12257531D02*
X5096824Y-12248008D01*
X5096824Y-12248008D02*
X5115872Y-12238484D01*
X5268253Y-12419436D02*
X5277777Y-12428960D01*
X5277777Y-12428960D02*
X5268253Y-12438484D01*
X5268253Y-12438484D02*
X5258729Y-12428960D01*
X5258729Y-12428960D02*
X5268253Y-12419436D01*
X5268253Y-12419436D02*
X5268253Y-12438484D01*
X5449205Y-12238484D02*
X5411110Y-12238484D01*
X5411110Y-12238484D02*
X5392063Y-12248008D01*
X5392063Y-12248008D02*
X5382539Y-12257531D01*
X5382539Y-12257531D02*
X5363491Y-12286103D01*
X5363491Y-12286103D02*
X5353967Y-12324198D01*
X5353967Y-12324198D02*
X5353967Y-12400388D01*
X5353967Y-12400388D02*
X5363491Y-12419436D01*
X5363491Y-12419436D02*
X5373015Y-12428960D01*
X5373015Y-12428960D02*
X5392063Y-12438484D01*
X5392063Y-12438484D02*
X5430158Y-12438484D01*
X5430158Y-12438484D02*
X5449205Y-12428960D01*
X5449205Y-12428960D02*
X5458729Y-12419436D01*
X5458729Y-12419436D02*
X5468253Y-12400388D01*
X5468253Y-12400388D02*
X5468253Y-12352769D01*
X5468253Y-12352769D02*
X5458729Y-12333722D01*
X5458729Y-12333722D02*
X5449205Y-12324198D01*
X5449205Y-12324198D02*
X5430158Y-12314674D01*
X5430158Y-12314674D02*
X5392063Y-12314674D01*
X5392063Y-12314674D02*
X5373015Y-12324198D01*
X5373015Y-12324198D02*
X5363491Y-12333722D01*
X5363491Y-12333722D02*
X5353967Y-12352769D01*
X5582539Y-12324198D02*
X5563491Y-12314674D01*
X5563491Y-12314674D02*
X5553967Y-12305150D01*
X5553967Y-12305150D02*
X5544444Y-12286103D01*
X5544444Y-12286103D02*
X5544444Y-12276579D01*
X5544444Y-12276579D02*
X5553967Y-12257531D01*
X5553967Y-12257531D02*
X5563491Y-12248008D01*
X5563491Y-12248008D02*
X5582539Y-12238484D01*
X5582539Y-12238484D02*
X5620634Y-12238484D01*
X5620634Y-12238484D02*
X5639682Y-12248008D01*
X5639682Y-12248008D02*
X5649205Y-12257531D01*
X5649205Y-12257531D02*
X5658729Y-12276579D01*
X5658729Y-12276579D02*
X5658729Y-12286103D01*
X5658729Y-12286103D02*
X5649205Y-12305150D01*
X5649205Y-12305150D02*
X5639682Y-12314674D01*
X5639682Y-12314674D02*
X5620634Y-12324198D01*
X5620634Y-12324198D02*
X5582539Y-12324198D01*
X5582539Y-12324198D02*
X5563491Y-12333722D01*
X5563491Y-12333722D02*
X5553967Y-12343246D01*
X5553967Y-12343246D02*
X5544444Y-12362293D01*
X5544444Y-12362293D02*
X5544444Y-12400388D01*
X5544444Y-12400388D02*
X5553967Y-12419436D01*
X5553967Y-12419436D02*
X5563491Y-12428960D01*
X5563491Y-12428960D02*
X5582539Y-12438484D01*
X5582539Y-12438484D02*
X5620634Y-12438484D01*
X5620634Y-12438484D02*
X5639682Y-12428960D01*
X5639682Y-12428960D02*
X5649205Y-12419436D01*
X5649205Y-12419436D02*
X5658729Y-12400388D01*
X5658729Y-12400388D02*
X5658729Y-12362293D01*
X5658729Y-12362293D02*
X5649205Y-12343246D01*
X5649205Y-12343246D02*
X5639682Y-12333722D01*
X5639682Y-12333722D02*
X5620634Y-12324198D01*
X5782539Y-12238484D02*
X5801586Y-12238484D01*
X5801586Y-12238484D02*
X5820634Y-12248008D01*
X5820634Y-12248008D02*
X5830158Y-12257531D01*
X5830158Y-12257531D02*
X5839682Y-12276579D01*
X5839682Y-12276579D02*
X5849205Y-12314674D01*
X5849205Y-12314674D02*
X5849205Y-12362293D01*
X5849205Y-12362293D02*
X5839682Y-12400388D01*
X5839682Y-12400388D02*
X5830158Y-12419436D01*
X5830158Y-12419436D02*
X5820634Y-12428960D01*
X5820634Y-12428960D02*
X5801586Y-12438484D01*
X5801586Y-12438484D02*
X5782539Y-12438484D01*
X5782539Y-12438484D02*
X5763491Y-12428960D01*
X5763491Y-12428960D02*
X5753967Y-12419436D01*
X5753967Y-12419436D02*
X5744443Y-12400388D01*
X5744443Y-12400388D02*
X5734920Y-12362293D01*
X5734920Y-12362293D02*
X5734920Y-12314674D01*
X5734920Y-12314674D02*
X5744443Y-12276579D01*
X5744443Y-12276579D02*
X5753967Y-12257531D01*
X5753967Y-12257531D02*
X5763491Y-12248008D01*
X5763491Y-12248008D02*
X5782539Y-12238484D01*
X5934920Y-12438484D02*
X5934920Y-12305150D01*
X5934920Y-12324198D02*
X5944443Y-12314674D01*
X5944443Y-12314674D02*
X5963491Y-12305150D01*
X5963491Y-12305150D02*
X5992063Y-12305150D01*
X5992063Y-12305150D02*
X6011110Y-12314674D01*
X6011110Y-12314674D02*
X6020634Y-12333722D01*
X6020634Y-12333722D02*
X6020634Y-12438484D01*
X6020634Y-12333722D02*
X6030158Y-12314674D01*
X6030158Y-12314674D02*
X6049205Y-12305150D01*
X6049205Y-12305150D02*
X6077777Y-12305150D01*
X6077777Y-12305150D02*
X6096824Y-12314674D01*
X6096824Y-12314674D02*
X6106348Y-12333722D01*
X6106348Y-12333722D02*
X6106348Y-12438484D01*
X6201586Y-12438484D02*
X6201586Y-12305150D01*
X6201586Y-12324198D02*
X6211110Y-12314674D01*
X6211110Y-12314674D02*
X6230158Y-12305150D01*
X6230158Y-12305150D02*
X6258729Y-12305150D01*
X6258729Y-12305150D02*
X6277777Y-12314674D01*
X6277777Y-12314674D02*
X6287301Y-12333722D01*
X6287301Y-12333722D02*
X6287301Y-12438484D01*
X6287301Y-12333722D02*
X6296824Y-12314674D01*
X6296824Y-12314674D02*
X6315872Y-12305150D01*
X6315872Y-12305150D02*
X6344443Y-12305150D01*
X6344443Y-12305150D02*
X6363491Y-12314674D01*
X6363491Y-12314674D02*
X6373015Y-12333722D01*
X6373015Y-12333722D02*
X6373015Y-12438484D01*
X6763491Y-12228960D02*
X6592063Y-12486103D01*
X7020634Y-12238484D02*
X7039682Y-12238484D01*
X7039682Y-12238484D02*
X7058729Y-12248008D01*
X7058729Y-12248008D02*
X7068253Y-12257531D01*
X7068253Y-12257531D02*
X7077777Y-12276579D01*
X7077777Y-12276579D02*
X7087301Y-12314674D01*
X7087301Y-12314674D02*
X7087301Y-12362293D01*
X7087301Y-12362293D02*
X7077777Y-12400388D01*
X7077777Y-12400388D02*
X7068253Y-12419436D01*
X7068253Y-12419436D02*
X7058729Y-12428960D01*
X7058729Y-12428960D02*
X7039682Y-12438484D01*
X7039682Y-12438484D02*
X7020634Y-12438484D01*
X7020634Y-12438484D02*
X7001586Y-12428960D01*
X7001586Y-12428960D02*
X6992063Y-12419436D01*
X6992063Y-12419436D02*
X6982539Y-12400388D01*
X6982539Y-12400388D02*
X6973015Y-12362293D01*
X6973015Y-12362293D02*
X6973015Y-12314674D01*
X6973015Y-12314674D02*
X6982539Y-12276579D01*
X6982539Y-12276579D02*
X6992063Y-12257531D01*
X6992063Y-12257531D02*
X7001586Y-12248008D01*
X7001586Y-12248008D02*
X7020634Y-12238484D01*
X7173015Y-12419436D02*
X7182539Y-12428960D01*
X7182539Y-12428960D02*
X7173015Y-12438484D01*
X7173015Y-12438484D02*
X7163491Y-12428960D01*
X7163491Y-12428960D02*
X7173015Y-12419436D01*
X7173015Y-12419436D02*
X7173015Y-12438484D01*
X7306348Y-12238484D02*
X7325396Y-12238484D01*
X7325396Y-12238484D02*
X7344444Y-12248008D01*
X7344444Y-12248008D02*
X7353967Y-12257531D01*
X7353967Y-12257531D02*
X7363491Y-12276579D01*
X7363491Y-12276579D02*
X7373015Y-12314674D01*
X7373015Y-12314674D02*
X7373015Y-12362293D01*
X7373015Y-12362293D02*
X7363491Y-12400388D01*
X7363491Y-12400388D02*
X7353967Y-12419436D01*
X7353967Y-12419436D02*
X7344444Y-12428960D01*
X7344444Y-12428960D02*
X7325396Y-12438484D01*
X7325396Y-12438484D02*
X7306348Y-12438484D01*
X7306348Y-12438484D02*
X7287301Y-12428960D01*
X7287301Y-12428960D02*
X7277777Y-12419436D01*
X7277777Y-12419436D02*
X7268253Y-12400388D01*
X7268253Y-12400388D02*
X7258729Y-12362293D01*
X7258729Y-12362293D02*
X7258729Y-12314674D01*
X7258729Y-12314674D02*
X7268253Y-12276579D01*
X7268253Y-12276579D02*
X7277777Y-12257531D01*
X7277777Y-12257531D02*
X7287301Y-12248008D01*
X7287301Y-12248008D02*
X7306348Y-12238484D01*
X7449206Y-12257531D02*
X7458729Y-12248008D01*
X7458729Y-12248008D02*
X7477777Y-12238484D01*
X7477777Y-12238484D02*
X7525396Y-12238484D01*
X7525396Y-12238484D02*
X7544444Y-12248008D01*
X7544444Y-12248008D02*
X7553967Y-12257531D01*
X7553967Y-12257531D02*
X7563491Y-12276579D01*
X7563491Y-12276579D02*
X7563491Y-12295627D01*
X7563491Y-12295627D02*
X7553967Y-12324198D01*
X7553967Y-12324198D02*
X7439682Y-12438484D01*
X7439682Y-12438484D02*
X7563491Y-12438484D01*
X7734920Y-12238484D02*
X7696825Y-12238484D01*
X7696825Y-12238484D02*
X7677777Y-12248008D01*
X7677777Y-12248008D02*
X7668253Y-12257531D01*
X7668253Y-12257531D02*
X7649206Y-12286103D01*
X7649206Y-12286103D02*
X7639682Y-12324198D01*
X7639682Y-12324198D02*
X7639682Y-12400388D01*
X7639682Y-12400388D02*
X7649206Y-12419436D01*
X7649206Y-12419436D02*
X7658729Y-12428960D01*
X7658729Y-12428960D02*
X7677777Y-12438484D01*
X7677777Y-12438484D02*
X7715872Y-12438484D01*
X7715872Y-12438484D02*
X7734920Y-12428960D01*
X7734920Y-12428960D02*
X7744444Y-12419436D01*
X7744444Y-12419436D02*
X7753967Y-12400388D01*
X7753967Y-12400388D02*
X7753967Y-12352769D01*
X7753967Y-12352769D02*
X7744444Y-12333722D01*
X7744444Y-12333722D02*
X7734920Y-12324198D01*
X7734920Y-12324198D02*
X7715872Y-12314674D01*
X7715872Y-12314674D02*
X7677777Y-12314674D01*
X7677777Y-12314674D02*
X7658729Y-12324198D01*
X7658729Y-12324198D02*
X7649206Y-12333722D01*
X7649206Y-12333722D02*
X7639682Y-12352769D01*
X7868253Y-12324198D02*
X7849206Y-12314674D01*
X7849206Y-12314674D02*
X7839682Y-12305150D01*
X7839682Y-12305150D02*
X7830158Y-12286103D01*
X7830158Y-12286103D02*
X7830158Y-12276579D01*
X7830158Y-12276579D02*
X7839682Y-12257531D01*
X7839682Y-12257531D02*
X7849206Y-12248008D01*
X7849206Y-12248008D02*
X7868253Y-12238484D01*
X7868253Y-12238484D02*
X7906348Y-12238484D01*
X7906348Y-12238484D02*
X7925396Y-12248008D01*
X7925396Y-12248008D02*
X7934920Y-12257531D01*
X7934920Y-12257531D02*
X7944444Y-12276579D01*
X7944444Y-12276579D02*
X7944444Y-12286103D01*
X7944444Y-12286103D02*
X7934920Y-12305150D01*
X7934920Y-12305150D02*
X7925396Y-12314674D01*
X7925396Y-12314674D02*
X7906348Y-12324198D01*
X7906348Y-12324198D02*
X7868253Y-12324198D01*
X7868253Y-12324198D02*
X7849206Y-12333722D01*
X7849206Y-12333722D02*
X7839682Y-12343246D01*
X7839682Y-12343246D02*
X7830158Y-12362293D01*
X7830158Y-12362293D02*
X7830158Y-12400388D01*
X7830158Y-12400388D02*
X7839682Y-12419436D01*
X7839682Y-12419436D02*
X7849206Y-12428960D01*
X7849206Y-12428960D02*
X7868253Y-12438484D01*
X7868253Y-12438484D02*
X7906348Y-12438484D01*
X7906348Y-12438484D02*
X7925396Y-12428960D01*
X7925396Y-12428960D02*
X7934920Y-12419436D01*
X7934920Y-12419436D02*
X7944444Y-12400388D01*
X7944444Y-12400388D02*
X7944444Y-12362293D01*
X7944444Y-12362293D02*
X7934920Y-12343246D01*
X7934920Y-12343246D02*
X7925396Y-12333722D01*
X7925396Y-12333722D02*
X7906348Y-12324198D01*
X8020634Y-12238484D02*
X8020634Y-12276579D01*
X8096825Y-12238484D02*
X8096825Y-12276579D01*
X8392063Y-12514674D02*
X8382539Y-12505150D01*
X8382539Y-12505150D02*
X8363491Y-12476579D01*
X8363491Y-12476579D02*
X8353968Y-12457531D01*
X8353968Y-12457531D02*
X8344444Y-12428960D01*
X8344444Y-12428960D02*
X8334920Y-12381341D01*
X8334920Y-12381341D02*
X8334920Y-12343246D01*
X8334920Y-12343246D02*
X8344444Y-12295627D01*
X8344444Y-12295627D02*
X8353968Y-12267055D01*
X8353968Y-12267055D02*
X8363491Y-12248008D01*
X8363491Y-12248008D02*
X8382539Y-12219436D01*
X8382539Y-12219436D02*
X8392063Y-12209912D01*
X8449206Y-12238484D02*
X8573015Y-12238484D01*
X8573015Y-12238484D02*
X8506349Y-12314674D01*
X8506349Y-12314674D02*
X8534920Y-12314674D01*
X8534920Y-12314674D02*
X8553968Y-12324198D01*
X8553968Y-12324198D02*
X8563491Y-12333722D01*
X8563491Y-12333722D02*
X8573015Y-12352769D01*
X8573015Y-12352769D02*
X8573015Y-12400388D01*
X8573015Y-12400388D02*
X8563491Y-12419436D01*
X8563491Y-12419436D02*
X8553968Y-12428960D01*
X8553968Y-12428960D02*
X8534920Y-12438484D01*
X8534920Y-12438484D02*
X8477777Y-12438484D01*
X8477777Y-12438484D02*
X8458730Y-12428960D01*
X8458730Y-12428960D02*
X8449206Y-12419436D01*
X8811111Y-12438484D02*
X8811111Y-12238484D01*
X8896825Y-12438484D02*
X8896825Y-12333722D01*
X8896825Y-12333722D02*
X8887301Y-12314674D01*
X8887301Y-12314674D02*
X8868253Y-12305150D01*
X8868253Y-12305150D02*
X8839682Y-12305150D01*
X8839682Y-12305150D02*
X8820634Y-12314674D01*
X8820634Y-12314674D02*
X8811111Y-12324198D01*
X9020634Y-12438484D02*
X9001587Y-12428960D01*
X9001587Y-12428960D02*
X8992063Y-12419436D01*
X8992063Y-12419436D02*
X8982539Y-12400388D01*
X8982539Y-12400388D02*
X8982539Y-12343246D01*
X8982539Y-12343246D02*
X8992063Y-12324198D01*
X8992063Y-12324198D02*
X9001587Y-12314674D01*
X9001587Y-12314674D02*
X9020634Y-12305150D01*
X9020634Y-12305150D02*
X9049206Y-12305150D01*
X9049206Y-12305150D02*
X9068253Y-12314674D01*
X9068253Y-12314674D02*
X9077777Y-12324198D01*
X9077777Y-12324198D02*
X9087301Y-12343246D01*
X9087301Y-12343246D02*
X9087301Y-12400388D01*
X9087301Y-12400388D02*
X9077777Y-12419436D01*
X9077777Y-12419436D02*
X9068253Y-12428960D01*
X9068253Y-12428960D02*
X9049206Y-12438484D01*
X9049206Y-12438484D02*
X9020634Y-12438484D01*
X9201587Y-12438484D02*
X9182539Y-12428960D01*
X9182539Y-12428960D02*
X9173015Y-12409912D01*
X9173015Y-12409912D02*
X9173015Y-12238484D01*
X9353968Y-12428960D02*
X9334920Y-12438484D01*
X9334920Y-12438484D02*
X9296825Y-12438484D01*
X9296825Y-12438484D02*
X9277777Y-12428960D01*
X9277777Y-12428960D02*
X9268253Y-12409912D01*
X9268253Y-12409912D02*
X9268253Y-12333722D01*
X9268253Y-12333722D02*
X9277777Y-12314674D01*
X9277777Y-12314674D02*
X9296825Y-12305150D01*
X9296825Y-12305150D02*
X9334920Y-12305150D01*
X9334920Y-12305150D02*
X9353968Y-12314674D01*
X9353968Y-12314674D02*
X9363492Y-12333722D01*
X9363492Y-12333722D02*
X9363492Y-12352769D01*
X9363492Y-12352769D02*
X9268253Y-12371817D01*
X9439682Y-12428960D02*
X9458730Y-12438484D01*
X9458730Y-12438484D02*
X9496825Y-12438484D01*
X9496825Y-12438484D02*
X9515873Y-12428960D01*
X9515873Y-12428960D02*
X9525396Y-12409912D01*
X9525396Y-12409912D02*
X9525396Y-12400388D01*
X9525396Y-12400388D02*
X9515873Y-12381341D01*
X9515873Y-12381341D02*
X9496825Y-12371817D01*
X9496825Y-12371817D02*
X9468253Y-12371817D01*
X9468253Y-12371817D02*
X9449206Y-12362293D01*
X9449206Y-12362293D02*
X9439682Y-12343246D01*
X9439682Y-12343246D02*
X9439682Y-12333722D01*
X9439682Y-12333722D02*
X9449206Y-12314674D01*
X9449206Y-12314674D02*
X9468253Y-12305150D01*
X9468253Y-12305150D02*
X9496825Y-12305150D01*
X9496825Y-12305150D02*
X9515873Y-12314674D01*
X9592063Y-12514674D02*
X9601587Y-12505150D01*
X9601587Y-12505150D02*
X9620634Y-12476579D01*
X9620634Y-12476579D02*
X9630158Y-12457531D01*
X9630158Y-12457531D02*
X9639682Y-12428960D01*
X9639682Y-12428960D02*
X9649206Y-12381341D01*
X9649206Y-12381341D02*
X9649206Y-12343246D01*
X9649206Y-12343246D02*
X9639682Y-12295627D01*
X9639682Y-12295627D02*
X9630158Y-12267055D01*
X9630158Y-12267055D02*
X9620634Y-12248008D01*
X9620634Y-12248008D02*
X9601587Y-12219436D01*
X9601587Y-12219436D02*
X9592063Y-12209912D01*
D14*
X4777000Y-12571000D02*
X4777000Y-12651000D01*
X4737000Y-12611000D02*
X4817000Y-12611000D01*
D11*
X5115872Y-12502484D02*
X5134920Y-12502484D01*
X5134920Y-12502484D02*
X5153967Y-12512008D01*
X5153967Y-12512008D02*
X5163491Y-12521531D01*
X5163491Y-12521531D02*
X5173015Y-12540579D01*
X5173015Y-12540579D02*
X5182539Y-12578674D01*
X5182539Y-12578674D02*
X5182539Y-12626293D01*
X5182539Y-12626293D02*
X5173015Y-12664388D01*
X5173015Y-12664388D02*
X5163491Y-12683436D01*
X5163491Y-12683436D02*
X5153967Y-12692960D01*
X5153967Y-12692960D02*
X5134920Y-12702484D01*
X5134920Y-12702484D02*
X5115872Y-12702484D01*
X5115872Y-12702484D02*
X5096824Y-12692960D01*
X5096824Y-12692960D02*
X5087301Y-12683436D01*
X5087301Y-12683436D02*
X5077777Y-12664388D01*
X5077777Y-12664388D02*
X5068253Y-12626293D01*
X5068253Y-12626293D02*
X5068253Y-12578674D01*
X5068253Y-12578674D02*
X5077777Y-12540579D01*
X5077777Y-12540579D02*
X5087301Y-12521531D01*
X5087301Y-12521531D02*
X5096824Y-12512008D01*
X5096824Y-12512008D02*
X5115872Y-12502484D01*
X5268253Y-12683436D02*
X5277777Y-12692960D01*
X5277777Y-12692960D02*
X5268253Y-12702484D01*
X5268253Y-12702484D02*
X5258729Y-12692960D01*
X5258729Y-12692960D02*
X5268253Y-12683436D01*
X5268253Y-12683436D02*
X5268253Y-12702484D01*
X5392063Y-12588198D02*
X5373015Y-12578674D01*
X5373015Y-12578674D02*
X5363491Y-12569150D01*
X5363491Y-12569150D02*
X5353967Y-12550103D01*
X5353967Y-12550103D02*
X5353967Y-12540579D01*
X5353967Y-12540579D02*
X5363491Y-12521531D01*
X5363491Y-12521531D02*
X5373015Y-12512008D01*
X5373015Y-12512008D02*
X5392063Y-12502484D01*
X5392063Y-12502484D02*
X5430158Y-12502484D01*
X5430158Y-12502484D02*
X5449205Y-12512008D01*
X5449205Y-12512008D02*
X5458729Y-12521531D01*
X5458729Y-12521531D02*
X5468253Y-12540579D01*
X5468253Y-12540579D02*
X5468253Y-12550103D01*
X5468253Y-12550103D02*
X5458729Y-12569150D01*
X5458729Y-12569150D02*
X5449205Y-12578674D01*
X5449205Y-12578674D02*
X5430158Y-12588198D01*
X5430158Y-12588198D02*
X5392063Y-12588198D01*
X5392063Y-12588198D02*
X5373015Y-12597722D01*
X5373015Y-12597722D02*
X5363491Y-12607246D01*
X5363491Y-12607246D02*
X5353967Y-12626293D01*
X5353967Y-12626293D02*
X5353967Y-12664388D01*
X5353967Y-12664388D02*
X5363491Y-12683436D01*
X5363491Y-12683436D02*
X5373015Y-12692960D01*
X5373015Y-12692960D02*
X5392063Y-12702484D01*
X5392063Y-12702484D02*
X5430158Y-12702484D01*
X5430158Y-12702484D02*
X5449205Y-12692960D01*
X5449205Y-12692960D02*
X5458729Y-12683436D01*
X5458729Y-12683436D02*
X5468253Y-12664388D01*
X5468253Y-12664388D02*
X5468253Y-12626293D01*
X5468253Y-12626293D02*
X5458729Y-12607246D01*
X5458729Y-12607246D02*
X5449205Y-12597722D01*
X5449205Y-12597722D02*
X5430158Y-12588198D01*
X5592063Y-12502484D02*
X5611110Y-12502484D01*
X5611110Y-12502484D02*
X5630158Y-12512008D01*
X5630158Y-12512008D02*
X5639682Y-12521531D01*
X5639682Y-12521531D02*
X5649205Y-12540579D01*
X5649205Y-12540579D02*
X5658729Y-12578674D01*
X5658729Y-12578674D02*
X5658729Y-12626293D01*
X5658729Y-12626293D02*
X5649205Y-12664388D01*
X5649205Y-12664388D02*
X5639682Y-12683436D01*
X5639682Y-12683436D02*
X5630158Y-12692960D01*
X5630158Y-12692960D02*
X5611110Y-12702484D01*
X5611110Y-12702484D02*
X5592063Y-12702484D01*
X5592063Y-12702484D02*
X5573015Y-12692960D01*
X5573015Y-12692960D02*
X5563491Y-12683436D01*
X5563491Y-12683436D02*
X5553967Y-12664388D01*
X5553967Y-12664388D02*
X5544444Y-12626293D01*
X5544444Y-12626293D02*
X5544444Y-12578674D01*
X5544444Y-12578674D02*
X5553967Y-12540579D01*
X5553967Y-12540579D02*
X5563491Y-12521531D01*
X5563491Y-12521531D02*
X5573015Y-12512008D01*
X5573015Y-12512008D02*
X5592063Y-12502484D01*
X5782539Y-12502484D02*
X5801586Y-12502484D01*
X5801586Y-12502484D02*
X5820634Y-12512008D01*
X5820634Y-12512008D02*
X5830158Y-12521531D01*
X5830158Y-12521531D02*
X5839682Y-12540579D01*
X5839682Y-12540579D02*
X5849205Y-12578674D01*
X5849205Y-12578674D02*
X5849205Y-12626293D01*
X5849205Y-12626293D02*
X5839682Y-12664388D01*
X5839682Y-12664388D02*
X5830158Y-12683436D01*
X5830158Y-12683436D02*
X5820634Y-12692960D01*
X5820634Y-12692960D02*
X5801586Y-12702484D01*
X5801586Y-12702484D02*
X5782539Y-12702484D01*
X5782539Y-12702484D02*
X5763491Y-12692960D01*
X5763491Y-12692960D02*
X5753967Y-12683436D01*
X5753967Y-12683436D02*
X5744443Y-12664388D01*
X5744443Y-12664388D02*
X5734920Y-12626293D01*
X5734920Y-12626293D02*
X5734920Y-12578674D01*
X5734920Y-12578674D02*
X5744443Y-12540579D01*
X5744443Y-12540579D02*
X5753967Y-12521531D01*
X5753967Y-12521531D02*
X5763491Y-12512008D01*
X5763491Y-12512008D02*
X5782539Y-12502484D01*
X5934920Y-12702484D02*
X5934920Y-12569150D01*
X5934920Y-12588198D02*
X5944443Y-12578674D01*
X5944443Y-12578674D02*
X5963491Y-12569150D01*
X5963491Y-12569150D02*
X5992063Y-12569150D01*
X5992063Y-12569150D02*
X6011110Y-12578674D01*
X6011110Y-12578674D02*
X6020634Y-12597722D01*
X6020634Y-12597722D02*
X6020634Y-12702484D01*
X6020634Y-12597722D02*
X6030158Y-12578674D01*
X6030158Y-12578674D02*
X6049205Y-12569150D01*
X6049205Y-12569150D02*
X6077777Y-12569150D01*
X6077777Y-12569150D02*
X6096824Y-12578674D01*
X6096824Y-12578674D02*
X6106348Y-12597722D01*
X6106348Y-12597722D02*
X6106348Y-12702484D01*
X6201586Y-12702484D02*
X6201586Y-12569150D01*
X6201586Y-12588198D02*
X6211110Y-12578674D01*
X6211110Y-12578674D02*
X6230158Y-12569150D01*
X6230158Y-12569150D02*
X6258729Y-12569150D01*
X6258729Y-12569150D02*
X6277777Y-12578674D01*
X6277777Y-12578674D02*
X6287301Y-12597722D01*
X6287301Y-12597722D02*
X6287301Y-12702484D01*
X6287301Y-12597722D02*
X6296824Y-12578674D01*
X6296824Y-12578674D02*
X6315872Y-12569150D01*
X6315872Y-12569150D02*
X6344443Y-12569150D01*
X6344443Y-12569150D02*
X6363491Y-12578674D01*
X6363491Y-12578674D02*
X6373015Y-12597722D01*
X6373015Y-12597722D02*
X6373015Y-12702484D01*
X6763491Y-12492960D02*
X6592063Y-12750103D01*
X7020634Y-12502484D02*
X7039682Y-12502484D01*
X7039682Y-12502484D02*
X7058729Y-12512008D01*
X7058729Y-12512008D02*
X7068253Y-12521531D01*
X7068253Y-12521531D02*
X7077777Y-12540579D01*
X7077777Y-12540579D02*
X7087301Y-12578674D01*
X7087301Y-12578674D02*
X7087301Y-12626293D01*
X7087301Y-12626293D02*
X7077777Y-12664388D01*
X7077777Y-12664388D02*
X7068253Y-12683436D01*
X7068253Y-12683436D02*
X7058729Y-12692960D01*
X7058729Y-12692960D02*
X7039682Y-12702484D01*
X7039682Y-12702484D02*
X7020634Y-12702484D01*
X7020634Y-12702484D02*
X7001586Y-12692960D01*
X7001586Y-12692960D02*
X6992063Y-12683436D01*
X6992063Y-12683436D02*
X6982539Y-12664388D01*
X6982539Y-12664388D02*
X6973015Y-12626293D01*
X6973015Y-12626293D02*
X6973015Y-12578674D01*
X6973015Y-12578674D02*
X6982539Y-12540579D01*
X6982539Y-12540579D02*
X6992063Y-12521531D01*
X6992063Y-12521531D02*
X7001586Y-12512008D01*
X7001586Y-12512008D02*
X7020634Y-12502484D01*
X7173015Y-12683436D02*
X7182539Y-12692960D01*
X7182539Y-12692960D02*
X7173015Y-12702484D01*
X7173015Y-12702484D02*
X7163491Y-12692960D01*
X7163491Y-12692960D02*
X7173015Y-12683436D01*
X7173015Y-12683436D02*
X7173015Y-12702484D01*
X7306348Y-12502484D02*
X7325396Y-12502484D01*
X7325396Y-12502484D02*
X7344444Y-12512008D01*
X7344444Y-12512008D02*
X7353967Y-12521531D01*
X7353967Y-12521531D02*
X7363491Y-12540579D01*
X7363491Y-12540579D02*
X7373015Y-12578674D01*
X7373015Y-12578674D02*
X7373015Y-12626293D01*
X7373015Y-12626293D02*
X7363491Y-12664388D01*
X7363491Y-12664388D02*
X7353967Y-12683436D01*
X7353967Y-12683436D02*
X7344444Y-12692960D01*
X7344444Y-12692960D02*
X7325396Y-12702484D01*
X7325396Y-12702484D02*
X7306348Y-12702484D01*
X7306348Y-12702484D02*
X7287301Y-12692960D01*
X7287301Y-12692960D02*
X7277777Y-12683436D01*
X7277777Y-12683436D02*
X7268253Y-12664388D01*
X7268253Y-12664388D02*
X7258729Y-12626293D01*
X7258729Y-12626293D02*
X7258729Y-12578674D01*
X7258729Y-12578674D02*
X7268253Y-12540579D01*
X7268253Y-12540579D02*
X7277777Y-12521531D01*
X7277777Y-12521531D02*
X7287301Y-12512008D01*
X7287301Y-12512008D02*
X7306348Y-12502484D01*
X7439682Y-12502484D02*
X7563491Y-12502484D01*
X7563491Y-12502484D02*
X7496825Y-12578674D01*
X7496825Y-12578674D02*
X7525396Y-12578674D01*
X7525396Y-12578674D02*
X7544444Y-12588198D01*
X7544444Y-12588198D02*
X7553967Y-12597722D01*
X7553967Y-12597722D02*
X7563491Y-12616769D01*
X7563491Y-12616769D02*
X7563491Y-12664388D01*
X7563491Y-12664388D02*
X7553967Y-12683436D01*
X7553967Y-12683436D02*
X7544444Y-12692960D01*
X7544444Y-12692960D02*
X7525396Y-12702484D01*
X7525396Y-12702484D02*
X7468253Y-12702484D01*
X7468253Y-12702484D02*
X7449206Y-12692960D01*
X7449206Y-12692960D02*
X7439682Y-12683436D01*
X7753967Y-12702484D02*
X7639682Y-12702484D01*
X7696825Y-12702484D02*
X7696825Y-12502484D01*
X7696825Y-12502484D02*
X7677777Y-12531055D01*
X7677777Y-12531055D02*
X7658729Y-12550103D01*
X7658729Y-12550103D02*
X7639682Y-12559627D01*
X7934920Y-12502484D02*
X7839682Y-12502484D01*
X7839682Y-12502484D02*
X7830158Y-12597722D01*
X7830158Y-12597722D02*
X7839682Y-12588198D01*
X7839682Y-12588198D02*
X7858729Y-12578674D01*
X7858729Y-12578674D02*
X7906348Y-12578674D01*
X7906348Y-12578674D02*
X7925396Y-12588198D01*
X7925396Y-12588198D02*
X7934920Y-12597722D01*
X7934920Y-12597722D02*
X7944444Y-12616769D01*
X7944444Y-12616769D02*
X7944444Y-12664388D01*
X7944444Y-12664388D02*
X7934920Y-12683436D01*
X7934920Y-12683436D02*
X7925396Y-12692960D01*
X7925396Y-12692960D02*
X7906348Y-12702484D01*
X7906348Y-12702484D02*
X7858729Y-12702484D01*
X7858729Y-12702484D02*
X7839682Y-12692960D01*
X7839682Y-12692960D02*
X7830158Y-12683436D01*
X8020634Y-12502484D02*
X8020634Y-12540579D01*
X8096825Y-12502484D02*
X8096825Y-12540579D01*
X8392063Y-12778674D02*
X8382539Y-12769150D01*
X8382539Y-12769150D02*
X8363491Y-12740579D01*
X8363491Y-12740579D02*
X8353968Y-12721531D01*
X8353968Y-12721531D02*
X8344444Y-12692960D01*
X8344444Y-12692960D02*
X8334920Y-12645341D01*
X8334920Y-12645341D02*
X8334920Y-12607246D01*
X8334920Y-12607246D02*
X8344444Y-12559627D01*
X8344444Y-12559627D02*
X8353968Y-12531055D01*
X8353968Y-12531055D02*
X8363491Y-12512008D01*
X8363491Y-12512008D02*
X8382539Y-12483436D01*
X8382539Y-12483436D02*
X8392063Y-12473912D01*
X8458730Y-12521531D02*
X8468253Y-12512008D01*
X8468253Y-12512008D02*
X8487301Y-12502484D01*
X8487301Y-12502484D02*
X8534920Y-12502484D01*
X8534920Y-12502484D02*
X8553968Y-12512008D01*
X8553968Y-12512008D02*
X8563491Y-12521531D01*
X8563491Y-12521531D02*
X8573015Y-12540579D01*
X8573015Y-12540579D02*
X8573015Y-12559627D01*
X8573015Y-12559627D02*
X8563491Y-12588198D01*
X8563491Y-12588198D02*
X8449206Y-12702484D01*
X8449206Y-12702484D02*
X8573015Y-12702484D01*
X8811111Y-12702484D02*
X8811111Y-12502484D01*
X8896825Y-12702484D02*
X8896825Y-12597722D01*
X8896825Y-12597722D02*
X8887301Y-12578674D01*
X8887301Y-12578674D02*
X8868253Y-12569150D01*
X8868253Y-12569150D02*
X8839682Y-12569150D01*
X8839682Y-12569150D02*
X8820634Y-12578674D01*
X8820634Y-12578674D02*
X8811111Y-12588198D01*
X9020634Y-12702484D02*
X9001587Y-12692960D01*
X9001587Y-12692960D02*
X8992063Y-12683436D01*
X8992063Y-12683436D02*
X8982539Y-12664388D01*
X8982539Y-12664388D02*
X8982539Y-12607246D01*
X8982539Y-12607246D02*
X8992063Y-12588198D01*
X8992063Y-12588198D02*
X9001587Y-12578674D01*
X9001587Y-12578674D02*
X9020634Y-12569150D01*
X9020634Y-12569150D02*
X9049206Y-12569150D01*
X9049206Y-12569150D02*
X9068253Y-12578674D01*
X9068253Y-12578674D02*
X9077777Y-12588198D01*
X9077777Y-12588198D02*
X9087301Y-12607246D01*
X9087301Y-12607246D02*
X9087301Y-12664388D01*
X9087301Y-12664388D02*
X9077777Y-12683436D01*
X9077777Y-12683436D02*
X9068253Y-12692960D01*
X9068253Y-12692960D02*
X9049206Y-12702484D01*
X9049206Y-12702484D02*
X9020634Y-12702484D01*
X9201587Y-12702484D02*
X9182539Y-12692960D01*
X9182539Y-12692960D02*
X9173015Y-12673912D01*
X9173015Y-12673912D02*
X9173015Y-12502484D01*
X9353968Y-12692960D02*
X9334920Y-12702484D01*
X9334920Y-12702484D02*
X9296825Y-12702484D01*
X9296825Y-12702484D02*
X9277777Y-12692960D01*
X9277777Y-12692960D02*
X9268253Y-12673912D01*
X9268253Y-12673912D02*
X9268253Y-12597722D01*
X9268253Y-12597722D02*
X9277777Y-12578674D01*
X9277777Y-12578674D02*
X9296825Y-12569150D01*
X9296825Y-12569150D02*
X9334920Y-12569150D01*
X9334920Y-12569150D02*
X9353968Y-12578674D01*
X9353968Y-12578674D02*
X9363492Y-12597722D01*
X9363492Y-12597722D02*
X9363492Y-12616769D01*
X9363492Y-12616769D02*
X9268253Y-12635817D01*
X9439682Y-12692960D02*
X9458730Y-12702484D01*
X9458730Y-12702484D02*
X9496825Y-12702484D01*
X9496825Y-12702484D02*
X9515873Y-12692960D01*
X9515873Y-12692960D02*
X9525396Y-12673912D01*
X9525396Y-12673912D02*
X9525396Y-12664388D01*
X9525396Y-12664388D02*
X9515873Y-12645341D01*
X9515873Y-12645341D02*
X9496825Y-12635817D01*
X9496825Y-12635817D02*
X9468253Y-12635817D01*
X9468253Y-12635817D02*
X9449206Y-12626293D01*
X9449206Y-12626293D02*
X9439682Y-12607246D01*
X9439682Y-12607246D02*
X9439682Y-12597722D01*
X9439682Y-12597722D02*
X9449206Y-12578674D01*
X9449206Y-12578674D02*
X9468253Y-12569150D01*
X9468253Y-12569150D02*
X9496825Y-12569150D01*
X9496825Y-12569150D02*
X9515873Y-12578674D01*
X9592063Y-12778674D02*
X9601587Y-12769150D01*
X9601587Y-12769150D02*
X9620634Y-12740579D01*
X9620634Y-12740579D02*
X9630158Y-12721531D01*
X9630158Y-12721531D02*
X9639682Y-12692960D01*
X9639682Y-12692960D02*
X9649206Y-12645341D01*
X9649206Y-12645341D02*
X9649206Y-12607246D01*
X9649206Y-12607246D02*
X9639682Y-12559627D01*
X9639682Y-12559627D02*
X9630158Y-12531055D01*
X9630158Y-12531055D02*
X9620634Y-12512008D01*
X9620634Y-12512008D02*
X9601587Y-12483436D01*
X9601587Y-12483436D02*
X9592063Y-12473912D01*
D15*
X4803820Y-12906820D02*
X4803820Y-12843180D01*
X4740180Y-12843180D01*
X4740180Y-12906820D01*
X4803820Y-12906820D01*
D11*
X5115872Y-12766484D02*
X5134920Y-12766484D01*
X5134920Y-12766484D02*
X5153967Y-12776008D01*
X5153967Y-12776008D02*
X5163491Y-12785531D01*
X5163491Y-12785531D02*
X5173015Y-12804579D01*
X5173015Y-12804579D02*
X5182539Y-12842674D01*
X5182539Y-12842674D02*
X5182539Y-12890293D01*
X5182539Y-12890293D02*
X5173015Y-12928388D01*
X5173015Y-12928388D02*
X5163491Y-12947436D01*
X5163491Y-12947436D02*
X5153967Y-12956960D01*
X5153967Y-12956960D02*
X5134920Y-12966484D01*
X5134920Y-12966484D02*
X5115872Y-12966484D01*
X5115872Y-12966484D02*
X5096824Y-12956960D01*
X5096824Y-12956960D02*
X5087301Y-12947436D01*
X5087301Y-12947436D02*
X5077777Y-12928388D01*
X5077777Y-12928388D02*
X5068253Y-12890293D01*
X5068253Y-12890293D02*
X5068253Y-12842674D01*
X5068253Y-12842674D02*
X5077777Y-12804579D01*
X5077777Y-12804579D02*
X5087301Y-12785531D01*
X5087301Y-12785531D02*
X5096824Y-12776008D01*
X5096824Y-12776008D02*
X5115872Y-12766484D01*
X5268253Y-12947436D02*
X5277777Y-12956960D01*
X5277777Y-12956960D02*
X5268253Y-12966484D01*
X5268253Y-12966484D02*
X5258729Y-12956960D01*
X5258729Y-12956960D02*
X5268253Y-12947436D01*
X5268253Y-12947436D02*
X5268253Y-12966484D01*
X5373015Y-12966484D02*
X5411110Y-12966484D01*
X5411110Y-12966484D02*
X5430158Y-12956960D01*
X5430158Y-12956960D02*
X5439682Y-12947436D01*
X5439682Y-12947436D02*
X5458729Y-12918865D01*
X5458729Y-12918865D02*
X5468253Y-12880769D01*
X5468253Y-12880769D02*
X5468253Y-12804579D01*
X5468253Y-12804579D02*
X5458729Y-12785531D01*
X5458729Y-12785531D02*
X5449205Y-12776008D01*
X5449205Y-12776008D02*
X5430158Y-12766484D01*
X5430158Y-12766484D02*
X5392063Y-12766484D01*
X5392063Y-12766484D02*
X5373015Y-12776008D01*
X5373015Y-12776008D02*
X5363491Y-12785531D01*
X5363491Y-12785531D02*
X5353967Y-12804579D01*
X5353967Y-12804579D02*
X5353967Y-12852198D01*
X5353967Y-12852198D02*
X5363491Y-12871246D01*
X5363491Y-12871246D02*
X5373015Y-12880769D01*
X5373015Y-12880769D02*
X5392063Y-12890293D01*
X5392063Y-12890293D02*
X5430158Y-12890293D01*
X5430158Y-12890293D02*
X5449205Y-12880769D01*
X5449205Y-12880769D02*
X5458729Y-12871246D01*
X5458729Y-12871246D02*
X5468253Y-12852198D01*
X5592063Y-12766484D02*
X5611110Y-12766484D01*
X5611110Y-12766484D02*
X5630158Y-12776008D01*
X5630158Y-12776008D02*
X5639682Y-12785531D01*
X5639682Y-12785531D02*
X5649205Y-12804579D01*
X5649205Y-12804579D02*
X5658729Y-12842674D01*
X5658729Y-12842674D02*
X5658729Y-12890293D01*
X5658729Y-12890293D02*
X5649205Y-12928388D01*
X5649205Y-12928388D02*
X5639682Y-12947436D01*
X5639682Y-12947436D02*
X5630158Y-12956960D01*
X5630158Y-12956960D02*
X5611110Y-12966484D01*
X5611110Y-12966484D02*
X5592063Y-12966484D01*
X5592063Y-12966484D02*
X5573015Y-12956960D01*
X5573015Y-12956960D02*
X5563491Y-12947436D01*
X5563491Y-12947436D02*
X5553967Y-12928388D01*
X5553967Y-12928388D02*
X5544444Y-12890293D01*
X5544444Y-12890293D02*
X5544444Y-12842674D01*
X5544444Y-12842674D02*
X5553967Y-12804579D01*
X5553967Y-12804579D02*
X5563491Y-12785531D01*
X5563491Y-12785531D02*
X5573015Y-12776008D01*
X5573015Y-12776008D02*
X5592063Y-12766484D01*
X5782539Y-12766484D02*
X5801586Y-12766484D01*
X5801586Y-12766484D02*
X5820634Y-12776008D01*
X5820634Y-12776008D02*
X5830158Y-12785531D01*
X5830158Y-12785531D02*
X5839682Y-12804579D01*
X5839682Y-12804579D02*
X5849205Y-12842674D01*
X5849205Y-12842674D02*
X5849205Y-12890293D01*
X5849205Y-12890293D02*
X5839682Y-12928388D01*
X5839682Y-12928388D02*
X5830158Y-12947436D01*
X5830158Y-12947436D02*
X5820634Y-12956960D01*
X5820634Y-12956960D02*
X5801586Y-12966484D01*
X5801586Y-12966484D02*
X5782539Y-12966484D01*
X5782539Y-12966484D02*
X5763491Y-12956960D01*
X5763491Y-12956960D02*
X5753967Y-12947436D01*
X5753967Y-12947436D02*
X5744443Y-12928388D01*
X5744443Y-12928388D02*
X5734920Y-12890293D01*
X5734920Y-12890293D02*
X5734920Y-12842674D01*
X5734920Y-12842674D02*
X5744443Y-12804579D01*
X5744443Y-12804579D02*
X5753967Y-12785531D01*
X5753967Y-12785531D02*
X5763491Y-12776008D01*
X5763491Y-12776008D02*
X5782539Y-12766484D01*
X5934920Y-12966484D02*
X5934920Y-12833150D01*
X5934920Y-12852198D02*
X5944443Y-12842674D01*
X5944443Y-12842674D02*
X5963491Y-12833150D01*
X5963491Y-12833150D02*
X5992063Y-12833150D01*
X5992063Y-12833150D02*
X6011110Y-12842674D01*
X6011110Y-12842674D02*
X6020634Y-12861722D01*
X6020634Y-12861722D02*
X6020634Y-12966484D01*
X6020634Y-12861722D02*
X6030158Y-12842674D01*
X6030158Y-12842674D02*
X6049205Y-12833150D01*
X6049205Y-12833150D02*
X6077777Y-12833150D01*
X6077777Y-12833150D02*
X6096824Y-12842674D01*
X6096824Y-12842674D02*
X6106348Y-12861722D01*
X6106348Y-12861722D02*
X6106348Y-12966484D01*
X6201586Y-12966484D02*
X6201586Y-12833150D01*
X6201586Y-12852198D02*
X6211110Y-12842674D01*
X6211110Y-12842674D02*
X6230158Y-12833150D01*
X6230158Y-12833150D02*
X6258729Y-12833150D01*
X6258729Y-12833150D02*
X6277777Y-12842674D01*
X6277777Y-12842674D02*
X6287301Y-12861722D01*
X6287301Y-12861722D02*
X6287301Y-12966484D01*
X6287301Y-12861722D02*
X6296824Y-12842674D01*
X6296824Y-12842674D02*
X6315872Y-12833150D01*
X6315872Y-12833150D02*
X6344443Y-12833150D01*
X6344443Y-12833150D02*
X6363491Y-12842674D01*
X6363491Y-12842674D02*
X6373015Y-12861722D01*
X6373015Y-12861722D02*
X6373015Y-12966484D01*
X6763491Y-12756960D02*
X6592063Y-13014103D01*
X7020634Y-12766484D02*
X7039682Y-12766484D01*
X7039682Y-12766484D02*
X7058729Y-12776008D01*
X7058729Y-12776008D02*
X7068253Y-12785531D01*
X7068253Y-12785531D02*
X7077777Y-12804579D01*
X7077777Y-12804579D02*
X7087301Y-12842674D01*
X7087301Y-12842674D02*
X7087301Y-12890293D01*
X7087301Y-12890293D02*
X7077777Y-12928388D01*
X7077777Y-12928388D02*
X7068253Y-12947436D01*
X7068253Y-12947436D02*
X7058729Y-12956960D01*
X7058729Y-12956960D02*
X7039682Y-12966484D01*
X7039682Y-12966484D02*
X7020634Y-12966484D01*
X7020634Y-12966484D02*
X7001586Y-12956960D01*
X7001586Y-12956960D02*
X6992063Y-12947436D01*
X6992063Y-12947436D02*
X6982539Y-12928388D01*
X6982539Y-12928388D02*
X6973015Y-12890293D01*
X6973015Y-12890293D02*
X6973015Y-12842674D01*
X6973015Y-12842674D02*
X6982539Y-12804579D01*
X6982539Y-12804579D02*
X6992063Y-12785531D01*
X6992063Y-12785531D02*
X7001586Y-12776008D01*
X7001586Y-12776008D02*
X7020634Y-12766484D01*
X7173015Y-12947436D02*
X7182539Y-12956960D01*
X7182539Y-12956960D02*
X7173015Y-12966484D01*
X7173015Y-12966484D02*
X7163491Y-12956960D01*
X7163491Y-12956960D02*
X7173015Y-12947436D01*
X7173015Y-12947436D02*
X7173015Y-12966484D01*
X7306348Y-12766484D02*
X7325396Y-12766484D01*
X7325396Y-12766484D02*
X7344444Y-12776008D01*
X7344444Y-12776008D02*
X7353967Y-12785531D01*
X7353967Y-12785531D02*
X7363491Y-12804579D01*
X7363491Y-12804579D02*
X7373015Y-12842674D01*
X7373015Y-12842674D02*
X7373015Y-12890293D01*
X7373015Y-12890293D02*
X7363491Y-12928388D01*
X7363491Y-12928388D02*
X7353967Y-12947436D01*
X7353967Y-12947436D02*
X7344444Y-12956960D01*
X7344444Y-12956960D02*
X7325396Y-12966484D01*
X7325396Y-12966484D02*
X7306348Y-12966484D01*
X7306348Y-12966484D02*
X7287301Y-12956960D01*
X7287301Y-12956960D02*
X7277777Y-12947436D01*
X7277777Y-12947436D02*
X7268253Y-12928388D01*
X7268253Y-12928388D02*
X7258729Y-12890293D01*
X7258729Y-12890293D02*
X7258729Y-12842674D01*
X7258729Y-12842674D02*
X7268253Y-12804579D01*
X7268253Y-12804579D02*
X7277777Y-12785531D01*
X7277777Y-12785531D02*
X7287301Y-12776008D01*
X7287301Y-12776008D02*
X7306348Y-12766484D01*
X7439682Y-12766484D02*
X7563491Y-12766484D01*
X7563491Y-12766484D02*
X7496825Y-12842674D01*
X7496825Y-12842674D02*
X7525396Y-12842674D01*
X7525396Y-12842674D02*
X7544444Y-12852198D01*
X7544444Y-12852198D02*
X7553967Y-12861722D01*
X7553967Y-12861722D02*
X7563491Y-12880769D01*
X7563491Y-12880769D02*
X7563491Y-12928388D01*
X7563491Y-12928388D02*
X7553967Y-12947436D01*
X7553967Y-12947436D02*
X7544444Y-12956960D01*
X7544444Y-12956960D02*
X7525396Y-12966484D01*
X7525396Y-12966484D02*
X7468253Y-12966484D01*
X7468253Y-12966484D02*
X7449206Y-12956960D01*
X7449206Y-12956960D02*
X7439682Y-12947436D01*
X7744444Y-12766484D02*
X7649206Y-12766484D01*
X7649206Y-12766484D02*
X7639682Y-12861722D01*
X7639682Y-12861722D02*
X7649206Y-12852198D01*
X7649206Y-12852198D02*
X7668253Y-12842674D01*
X7668253Y-12842674D02*
X7715872Y-12842674D01*
X7715872Y-12842674D02*
X7734920Y-12852198D01*
X7734920Y-12852198D02*
X7744444Y-12861722D01*
X7744444Y-12861722D02*
X7753967Y-12880769D01*
X7753967Y-12880769D02*
X7753967Y-12928388D01*
X7753967Y-12928388D02*
X7744444Y-12947436D01*
X7744444Y-12947436D02*
X7734920Y-12956960D01*
X7734920Y-12956960D02*
X7715872Y-12966484D01*
X7715872Y-12966484D02*
X7668253Y-12966484D01*
X7668253Y-12966484D02*
X7649206Y-12956960D01*
X7649206Y-12956960D02*
X7639682Y-12947436D01*
X7925396Y-12833150D02*
X7925396Y-12966484D01*
X7877777Y-12756960D02*
X7830158Y-12899817D01*
X7830158Y-12899817D02*
X7953967Y-12899817D01*
X8020634Y-12766484D02*
X8020634Y-12804579D01*
X8096825Y-12766484D02*
X8096825Y-12804579D01*
X8392063Y-13042674D02*
X8382539Y-13033150D01*
X8382539Y-13033150D02*
X8363491Y-13004579D01*
X8363491Y-13004579D02*
X8353968Y-12985531D01*
X8353968Y-12985531D02*
X8344444Y-12956960D01*
X8344444Y-12956960D02*
X8334920Y-12909341D01*
X8334920Y-12909341D02*
X8334920Y-12871246D01*
X8334920Y-12871246D02*
X8344444Y-12823627D01*
X8344444Y-12823627D02*
X8353968Y-12795055D01*
X8353968Y-12795055D02*
X8363491Y-12776008D01*
X8363491Y-12776008D02*
X8382539Y-12747436D01*
X8382539Y-12747436D02*
X8392063Y-12737912D01*
X8449206Y-12766484D02*
X8582539Y-12766484D01*
X8582539Y-12766484D02*
X8496825Y-12966484D01*
X8811111Y-12966484D02*
X8811111Y-12766484D01*
X8896825Y-12966484D02*
X8896825Y-12861722D01*
X8896825Y-12861722D02*
X8887301Y-12842674D01*
X8887301Y-12842674D02*
X8868253Y-12833150D01*
X8868253Y-12833150D02*
X8839682Y-12833150D01*
X8839682Y-12833150D02*
X8820634Y-12842674D01*
X8820634Y-12842674D02*
X8811111Y-12852198D01*
X9020634Y-12966484D02*
X9001587Y-12956960D01*
X9001587Y-12956960D02*
X8992063Y-12947436D01*
X8992063Y-12947436D02*
X8982539Y-12928388D01*
X8982539Y-12928388D02*
X8982539Y-12871246D01*
X8982539Y-12871246D02*
X8992063Y-12852198D01*
X8992063Y-12852198D02*
X9001587Y-12842674D01*
X9001587Y-12842674D02*
X9020634Y-12833150D01*
X9020634Y-12833150D02*
X9049206Y-12833150D01*
X9049206Y-12833150D02*
X9068253Y-12842674D01*
X9068253Y-12842674D02*
X9077777Y-12852198D01*
X9077777Y-12852198D02*
X9087301Y-12871246D01*
X9087301Y-12871246D02*
X9087301Y-12928388D01*
X9087301Y-12928388D02*
X9077777Y-12947436D01*
X9077777Y-12947436D02*
X9068253Y-12956960D01*
X9068253Y-12956960D02*
X9049206Y-12966484D01*
X9049206Y-12966484D02*
X9020634Y-12966484D01*
X9201587Y-12966484D02*
X9182539Y-12956960D01*
X9182539Y-12956960D02*
X9173015Y-12937912D01*
X9173015Y-12937912D02*
X9173015Y-12766484D01*
X9353968Y-12956960D02*
X9334920Y-12966484D01*
X9334920Y-12966484D02*
X9296825Y-12966484D01*
X9296825Y-12966484D02*
X9277777Y-12956960D01*
X9277777Y-12956960D02*
X9268253Y-12937912D01*
X9268253Y-12937912D02*
X9268253Y-12861722D01*
X9268253Y-12861722D02*
X9277777Y-12842674D01*
X9277777Y-12842674D02*
X9296825Y-12833150D01*
X9296825Y-12833150D02*
X9334920Y-12833150D01*
X9334920Y-12833150D02*
X9353968Y-12842674D01*
X9353968Y-12842674D02*
X9363492Y-12861722D01*
X9363492Y-12861722D02*
X9363492Y-12880769D01*
X9363492Y-12880769D02*
X9268253Y-12899817D01*
X9439682Y-12956960D02*
X9458730Y-12966484D01*
X9458730Y-12966484D02*
X9496825Y-12966484D01*
X9496825Y-12966484D02*
X9515873Y-12956960D01*
X9515873Y-12956960D02*
X9525396Y-12937912D01*
X9525396Y-12937912D02*
X9525396Y-12928388D01*
X9525396Y-12928388D02*
X9515873Y-12909341D01*
X9515873Y-12909341D02*
X9496825Y-12899817D01*
X9496825Y-12899817D02*
X9468253Y-12899817D01*
X9468253Y-12899817D02*
X9449206Y-12890293D01*
X9449206Y-12890293D02*
X9439682Y-12871246D01*
X9439682Y-12871246D02*
X9439682Y-12861722D01*
X9439682Y-12861722D02*
X9449206Y-12842674D01*
X9449206Y-12842674D02*
X9468253Y-12833150D01*
X9468253Y-12833150D02*
X9496825Y-12833150D01*
X9496825Y-12833150D02*
X9515873Y-12842674D01*
X9592063Y-13042674D02*
X9601587Y-13033150D01*
X9601587Y-13033150D02*
X9620634Y-13004579D01*
X9620634Y-13004579D02*
X9630158Y-12985531D01*
X9630158Y-12985531D02*
X9639682Y-12956960D01*
X9639682Y-12956960D02*
X9649206Y-12909341D01*
X9649206Y-12909341D02*
X9649206Y-12871246D01*
X9649206Y-12871246D02*
X9639682Y-12823627D01*
X9639682Y-12823627D02*
X9630158Y-12795055D01*
X9630158Y-12795055D02*
X9620634Y-12776008D01*
X9620634Y-12776008D02*
X9601587Y-12747436D01*
X9601587Y-12747436D02*
X9592063Y-12737912D01*
D10*
X4767000Y-13189000D02*
X4817000Y-13139000D01*
X4767000Y-13089000D01*
X4717000Y-13139000D01*
X4767000Y-13189000D01*
D11*
X5182539Y-13230484D02*
X5068253Y-13230484D01*
X5125396Y-13230484D02*
X5125396Y-13030484D01*
X5125396Y-13030484D02*
X5106348Y-13059055D01*
X5106348Y-13059055D02*
X5087301Y-13078103D01*
X5087301Y-13078103D02*
X5068253Y-13087627D01*
X5268253Y-13211436D02*
X5277777Y-13220960D01*
X5277777Y-13220960D02*
X5268253Y-13230484D01*
X5268253Y-13230484D02*
X5258729Y-13220960D01*
X5258729Y-13220960D02*
X5268253Y-13211436D01*
X5268253Y-13211436D02*
X5268253Y-13230484D01*
X5401586Y-13030484D02*
X5420634Y-13030484D01*
X5420634Y-13030484D02*
X5439682Y-13040008D01*
X5439682Y-13040008D02*
X5449205Y-13049531D01*
X5449205Y-13049531D02*
X5458729Y-13068579D01*
X5458729Y-13068579D02*
X5468253Y-13106674D01*
X5468253Y-13106674D02*
X5468253Y-13154293D01*
X5468253Y-13154293D02*
X5458729Y-13192388D01*
X5458729Y-13192388D02*
X5449205Y-13211436D01*
X5449205Y-13211436D02*
X5439682Y-13220960D01*
X5439682Y-13220960D02*
X5420634Y-13230484D01*
X5420634Y-13230484D02*
X5401586Y-13230484D01*
X5401586Y-13230484D02*
X5382539Y-13220960D01*
X5382539Y-13220960D02*
X5373015Y-13211436D01*
X5373015Y-13211436D02*
X5363491Y-13192388D01*
X5363491Y-13192388D02*
X5353967Y-13154293D01*
X5353967Y-13154293D02*
X5353967Y-13106674D01*
X5353967Y-13106674D02*
X5363491Y-13068579D01*
X5363491Y-13068579D02*
X5373015Y-13049531D01*
X5373015Y-13049531D02*
X5382539Y-13040008D01*
X5382539Y-13040008D02*
X5401586Y-13030484D01*
X5592063Y-13030484D02*
X5611110Y-13030484D01*
X5611110Y-13030484D02*
X5630158Y-13040008D01*
X5630158Y-13040008D02*
X5639682Y-13049531D01*
X5639682Y-13049531D02*
X5649205Y-13068579D01*
X5649205Y-13068579D02*
X5658729Y-13106674D01*
X5658729Y-13106674D02*
X5658729Y-13154293D01*
X5658729Y-13154293D02*
X5649205Y-13192388D01*
X5649205Y-13192388D02*
X5639682Y-13211436D01*
X5639682Y-13211436D02*
X5630158Y-13220960D01*
X5630158Y-13220960D02*
X5611110Y-13230484D01*
X5611110Y-13230484D02*
X5592063Y-13230484D01*
X5592063Y-13230484D02*
X5573015Y-13220960D01*
X5573015Y-13220960D02*
X5563491Y-13211436D01*
X5563491Y-13211436D02*
X5553967Y-13192388D01*
X5553967Y-13192388D02*
X5544444Y-13154293D01*
X5544444Y-13154293D02*
X5544444Y-13106674D01*
X5544444Y-13106674D02*
X5553967Y-13068579D01*
X5553967Y-13068579D02*
X5563491Y-13049531D01*
X5563491Y-13049531D02*
X5573015Y-13040008D01*
X5573015Y-13040008D02*
X5592063Y-13030484D01*
X5782539Y-13030484D02*
X5801586Y-13030484D01*
X5801586Y-13030484D02*
X5820634Y-13040008D01*
X5820634Y-13040008D02*
X5830158Y-13049531D01*
X5830158Y-13049531D02*
X5839682Y-13068579D01*
X5839682Y-13068579D02*
X5849205Y-13106674D01*
X5849205Y-13106674D02*
X5849205Y-13154293D01*
X5849205Y-13154293D02*
X5839682Y-13192388D01*
X5839682Y-13192388D02*
X5830158Y-13211436D01*
X5830158Y-13211436D02*
X5820634Y-13220960D01*
X5820634Y-13220960D02*
X5801586Y-13230484D01*
X5801586Y-13230484D02*
X5782539Y-13230484D01*
X5782539Y-13230484D02*
X5763491Y-13220960D01*
X5763491Y-13220960D02*
X5753967Y-13211436D01*
X5753967Y-13211436D02*
X5744443Y-13192388D01*
X5744443Y-13192388D02*
X5734920Y-13154293D01*
X5734920Y-13154293D02*
X5734920Y-13106674D01*
X5734920Y-13106674D02*
X5744443Y-13068579D01*
X5744443Y-13068579D02*
X5753967Y-13049531D01*
X5753967Y-13049531D02*
X5763491Y-13040008D01*
X5763491Y-13040008D02*
X5782539Y-13030484D01*
X5934920Y-13230484D02*
X5934920Y-13097150D01*
X5934920Y-13116198D02*
X5944443Y-13106674D01*
X5944443Y-13106674D02*
X5963491Y-13097150D01*
X5963491Y-13097150D02*
X5992063Y-13097150D01*
X5992063Y-13097150D02*
X6011110Y-13106674D01*
X6011110Y-13106674D02*
X6020634Y-13125722D01*
X6020634Y-13125722D02*
X6020634Y-13230484D01*
X6020634Y-13125722D02*
X6030158Y-13106674D01*
X6030158Y-13106674D02*
X6049205Y-13097150D01*
X6049205Y-13097150D02*
X6077777Y-13097150D01*
X6077777Y-13097150D02*
X6096824Y-13106674D01*
X6096824Y-13106674D02*
X6106348Y-13125722D01*
X6106348Y-13125722D02*
X6106348Y-13230484D01*
X6201586Y-13230484D02*
X6201586Y-13097150D01*
X6201586Y-13116198D02*
X6211110Y-13106674D01*
X6211110Y-13106674D02*
X6230158Y-13097150D01*
X6230158Y-13097150D02*
X6258729Y-13097150D01*
X6258729Y-13097150D02*
X6277777Y-13106674D01*
X6277777Y-13106674D02*
X6287301Y-13125722D01*
X6287301Y-13125722D02*
X6287301Y-13230484D01*
X6287301Y-13125722D02*
X6296824Y-13106674D01*
X6296824Y-13106674D02*
X6315872Y-13097150D01*
X6315872Y-13097150D02*
X6344443Y-13097150D01*
X6344443Y-13097150D02*
X6363491Y-13106674D01*
X6363491Y-13106674D02*
X6373015Y-13125722D01*
X6373015Y-13125722D02*
X6373015Y-13230484D01*
X6763491Y-13020960D02*
X6592063Y-13278103D01*
X7020634Y-13030484D02*
X7039682Y-13030484D01*
X7039682Y-13030484D02*
X7058729Y-13040008D01*
X7058729Y-13040008D02*
X7068253Y-13049531D01*
X7068253Y-13049531D02*
X7077777Y-13068579D01*
X7077777Y-13068579D02*
X7087301Y-13106674D01*
X7087301Y-13106674D02*
X7087301Y-13154293D01*
X7087301Y-13154293D02*
X7077777Y-13192388D01*
X7077777Y-13192388D02*
X7068253Y-13211436D01*
X7068253Y-13211436D02*
X7058729Y-13220960D01*
X7058729Y-13220960D02*
X7039682Y-13230484D01*
X7039682Y-13230484D02*
X7020634Y-13230484D01*
X7020634Y-13230484D02*
X7001586Y-13220960D01*
X7001586Y-13220960D02*
X6992063Y-13211436D01*
X6992063Y-13211436D02*
X6982539Y-13192388D01*
X6982539Y-13192388D02*
X6973015Y-13154293D01*
X6973015Y-13154293D02*
X6973015Y-13106674D01*
X6973015Y-13106674D02*
X6982539Y-13068579D01*
X6982539Y-13068579D02*
X6992063Y-13049531D01*
X6992063Y-13049531D02*
X7001586Y-13040008D01*
X7001586Y-13040008D02*
X7020634Y-13030484D01*
X7173015Y-13211436D02*
X7182539Y-13220960D01*
X7182539Y-13220960D02*
X7173015Y-13230484D01*
X7173015Y-13230484D02*
X7163491Y-13220960D01*
X7163491Y-13220960D02*
X7173015Y-13211436D01*
X7173015Y-13211436D02*
X7173015Y-13230484D01*
X7306348Y-13030484D02*
X7325396Y-13030484D01*
X7325396Y-13030484D02*
X7344444Y-13040008D01*
X7344444Y-13040008D02*
X7353967Y-13049531D01*
X7353967Y-13049531D02*
X7363491Y-13068579D01*
X7363491Y-13068579D02*
X7373015Y-13106674D01*
X7373015Y-13106674D02*
X7373015Y-13154293D01*
X7373015Y-13154293D02*
X7363491Y-13192388D01*
X7363491Y-13192388D02*
X7353967Y-13211436D01*
X7353967Y-13211436D02*
X7344444Y-13220960D01*
X7344444Y-13220960D02*
X7325396Y-13230484D01*
X7325396Y-13230484D02*
X7306348Y-13230484D01*
X7306348Y-13230484D02*
X7287301Y-13220960D01*
X7287301Y-13220960D02*
X7277777Y-13211436D01*
X7277777Y-13211436D02*
X7268253Y-13192388D01*
X7268253Y-13192388D02*
X7258729Y-13154293D01*
X7258729Y-13154293D02*
X7258729Y-13106674D01*
X7258729Y-13106674D02*
X7268253Y-13068579D01*
X7268253Y-13068579D02*
X7277777Y-13049531D01*
X7277777Y-13049531D02*
X7287301Y-13040008D01*
X7287301Y-13040008D02*
X7306348Y-13030484D01*
X7439682Y-13030484D02*
X7563491Y-13030484D01*
X7563491Y-13030484D02*
X7496825Y-13106674D01*
X7496825Y-13106674D02*
X7525396Y-13106674D01*
X7525396Y-13106674D02*
X7544444Y-13116198D01*
X7544444Y-13116198D02*
X7553967Y-13125722D01*
X7553967Y-13125722D02*
X7563491Y-13144769D01*
X7563491Y-13144769D02*
X7563491Y-13192388D01*
X7563491Y-13192388D02*
X7553967Y-13211436D01*
X7553967Y-13211436D02*
X7544444Y-13220960D01*
X7544444Y-13220960D02*
X7525396Y-13230484D01*
X7525396Y-13230484D02*
X7468253Y-13230484D01*
X7468253Y-13230484D02*
X7449206Y-13220960D01*
X7449206Y-13220960D02*
X7439682Y-13211436D01*
X7658729Y-13230484D02*
X7696825Y-13230484D01*
X7696825Y-13230484D02*
X7715872Y-13220960D01*
X7715872Y-13220960D02*
X7725396Y-13211436D01*
X7725396Y-13211436D02*
X7744444Y-13182865D01*
X7744444Y-13182865D02*
X7753967Y-13144769D01*
X7753967Y-13144769D02*
X7753967Y-13068579D01*
X7753967Y-13068579D02*
X7744444Y-13049531D01*
X7744444Y-13049531D02*
X7734920Y-13040008D01*
X7734920Y-13040008D02*
X7715872Y-13030484D01*
X7715872Y-13030484D02*
X7677777Y-13030484D01*
X7677777Y-13030484D02*
X7658729Y-13040008D01*
X7658729Y-13040008D02*
X7649206Y-13049531D01*
X7649206Y-13049531D02*
X7639682Y-13068579D01*
X7639682Y-13068579D02*
X7639682Y-13116198D01*
X7639682Y-13116198D02*
X7649206Y-13135246D01*
X7649206Y-13135246D02*
X7658729Y-13144769D01*
X7658729Y-13144769D02*
X7677777Y-13154293D01*
X7677777Y-13154293D02*
X7715872Y-13154293D01*
X7715872Y-13154293D02*
X7734920Y-13144769D01*
X7734920Y-13144769D02*
X7744444Y-13135246D01*
X7744444Y-13135246D02*
X7753967Y-13116198D01*
X7925396Y-13097150D02*
X7925396Y-13230484D01*
X7877777Y-13020960D02*
X7830158Y-13163817D01*
X7830158Y-13163817D02*
X7953967Y-13163817D01*
X8020634Y-13030484D02*
X8020634Y-13068579D01*
X8096825Y-13030484D02*
X8096825Y-13068579D01*
X8392063Y-13306674D02*
X8382539Y-13297150D01*
X8382539Y-13297150D02*
X8363491Y-13268579D01*
X8363491Y-13268579D02*
X8353968Y-13249531D01*
X8353968Y-13249531D02*
X8344444Y-13220960D01*
X8344444Y-13220960D02*
X8334920Y-13173341D01*
X8334920Y-13173341D02*
X8334920Y-13135246D01*
X8334920Y-13135246D02*
X8344444Y-13087627D01*
X8344444Y-13087627D02*
X8353968Y-13059055D01*
X8353968Y-13059055D02*
X8363491Y-13040008D01*
X8363491Y-13040008D02*
X8382539Y-13011436D01*
X8382539Y-13011436D02*
X8392063Y-13001912D01*
X8553968Y-13030484D02*
X8515872Y-13030484D01*
X8515872Y-13030484D02*
X8496825Y-13040008D01*
X8496825Y-13040008D02*
X8487301Y-13049531D01*
X8487301Y-13049531D02*
X8468253Y-13078103D01*
X8468253Y-13078103D02*
X8458730Y-13116198D01*
X8458730Y-13116198D02*
X8458730Y-13192388D01*
X8458730Y-13192388D02*
X8468253Y-13211436D01*
X8468253Y-13211436D02*
X8477777Y-13220960D01*
X8477777Y-13220960D02*
X8496825Y-13230484D01*
X8496825Y-13230484D02*
X8534920Y-13230484D01*
X8534920Y-13230484D02*
X8553968Y-13220960D01*
X8553968Y-13220960D02*
X8563491Y-13211436D01*
X8563491Y-13211436D02*
X8573015Y-13192388D01*
X8573015Y-13192388D02*
X8573015Y-13144769D01*
X8573015Y-13144769D02*
X8563491Y-13125722D01*
X8563491Y-13125722D02*
X8553968Y-13116198D01*
X8553968Y-13116198D02*
X8534920Y-13106674D01*
X8534920Y-13106674D02*
X8496825Y-13106674D01*
X8496825Y-13106674D02*
X8477777Y-13116198D01*
X8477777Y-13116198D02*
X8468253Y-13125722D01*
X8468253Y-13125722D02*
X8458730Y-13144769D01*
X8696825Y-13030484D02*
X8715872Y-13030484D01*
X8715872Y-13030484D02*
X8734920Y-13040008D01*
X8734920Y-13040008D02*
X8744444Y-13049531D01*
X8744444Y-13049531D02*
X8753968Y-13068579D01*
X8753968Y-13068579D02*
X8763491Y-13106674D01*
X8763491Y-13106674D02*
X8763491Y-13154293D01*
X8763491Y-13154293D02*
X8753968Y-13192388D01*
X8753968Y-13192388D02*
X8744444Y-13211436D01*
X8744444Y-13211436D02*
X8734920Y-13220960D01*
X8734920Y-13220960D02*
X8715872Y-13230484D01*
X8715872Y-13230484D02*
X8696825Y-13230484D01*
X8696825Y-13230484D02*
X8677777Y-13220960D01*
X8677777Y-13220960D02*
X8668253Y-13211436D01*
X8668253Y-13211436D02*
X8658730Y-13192388D01*
X8658730Y-13192388D02*
X8649206Y-13154293D01*
X8649206Y-13154293D02*
X8649206Y-13106674D01*
X8649206Y-13106674D02*
X8658730Y-13068579D01*
X8658730Y-13068579D02*
X8668253Y-13049531D01*
X8668253Y-13049531D02*
X8677777Y-13040008D01*
X8677777Y-13040008D02*
X8696825Y-13030484D01*
X9001587Y-13230484D02*
X9001587Y-13030484D01*
X9087301Y-13230484D02*
X9087301Y-13125722D01*
X9087301Y-13125722D02*
X9077777Y-13106674D01*
X9077777Y-13106674D02*
X9058730Y-13097150D01*
X9058730Y-13097150D02*
X9030158Y-13097150D01*
X9030158Y-13097150D02*
X9011111Y-13106674D01*
X9011111Y-13106674D02*
X9001587Y-13116198D01*
X9211111Y-13230484D02*
X9192063Y-13220960D01*
X9192063Y-13220960D02*
X9182539Y-13211436D01*
X9182539Y-13211436D02*
X9173015Y-13192388D01*
X9173015Y-13192388D02*
X9173015Y-13135246D01*
X9173015Y-13135246D02*
X9182539Y-13116198D01*
X9182539Y-13116198D02*
X9192063Y-13106674D01*
X9192063Y-13106674D02*
X9211111Y-13097150D01*
X9211111Y-13097150D02*
X9239682Y-13097150D01*
X9239682Y-13097150D02*
X9258730Y-13106674D01*
X9258730Y-13106674D02*
X9268253Y-13116198D01*
X9268253Y-13116198D02*
X9277777Y-13135246D01*
X9277777Y-13135246D02*
X9277777Y-13192388D01*
X9277777Y-13192388D02*
X9268253Y-13211436D01*
X9268253Y-13211436D02*
X9258730Y-13220960D01*
X9258730Y-13220960D02*
X9239682Y-13230484D01*
X9239682Y-13230484D02*
X9211111Y-13230484D01*
X9392063Y-13230484D02*
X9373015Y-13220960D01*
X9373015Y-13220960D02*
X9363492Y-13201912D01*
X9363492Y-13201912D02*
X9363492Y-13030484D01*
X9544444Y-13220960D02*
X9525396Y-13230484D01*
X9525396Y-13230484D02*
X9487301Y-13230484D01*
X9487301Y-13230484D02*
X9468253Y-13220960D01*
X9468253Y-13220960D02*
X9458730Y-13201912D01*
X9458730Y-13201912D02*
X9458730Y-13125722D01*
X9458730Y-13125722D02*
X9468253Y-13106674D01*
X9468253Y-13106674D02*
X9487301Y-13097150D01*
X9487301Y-13097150D02*
X9525396Y-13097150D01*
X9525396Y-13097150D02*
X9544444Y-13106674D01*
X9544444Y-13106674D02*
X9553968Y-13125722D01*
X9553968Y-13125722D02*
X9553968Y-13144769D01*
X9553968Y-13144769D02*
X9458730Y-13163817D01*
X9630158Y-13220960D02*
X9649206Y-13230484D01*
X9649206Y-13230484D02*
X9687301Y-13230484D01*
X9687301Y-13230484D02*
X9706349Y-13220960D01*
X9706349Y-13220960D02*
X9715873Y-13201912D01*
X9715873Y-13201912D02*
X9715873Y-13192388D01*
X9715873Y-13192388D02*
X9706349Y-13173341D01*
X9706349Y-13173341D02*
X9687301Y-13163817D01*
X9687301Y-13163817D02*
X9658730Y-13163817D01*
X9658730Y-13163817D02*
X9639682Y-13154293D01*
X9639682Y-13154293D02*
X9630158Y-13135246D01*
X9630158Y-13135246D02*
X9630158Y-13125722D01*
X9630158Y-13125722D02*
X9639682Y-13106674D01*
X9639682Y-13106674D02*
X9658730Y-13097150D01*
X9658730Y-13097150D02*
X9687301Y-13097150D01*
X9687301Y-13097150D02*
X9706349Y-13106674D01*
X9782539Y-13306674D02*
X9792063Y-13297150D01*
X9792063Y-13297150D02*
X9811111Y-13268579D01*
X9811111Y-13268579D02*
X9820634Y-13249531D01*
X9820634Y-13249531D02*
X9830158Y-13220960D01*
X9830158Y-13220960D02*
X9839682Y-13173341D01*
X9839682Y-13173341D02*
X9839682Y-13135246D01*
X9839682Y-13135246D02*
X9830158Y-13087627D01*
X9830158Y-13087627D02*
X9820634Y-13059055D01*
X9820634Y-13059055D02*
X9811111Y-13040008D01*
X9811111Y-13040008D02*
X9792063Y-13011436D01*
X9792063Y-13011436D02*
X9782539Y-13001912D01*
M02*
