%TF.GenerationSoftware,KiCad,Pcbnew,7.0.7*%
%TF.CreationDate,2024-05-19T18:37:37+02:00*%
%TF.ProjectId,Smart-mobility,536d6172-742d-46d6-9f62-696c6974792e,rev?*%
%TF.SameCoordinates,Original*%
%TF.FileFunction,Soldermask,Top*%
%TF.FilePolarity,Negative*%
%FSLAX46Y46*%
G04 Gerber Fmt 4.6, Leading zero omitted, Abs format (unit mm)*
G04 Created by KiCad (PCBNEW 7.0.7) date 2024-05-19 18:37:37*
%MOMM*%
%LPD*%
G01*
G04 APERTURE LIST*
%ADD10C,3.200000*%
%ADD11R,1.070000X1.800000*%
%ADD12O,1.070000X1.800000*%
%ADD13R,1.500000X2.600000*%
%ADD14R,1.600000X1.600000*%
%ADD15C,1.600000*%
%ADD16R,1.700000X1.700000*%
%ADD17O,1.700000X1.700000*%
%ADD18C,1.620000*%
%ADD19O,1.600000X1.600000*%
%ADD20C,1.100000*%
G04 APERTURE END LIST*
D10*
%TO.C,REF\u002A\u002A*%
X77900000Y-110800000D03*
%TD*%
%TO.C,MH2*%
X51800000Y-34000000D03*
%TD*%
D11*
%TO.C,D26*%
X93045000Y-73175000D03*
D12*
X91775000Y-73175000D03*
X90505000Y-73175000D03*
X89235000Y-73175000D03*
%TD*%
D13*
%TO.C,D2*%
X61120000Y-53170000D03*
X64120000Y-53170000D03*
%TD*%
%TO.C,D11*%
X76520000Y-46245000D03*
X79520000Y-46245000D03*
%TD*%
%TO.C,D15*%
X76345000Y-67320000D03*
X79345000Y-67320000D03*
%TD*%
%TO.C,D20*%
X86370000Y-42745000D03*
X89370000Y-42745000D03*
%TD*%
%TO.C,D21*%
X81470000Y-41245000D03*
X84470000Y-41245000D03*
%TD*%
D10*
%TO.C,MH3*%
X103300000Y-34000000D03*
%TD*%
D13*
%TO.C,D3*%
X66195000Y-58195000D03*
X69195000Y-58195000D03*
%TD*%
%TO.C,D14*%
X76445000Y-59920000D03*
X79445000Y-59920000D03*
%TD*%
%TO.C,D24*%
X95720000Y-48470000D03*
X98720000Y-48470000D03*
%TD*%
D14*
%TO.C,BZ1*%
X55750000Y-76000000D03*
D15*
X63350000Y-76000000D03*
%TD*%
D13*
%TO.C,D8*%
X71270000Y-55670000D03*
X74270000Y-55670000D03*
%TD*%
%TO.C,D10*%
X71245000Y-41195000D03*
X74245000Y-41195000D03*
%TD*%
%TO.C,D4*%
X76370000Y-40470000D03*
X79370000Y-40470000D03*
%TD*%
%TO.C,D17*%
X86645000Y-50720000D03*
X89645000Y-50720000D03*
%TD*%
%TO.C,D9*%
X71245000Y-62445000D03*
X74245000Y-62445000D03*
%TD*%
%TO.C,D19*%
X81595000Y-62495000D03*
X84595000Y-62495000D03*
%TD*%
%TO.C,D25*%
X56695000Y-48345000D03*
X59695000Y-48345000D03*
%TD*%
%TO.C,D23*%
X86720000Y-57995000D03*
X89720000Y-57995000D03*
%TD*%
%TO.C,D16*%
X81670000Y-48495000D03*
X84670000Y-48495000D03*
%TD*%
%TO.C,D5*%
X66270000Y-42770000D03*
X69270000Y-42770000D03*
%TD*%
%TO.C,D7*%
X66295000Y-50720000D03*
X69295000Y-50720000D03*
%TD*%
%TO.C,D1*%
X61445000Y-45170000D03*
X64445000Y-45170000D03*
%TD*%
%TO.C,D12*%
X91220000Y-45270000D03*
X94220000Y-45270000D03*
%TD*%
D16*
%TO.C,J2*%
X82500000Y-81475000D03*
D17*
X79960000Y-81475000D03*
X77420000Y-81475000D03*
X74880000Y-81475000D03*
%TD*%
D13*
%TO.C,D13*%
X76495000Y-53795000D03*
X79495000Y-53795000D03*
%TD*%
%TO.C,D22*%
X91645000Y-53345000D03*
X94645000Y-53345000D03*
%TD*%
%TO.C,D6*%
X71420000Y-48445000D03*
X74420000Y-48445000D03*
%TD*%
%TO.C,D18*%
X81620000Y-55670000D03*
X84620000Y-55670000D03*
%TD*%
D16*
%TO.C,J6*%
X82475000Y-76800000D03*
D17*
X79935000Y-76800000D03*
X77395000Y-76800000D03*
X74855000Y-76800000D03*
%TD*%
D16*
%TO.C,SW1*%
X98975000Y-80350000D03*
D17*
X98975000Y-77810000D03*
X96435000Y-80350000D03*
X96435000Y-77810000D03*
X93895000Y-80350000D03*
X93895000Y-77810000D03*
X91355000Y-80350000D03*
X91355000Y-77810000D03*
%TD*%
D18*
%TO.C,R20*%
X65680000Y-97790000D03*
X60680000Y-95290000D03*
X65680000Y-92790000D03*
%TD*%
D16*
%TO.C,J4*%
X55520000Y-85090000D03*
D17*
X58060000Y-85090000D03*
X60600000Y-85090000D03*
X63140000Y-85090000D03*
X65680000Y-85090000D03*
X68220000Y-85090000D03*
X70760000Y-85090000D03*
X73300000Y-85090000D03*
X75840000Y-85090000D03*
X78380000Y-85090000D03*
X80920000Y-85090000D03*
X83460000Y-85090000D03*
X86000000Y-85090000D03*
X88540000Y-85090000D03*
X91080000Y-85090000D03*
X93620000Y-85090000D03*
X96160000Y-85090000D03*
X98700000Y-85090000D03*
X101240000Y-85090000D03*
X103780000Y-85090000D03*
%TD*%
D16*
%TO.C,J3*%
X98100000Y-71600000D03*
D17*
X98100000Y-74140000D03*
%TD*%
D15*
%TO.C,R21*%
X91080000Y-97815000D03*
D19*
X80920000Y-97815000D03*
%TD*%
D20*
%TO.C,Q1*%
X67555000Y-79575000D03*
X68825000Y-78305000D03*
X68825000Y-80845000D03*
%TD*%
D16*
%TO.C,J5*%
X55520000Y-102895000D03*
D17*
X58060000Y-102895000D03*
X60600000Y-102895000D03*
X63140000Y-102895000D03*
X65680000Y-102895000D03*
X68220000Y-102895000D03*
X70760000Y-102895000D03*
X73300000Y-102895000D03*
X75840000Y-102895000D03*
X78380000Y-102895000D03*
X80920000Y-102895000D03*
X83460000Y-102895000D03*
X86000000Y-102895000D03*
X88540000Y-102895000D03*
X91080000Y-102895000D03*
X93620000Y-102895000D03*
X96160000Y-102895000D03*
X98700000Y-102895000D03*
X101240000Y-102895000D03*
X103780000Y-102895000D03*
%TD*%
M02*
