%TF.GenerationSoftware,KiCad,Pcbnew,7.0.7*%
%TF.CreationDate,2024-05-19T18:37:28+02:00*%
%TF.ProjectId,Smart-mobility,536d6172-742d-46d6-9f62-696c6974792e,rev?*%
%TF.SameCoordinates,Original*%
%TF.FileFunction,Drillmap*%
%TF.FilePolarity,Positive*%
%FSLAX45Y45*%
G04 Gerber Fmt 4.5, Leading zero omitted, Abs format (unit mm)*
G04 Created by KiCad (PCBNEW 7.0.7) date 2024-05-19 18:37:28*
%MOMM*%
%LPD*%
G01*
G04 APERTURE LIST*
%ADD10C,0.100000*%
%ADD11C,0.200000*%
%ADD12C,0.320000*%
G04 APERTURE END LIST*
D10*
X4822000Y-3048000D02*
X10680000Y-3048000D01*
X10680000Y-11438000D01*
X4822000Y-11438000D01*
X4822000Y-3048000D01*
D11*
D12*
X5020000Y-3240000D02*
X5340000Y-3560000D01*
X5340000Y-3240000D02*
X5020000Y-3560000D01*
X7630000Y-10920000D02*
X7950000Y-11240000D01*
X7950000Y-10920000D02*
X7630000Y-11240000D01*
X10170000Y-3240000D02*
X10490000Y-3560000D01*
X10490000Y-3240000D02*
X10170000Y-3560000D01*
D11*
X5077777Y-11754484D02*
X5077777Y-11554484D01*
X5077777Y-11554484D02*
X5125396Y-11554484D01*
X5125396Y-11554484D02*
X5153967Y-11564008D01*
X5153967Y-11564008D02*
X5173015Y-11583055D01*
X5173015Y-11583055D02*
X5182539Y-11602103D01*
X5182539Y-11602103D02*
X5192063Y-11640198D01*
X5192063Y-11640198D02*
X5192063Y-11668769D01*
X5192063Y-11668769D02*
X5182539Y-11706865D01*
X5182539Y-11706865D02*
X5173015Y-11725912D01*
X5173015Y-11725912D02*
X5153967Y-11744960D01*
X5153967Y-11744960D02*
X5125396Y-11754484D01*
X5125396Y-11754484D02*
X5077777Y-11754484D01*
X5277777Y-11754484D02*
X5277777Y-11621150D01*
X5277777Y-11659246D02*
X5287301Y-11640198D01*
X5287301Y-11640198D02*
X5296824Y-11630674D01*
X5296824Y-11630674D02*
X5315872Y-11621150D01*
X5315872Y-11621150D02*
X5334920Y-11621150D01*
X5401586Y-11754484D02*
X5401586Y-11621150D01*
X5401586Y-11554484D02*
X5392063Y-11564008D01*
X5392063Y-11564008D02*
X5401586Y-11573531D01*
X5401586Y-11573531D02*
X5411110Y-11564008D01*
X5411110Y-11564008D02*
X5401586Y-11554484D01*
X5401586Y-11554484D02*
X5401586Y-11573531D01*
X5525396Y-11754484D02*
X5506348Y-11744960D01*
X5506348Y-11744960D02*
X5496824Y-11725912D01*
X5496824Y-11725912D02*
X5496824Y-11554484D01*
X5630158Y-11754484D02*
X5611110Y-11744960D01*
X5611110Y-11744960D02*
X5601586Y-11725912D01*
X5601586Y-11725912D02*
X5601586Y-11554484D01*
X5858729Y-11754484D02*
X5858729Y-11554484D01*
X5858729Y-11554484D02*
X5925396Y-11697341D01*
X5925396Y-11697341D02*
X5992062Y-11554484D01*
X5992062Y-11554484D02*
X5992062Y-11754484D01*
X6173015Y-11754484D02*
X6173015Y-11649722D01*
X6173015Y-11649722D02*
X6163491Y-11630674D01*
X6163491Y-11630674D02*
X6144443Y-11621150D01*
X6144443Y-11621150D02*
X6106348Y-11621150D01*
X6106348Y-11621150D02*
X6087301Y-11630674D01*
X6173015Y-11744960D02*
X6153967Y-11754484D01*
X6153967Y-11754484D02*
X6106348Y-11754484D01*
X6106348Y-11754484D02*
X6087301Y-11744960D01*
X6087301Y-11744960D02*
X6077777Y-11725912D01*
X6077777Y-11725912D02*
X6077777Y-11706865D01*
X6077777Y-11706865D02*
X6087301Y-11687817D01*
X6087301Y-11687817D02*
X6106348Y-11678293D01*
X6106348Y-11678293D02*
X6153967Y-11678293D01*
X6153967Y-11678293D02*
X6173015Y-11668769D01*
X6268253Y-11621150D02*
X6268253Y-11821150D01*
X6268253Y-11630674D02*
X6287301Y-11621150D01*
X6287301Y-11621150D02*
X6325396Y-11621150D01*
X6325396Y-11621150D02*
X6344443Y-11630674D01*
X6344443Y-11630674D02*
X6353967Y-11640198D01*
X6353967Y-11640198D02*
X6363491Y-11659246D01*
X6363491Y-11659246D02*
X6363491Y-11716388D01*
X6363491Y-11716388D02*
X6353967Y-11735436D01*
X6353967Y-11735436D02*
X6344443Y-11744960D01*
X6344443Y-11744960D02*
X6325396Y-11754484D01*
X6325396Y-11754484D02*
X6287301Y-11754484D01*
X6287301Y-11754484D02*
X6268253Y-11744960D01*
X6449205Y-11735436D02*
X6458729Y-11744960D01*
X6458729Y-11744960D02*
X6449205Y-11754484D01*
X6449205Y-11754484D02*
X6439682Y-11744960D01*
X6439682Y-11744960D02*
X6449205Y-11735436D01*
X6449205Y-11735436D02*
X6449205Y-11754484D01*
X6449205Y-11630674D02*
X6458729Y-11640198D01*
X6458729Y-11640198D02*
X6449205Y-11649722D01*
X6449205Y-11649722D02*
X6439682Y-11640198D01*
X6439682Y-11640198D02*
X6449205Y-11630674D01*
X6449205Y-11630674D02*
X6449205Y-11649722D01*
X4617000Y-11983000D02*
X4817000Y-12183000D01*
X4817000Y-11983000D02*
X4617000Y-12183000D01*
X5058729Y-11974484D02*
X5182539Y-11974484D01*
X5182539Y-11974484D02*
X5115872Y-12050674D01*
X5115872Y-12050674D02*
X5144444Y-12050674D01*
X5144444Y-12050674D02*
X5163491Y-12060198D01*
X5163491Y-12060198D02*
X5173015Y-12069722D01*
X5173015Y-12069722D02*
X5182539Y-12088769D01*
X5182539Y-12088769D02*
X5182539Y-12136388D01*
X5182539Y-12136388D02*
X5173015Y-12155436D01*
X5173015Y-12155436D02*
X5163491Y-12164960D01*
X5163491Y-12164960D02*
X5144444Y-12174484D01*
X5144444Y-12174484D02*
X5087301Y-12174484D01*
X5087301Y-12174484D02*
X5068253Y-12164960D01*
X5068253Y-12164960D02*
X5058729Y-12155436D01*
X5268253Y-12155436D02*
X5277777Y-12164960D01*
X5277777Y-12164960D02*
X5268253Y-12174484D01*
X5268253Y-12174484D02*
X5258729Y-12164960D01*
X5258729Y-12164960D02*
X5268253Y-12155436D01*
X5268253Y-12155436D02*
X5268253Y-12174484D01*
X5353967Y-11993531D02*
X5363491Y-11984008D01*
X5363491Y-11984008D02*
X5382539Y-11974484D01*
X5382539Y-11974484D02*
X5430158Y-11974484D01*
X5430158Y-11974484D02*
X5449205Y-11984008D01*
X5449205Y-11984008D02*
X5458729Y-11993531D01*
X5458729Y-11993531D02*
X5468253Y-12012579D01*
X5468253Y-12012579D02*
X5468253Y-12031627D01*
X5468253Y-12031627D02*
X5458729Y-12060198D01*
X5458729Y-12060198D02*
X5344444Y-12174484D01*
X5344444Y-12174484D02*
X5468253Y-12174484D01*
X5592063Y-11974484D02*
X5611110Y-11974484D01*
X5611110Y-11974484D02*
X5630158Y-11984008D01*
X5630158Y-11984008D02*
X5639682Y-11993531D01*
X5639682Y-11993531D02*
X5649205Y-12012579D01*
X5649205Y-12012579D02*
X5658729Y-12050674D01*
X5658729Y-12050674D02*
X5658729Y-12098293D01*
X5658729Y-12098293D02*
X5649205Y-12136388D01*
X5649205Y-12136388D02*
X5639682Y-12155436D01*
X5639682Y-12155436D02*
X5630158Y-12164960D01*
X5630158Y-12164960D02*
X5611110Y-12174484D01*
X5611110Y-12174484D02*
X5592063Y-12174484D01*
X5592063Y-12174484D02*
X5573015Y-12164960D01*
X5573015Y-12164960D02*
X5563491Y-12155436D01*
X5563491Y-12155436D02*
X5553967Y-12136388D01*
X5553967Y-12136388D02*
X5544444Y-12098293D01*
X5544444Y-12098293D02*
X5544444Y-12050674D01*
X5544444Y-12050674D02*
X5553967Y-12012579D01*
X5553967Y-12012579D02*
X5563491Y-11993531D01*
X5563491Y-11993531D02*
X5573015Y-11984008D01*
X5573015Y-11984008D02*
X5592063Y-11974484D01*
X5782539Y-11974484D02*
X5801586Y-11974484D01*
X5801586Y-11974484D02*
X5820634Y-11984008D01*
X5820634Y-11984008D02*
X5830158Y-11993531D01*
X5830158Y-11993531D02*
X5839682Y-12012579D01*
X5839682Y-12012579D02*
X5849205Y-12050674D01*
X5849205Y-12050674D02*
X5849205Y-12098293D01*
X5849205Y-12098293D02*
X5839682Y-12136388D01*
X5839682Y-12136388D02*
X5830158Y-12155436D01*
X5830158Y-12155436D02*
X5820634Y-12164960D01*
X5820634Y-12164960D02*
X5801586Y-12174484D01*
X5801586Y-12174484D02*
X5782539Y-12174484D01*
X5782539Y-12174484D02*
X5763491Y-12164960D01*
X5763491Y-12164960D02*
X5753967Y-12155436D01*
X5753967Y-12155436D02*
X5744443Y-12136388D01*
X5744443Y-12136388D02*
X5734920Y-12098293D01*
X5734920Y-12098293D02*
X5734920Y-12050674D01*
X5734920Y-12050674D02*
X5744443Y-12012579D01*
X5744443Y-12012579D02*
X5753967Y-11993531D01*
X5753967Y-11993531D02*
X5763491Y-11984008D01*
X5763491Y-11984008D02*
X5782539Y-11974484D01*
X5934920Y-12174484D02*
X5934920Y-12041150D01*
X5934920Y-12060198D02*
X5944443Y-12050674D01*
X5944443Y-12050674D02*
X5963491Y-12041150D01*
X5963491Y-12041150D02*
X5992063Y-12041150D01*
X5992063Y-12041150D02*
X6011110Y-12050674D01*
X6011110Y-12050674D02*
X6020634Y-12069722D01*
X6020634Y-12069722D02*
X6020634Y-12174484D01*
X6020634Y-12069722D02*
X6030158Y-12050674D01*
X6030158Y-12050674D02*
X6049205Y-12041150D01*
X6049205Y-12041150D02*
X6077777Y-12041150D01*
X6077777Y-12041150D02*
X6096824Y-12050674D01*
X6096824Y-12050674D02*
X6106348Y-12069722D01*
X6106348Y-12069722D02*
X6106348Y-12174484D01*
X6201586Y-12174484D02*
X6201586Y-12041150D01*
X6201586Y-12060198D02*
X6211110Y-12050674D01*
X6211110Y-12050674D02*
X6230158Y-12041150D01*
X6230158Y-12041150D02*
X6258729Y-12041150D01*
X6258729Y-12041150D02*
X6277777Y-12050674D01*
X6277777Y-12050674D02*
X6287301Y-12069722D01*
X6287301Y-12069722D02*
X6287301Y-12174484D01*
X6287301Y-12069722D02*
X6296824Y-12050674D01*
X6296824Y-12050674D02*
X6315872Y-12041150D01*
X6315872Y-12041150D02*
X6344443Y-12041150D01*
X6344443Y-12041150D02*
X6363491Y-12050674D01*
X6363491Y-12050674D02*
X6373015Y-12069722D01*
X6373015Y-12069722D02*
X6373015Y-12174484D01*
X6763491Y-11964960D02*
X6592063Y-12222103D01*
X7020634Y-11974484D02*
X7039682Y-11974484D01*
X7039682Y-11974484D02*
X7058729Y-11984008D01*
X7058729Y-11984008D02*
X7068253Y-11993531D01*
X7068253Y-11993531D02*
X7077777Y-12012579D01*
X7077777Y-12012579D02*
X7087301Y-12050674D01*
X7087301Y-12050674D02*
X7087301Y-12098293D01*
X7087301Y-12098293D02*
X7077777Y-12136388D01*
X7077777Y-12136388D02*
X7068253Y-12155436D01*
X7068253Y-12155436D02*
X7058729Y-12164960D01*
X7058729Y-12164960D02*
X7039682Y-12174484D01*
X7039682Y-12174484D02*
X7020634Y-12174484D01*
X7020634Y-12174484D02*
X7001586Y-12164960D01*
X7001586Y-12164960D02*
X6992063Y-12155436D01*
X6992063Y-12155436D02*
X6982539Y-12136388D01*
X6982539Y-12136388D02*
X6973015Y-12098293D01*
X6973015Y-12098293D02*
X6973015Y-12050674D01*
X6973015Y-12050674D02*
X6982539Y-12012579D01*
X6982539Y-12012579D02*
X6992063Y-11993531D01*
X6992063Y-11993531D02*
X7001586Y-11984008D01*
X7001586Y-11984008D02*
X7020634Y-11974484D01*
X7173015Y-12155436D02*
X7182539Y-12164960D01*
X7182539Y-12164960D02*
X7173015Y-12174484D01*
X7173015Y-12174484D02*
X7163491Y-12164960D01*
X7163491Y-12164960D02*
X7173015Y-12155436D01*
X7173015Y-12155436D02*
X7173015Y-12174484D01*
X7373015Y-12174484D02*
X7258729Y-12174484D01*
X7315872Y-12174484D02*
X7315872Y-11974484D01*
X7315872Y-11974484D02*
X7296825Y-12003055D01*
X7296825Y-12003055D02*
X7277777Y-12022103D01*
X7277777Y-12022103D02*
X7258729Y-12031627D01*
X7449206Y-11993531D02*
X7458729Y-11984008D01*
X7458729Y-11984008D02*
X7477777Y-11974484D01*
X7477777Y-11974484D02*
X7525396Y-11974484D01*
X7525396Y-11974484D02*
X7544444Y-11984008D01*
X7544444Y-11984008D02*
X7553967Y-11993531D01*
X7553967Y-11993531D02*
X7563491Y-12012579D01*
X7563491Y-12012579D02*
X7563491Y-12031627D01*
X7563491Y-12031627D02*
X7553967Y-12060198D01*
X7553967Y-12060198D02*
X7439682Y-12174484D01*
X7439682Y-12174484D02*
X7563491Y-12174484D01*
X7734920Y-11974484D02*
X7696825Y-11974484D01*
X7696825Y-11974484D02*
X7677777Y-11984008D01*
X7677777Y-11984008D02*
X7668253Y-11993531D01*
X7668253Y-11993531D02*
X7649206Y-12022103D01*
X7649206Y-12022103D02*
X7639682Y-12060198D01*
X7639682Y-12060198D02*
X7639682Y-12136388D01*
X7639682Y-12136388D02*
X7649206Y-12155436D01*
X7649206Y-12155436D02*
X7658729Y-12164960D01*
X7658729Y-12164960D02*
X7677777Y-12174484D01*
X7677777Y-12174484D02*
X7715872Y-12174484D01*
X7715872Y-12174484D02*
X7734920Y-12164960D01*
X7734920Y-12164960D02*
X7744444Y-12155436D01*
X7744444Y-12155436D02*
X7753967Y-12136388D01*
X7753967Y-12136388D02*
X7753967Y-12088769D01*
X7753967Y-12088769D02*
X7744444Y-12069722D01*
X7744444Y-12069722D02*
X7734920Y-12060198D01*
X7734920Y-12060198D02*
X7715872Y-12050674D01*
X7715872Y-12050674D02*
X7677777Y-12050674D01*
X7677777Y-12050674D02*
X7658729Y-12060198D01*
X7658729Y-12060198D02*
X7649206Y-12069722D01*
X7649206Y-12069722D02*
X7639682Y-12088769D01*
X7877777Y-11974484D02*
X7896825Y-11974484D01*
X7896825Y-11974484D02*
X7915872Y-11984008D01*
X7915872Y-11984008D02*
X7925396Y-11993531D01*
X7925396Y-11993531D02*
X7934920Y-12012579D01*
X7934920Y-12012579D02*
X7944444Y-12050674D01*
X7944444Y-12050674D02*
X7944444Y-12098293D01*
X7944444Y-12098293D02*
X7934920Y-12136388D01*
X7934920Y-12136388D02*
X7925396Y-12155436D01*
X7925396Y-12155436D02*
X7915872Y-12164960D01*
X7915872Y-12164960D02*
X7896825Y-12174484D01*
X7896825Y-12174484D02*
X7877777Y-12174484D01*
X7877777Y-12174484D02*
X7858729Y-12164960D01*
X7858729Y-12164960D02*
X7849206Y-12155436D01*
X7849206Y-12155436D02*
X7839682Y-12136388D01*
X7839682Y-12136388D02*
X7830158Y-12098293D01*
X7830158Y-12098293D02*
X7830158Y-12050674D01*
X7830158Y-12050674D02*
X7839682Y-12012579D01*
X7839682Y-12012579D02*
X7849206Y-11993531D01*
X7849206Y-11993531D02*
X7858729Y-11984008D01*
X7858729Y-11984008D02*
X7877777Y-11974484D01*
X8020634Y-11974484D02*
X8020634Y-12012579D01*
X8096825Y-11974484D02*
X8096825Y-12012579D01*
X8392063Y-12250674D02*
X8382539Y-12241150D01*
X8382539Y-12241150D02*
X8363491Y-12212579D01*
X8363491Y-12212579D02*
X8353968Y-12193531D01*
X8353968Y-12193531D02*
X8344444Y-12164960D01*
X8344444Y-12164960D02*
X8334920Y-12117341D01*
X8334920Y-12117341D02*
X8334920Y-12079246D01*
X8334920Y-12079246D02*
X8344444Y-12031627D01*
X8344444Y-12031627D02*
X8353968Y-12003055D01*
X8353968Y-12003055D02*
X8363491Y-11984008D01*
X8363491Y-11984008D02*
X8382539Y-11955436D01*
X8382539Y-11955436D02*
X8392063Y-11945912D01*
X8449206Y-11974484D02*
X8573015Y-11974484D01*
X8573015Y-11974484D02*
X8506349Y-12050674D01*
X8506349Y-12050674D02*
X8534920Y-12050674D01*
X8534920Y-12050674D02*
X8553968Y-12060198D01*
X8553968Y-12060198D02*
X8563491Y-12069722D01*
X8563491Y-12069722D02*
X8573015Y-12088769D01*
X8573015Y-12088769D02*
X8573015Y-12136388D01*
X8573015Y-12136388D02*
X8563491Y-12155436D01*
X8563491Y-12155436D02*
X8553968Y-12164960D01*
X8553968Y-12164960D02*
X8534920Y-12174484D01*
X8534920Y-12174484D02*
X8477777Y-12174484D01*
X8477777Y-12174484D02*
X8458730Y-12164960D01*
X8458730Y-12164960D02*
X8449206Y-12155436D01*
X8811111Y-12174484D02*
X8811111Y-11974484D01*
X8896825Y-12174484D02*
X8896825Y-12069722D01*
X8896825Y-12069722D02*
X8887301Y-12050674D01*
X8887301Y-12050674D02*
X8868253Y-12041150D01*
X8868253Y-12041150D02*
X8839682Y-12041150D01*
X8839682Y-12041150D02*
X8820634Y-12050674D01*
X8820634Y-12050674D02*
X8811111Y-12060198D01*
X9020634Y-12174484D02*
X9001587Y-12164960D01*
X9001587Y-12164960D02*
X8992063Y-12155436D01*
X8992063Y-12155436D02*
X8982539Y-12136388D01*
X8982539Y-12136388D02*
X8982539Y-12079246D01*
X8982539Y-12079246D02*
X8992063Y-12060198D01*
X8992063Y-12060198D02*
X9001587Y-12050674D01*
X9001587Y-12050674D02*
X9020634Y-12041150D01*
X9020634Y-12041150D02*
X9049206Y-12041150D01*
X9049206Y-12041150D02*
X9068253Y-12050674D01*
X9068253Y-12050674D02*
X9077777Y-12060198D01*
X9077777Y-12060198D02*
X9087301Y-12079246D01*
X9087301Y-12079246D02*
X9087301Y-12136388D01*
X9087301Y-12136388D02*
X9077777Y-12155436D01*
X9077777Y-12155436D02*
X9068253Y-12164960D01*
X9068253Y-12164960D02*
X9049206Y-12174484D01*
X9049206Y-12174484D02*
X9020634Y-12174484D01*
X9201587Y-12174484D02*
X9182539Y-12164960D01*
X9182539Y-12164960D02*
X9173015Y-12145912D01*
X9173015Y-12145912D02*
X9173015Y-11974484D01*
X9353968Y-12164960D02*
X9334920Y-12174484D01*
X9334920Y-12174484D02*
X9296825Y-12174484D01*
X9296825Y-12174484D02*
X9277777Y-12164960D01*
X9277777Y-12164960D02*
X9268253Y-12145912D01*
X9268253Y-12145912D02*
X9268253Y-12069722D01*
X9268253Y-12069722D02*
X9277777Y-12050674D01*
X9277777Y-12050674D02*
X9296825Y-12041150D01*
X9296825Y-12041150D02*
X9334920Y-12041150D01*
X9334920Y-12041150D02*
X9353968Y-12050674D01*
X9353968Y-12050674D02*
X9363492Y-12069722D01*
X9363492Y-12069722D02*
X9363492Y-12088769D01*
X9363492Y-12088769D02*
X9268253Y-12107817D01*
X9439682Y-12164960D02*
X9458730Y-12174484D01*
X9458730Y-12174484D02*
X9496825Y-12174484D01*
X9496825Y-12174484D02*
X9515873Y-12164960D01*
X9515873Y-12164960D02*
X9525396Y-12145912D01*
X9525396Y-12145912D02*
X9525396Y-12136388D01*
X9525396Y-12136388D02*
X9515873Y-12117341D01*
X9515873Y-12117341D02*
X9496825Y-12107817D01*
X9496825Y-12107817D02*
X9468253Y-12107817D01*
X9468253Y-12107817D02*
X9449206Y-12098293D01*
X9449206Y-12098293D02*
X9439682Y-12079246D01*
X9439682Y-12079246D02*
X9439682Y-12069722D01*
X9439682Y-12069722D02*
X9449206Y-12050674D01*
X9449206Y-12050674D02*
X9468253Y-12041150D01*
X9468253Y-12041150D02*
X9496825Y-12041150D01*
X9496825Y-12041150D02*
X9515873Y-12050674D01*
X9592063Y-12250674D02*
X9601587Y-12241150D01*
X9601587Y-12241150D02*
X9620634Y-12212579D01*
X9620634Y-12212579D02*
X9630158Y-12193531D01*
X9630158Y-12193531D02*
X9639682Y-12164960D01*
X9639682Y-12164960D02*
X9649206Y-12117341D01*
X9649206Y-12117341D02*
X9649206Y-12079246D01*
X9649206Y-12079246D02*
X9639682Y-12031627D01*
X9639682Y-12031627D02*
X9630158Y-12003055D01*
X9630158Y-12003055D02*
X9620634Y-11984008D01*
X9620634Y-11984008D02*
X9601587Y-11955436D01*
X9601587Y-11955436D02*
X9592063Y-11945912D01*
X9953968Y-12250674D02*
X9944444Y-12241150D01*
X9944444Y-12241150D02*
X9925396Y-12212579D01*
X9925396Y-12212579D02*
X9915873Y-12193531D01*
X9915873Y-12193531D02*
X9906349Y-12164960D01*
X9906349Y-12164960D02*
X9896825Y-12117341D01*
X9896825Y-12117341D02*
X9896825Y-12079246D01*
X9896825Y-12079246D02*
X9906349Y-12031627D01*
X9906349Y-12031627D02*
X9915873Y-12003055D01*
X9915873Y-12003055D02*
X9925396Y-11984008D01*
X9925396Y-11984008D02*
X9944444Y-11955436D01*
X9944444Y-11955436D02*
X9953968Y-11945912D01*
X10030158Y-12041150D02*
X10030158Y-12174484D01*
X10030158Y-12060198D02*
X10039682Y-12050674D01*
X10039682Y-12050674D02*
X10058730Y-12041150D01*
X10058730Y-12041150D02*
X10087301Y-12041150D01*
X10087301Y-12041150D02*
X10106349Y-12050674D01*
X10106349Y-12050674D02*
X10115873Y-12069722D01*
X10115873Y-12069722D02*
X10115873Y-12174484D01*
X10239682Y-12174484D02*
X10220634Y-12164960D01*
X10220634Y-12164960D02*
X10211111Y-12155436D01*
X10211111Y-12155436D02*
X10201587Y-12136388D01*
X10201587Y-12136388D02*
X10201587Y-12079246D01*
X10201587Y-12079246D02*
X10211111Y-12060198D01*
X10211111Y-12060198D02*
X10220634Y-12050674D01*
X10220634Y-12050674D02*
X10239682Y-12041150D01*
X10239682Y-12041150D02*
X10268254Y-12041150D01*
X10268254Y-12041150D02*
X10287301Y-12050674D01*
X10287301Y-12050674D02*
X10296825Y-12060198D01*
X10296825Y-12060198D02*
X10306349Y-12079246D01*
X10306349Y-12079246D02*
X10306349Y-12136388D01*
X10306349Y-12136388D02*
X10296825Y-12155436D01*
X10296825Y-12155436D02*
X10287301Y-12164960D01*
X10287301Y-12164960D02*
X10268254Y-12174484D01*
X10268254Y-12174484D02*
X10239682Y-12174484D01*
X10363492Y-12041150D02*
X10439682Y-12041150D01*
X10392063Y-11974484D02*
X10392063Y-12145912D01*
X10392063Y-12145912D02*
X10401587Y-12164960D01*
X10401587Y-12164960D02*
X10420634Y-12174484D01*
X10420634Y-12174484D02*
X10439682Y-12174484D01*
X10658730Y-12041150D02*
X10658730Y-12241150D01*
X10658730Y-12050674D02*
X10677777Y-12041150D01*
X10677777Y-12041150D02*
X10715873Y-12041150D01*
X10715873Y-12041150D02*
X10734920Y-12050674D01*
X10734920Y-12050674D02*
X10744444Y-12060198D01*
X10744444Y-12060198D02*
X10753968Y-12079246D01*
X10753968Y-12079246D02*
X10753968Y-12136388D01*
X10753968Y-12136388D02*
X10744444Y-12155436D01*
X10744444Y-12155436D02*
X10734920Y-12164960D01*
X10734920Y-12164960D02*
X10715873Y-12174484D01*
X10715873Y-12174484D02*
X10677777Y-12174484D01*
X10677777Y-12174484D02*
X10658730Y-12164960D01*
X10868254Y-12174484D02*
X10849206Y-12164960D01*
X10849206Y-12164960D02*
X10839682Y-12145912D01*
X10839682Y-12145912D02*
X10839682Y-11974484D01*
X11030158Y-12174484D02*
X11030158Y-12069722D01*
X11030158Y-12069722D02*
X11020635Y-12050674D01*
X11020635Y-12050674D02*
X11001587Y-12041150D01*
X11001587Y-12041150D02*
X10963492Y-12041150D01*
X10963492Y-12041150D02*
X10944444Y-12050674D01*
X11030158Y-12164960D02*
X11011111Y-12174484D01*
X11011111Y-12174484D02*
X10963492Y-12174484D01*
X10963492Y-12174484D02*
X10944444Y-12164960D01*
X10944444Y-12164960D02*
X10934920Y-12145912D01*
X10934920Y-12145912D02*
X10934920Y-12126865D01*
X10934920Y-12126865D02*
X10944444Y-12107817D01*
X10944444Y-12107817D02*
X10963492Y-12098293D01*
X10963492Y-12098293D02*
X11011111Y-12098293D01*
X11011111Y-12098293D02*
X11030158Y-12088769D01*
X11096825Y-12041150D02*
X11173015Y-12041150D01*
X11125396Y-11974484D02*
X11125396Y-12145912D01*
X11125396Y-12145912D02*
X11134920Y-12164960D01*
X11134920Y-12164960D02*
X11153968Y-12174484D01*
X11153968Y-12174484D02*
X11173015Y-12174484D01*
X11315873Y-12164960D02*
X11296825Y-12174484D01*
X11296825Y-12174484D02*
X11258730Y-12174484D01*
X11258730Y-12174484D02*
X11239682Y-12164960D01*
X11239682Y-12164960D02*
X11230158Y-12145912D01*
X11230158Y-12145912D02*
X11230158Y-12069722D01*
X11230158Y-12069722D02*
X11239682Y-12050674D01*
X11239682Y-12050674D02*
X11258730Y-12041150D01*
X11258730Y-12041150D02*
X11296825Y-12041150D01*
X11296825Y-12041150D02*
X11315873Y-12050674D01*
X11315873Y-12050674D02*
X11325396Y-12069722D01*
X11325396Y-12069722D02*
X11325396Y-12088769D01*
X11325396Y-12088769D02*
X11230158Y-12107817D01*
X11496825Y-12174484D02*
X11496825Y-11974484D01*
X11496825Y-12164960D02*
X11477777Y-12174484D01*
X11477777Y-12174484D02*
X11439682Y-12174484D01*
X11439682Y-12174484D02*
X11420634Y-12164960D01*
X11420634Y-12164960D02*
X11411111Y-12155436D01*
X11411111Y-12155436D02*
X11401587Y-12136388D01*
X11401587Y-12136388D02*
X11401587Y-12079246D01*
X11401587Y-12079246D02*
X11411111Y-12060198D01*
X11411111Y-12060198D02*
X11420634Y-12050674D01*
X11420634Y-12050674D02*
X11439682Y-12041150D01*
X11439682Y-12041150D02*
X11477777Y-12041150D01*
X11477777Y-12041150D02*
X11496825Y-12050674D01*
X11573015Y-12250674D02*
X11582539Y-12241150D01*
X11582539Y-12241150D02*
X11601587Y-12212579D01*
X11601587Y-12212579D02*
X11611111Y-12193531D01*
X11611111Y-12193531D02*
X11620634Y-12164960D01*
X11620634Y-12164960D02*
X11630158Y-12117341D01*
X11630158Y-12117341D02*
X11630158Y-12079246D01*
X11630158Y-12079246D02*
X11620634Y-12031627D01*
X11620634Y-12031627D02*
X11611111Y-12003055D01*
X11611111Y-12003055D02*
X11601587Y-11984008D01*
X11601587Y-11984008D02*
X11582539Y-11955436D01*
X11582539Y-11955436D02*
X11573015Y-11945912D01*
M02*
