M48
; DRILL file {KiCad 7.0.7} date Sun May 19 18:37:24 2024
; FORMAT={-:-/ absolute / inch / decimal}
; #@! TF.CreationDate,2024-05-19T18:37:24+02:00
; #@! TF.GenerationSoftware,Kicad,Pcbnew,7.0.7
; #@! TF.FileFunction,Plated,1,2,PTH
FMAT,2
INCH
; #@! TA.AperFunction,Plated,PTH,ViaDrill
T1C0.0157
; #@! TA.AperFunction,Plated,PTH,ComponentDrill
T2C0.0268
; #@! TA.AperFunction,Plated,PTH,ComponentDrill
T3C0.0315
; #@! TA.AperFunction,Plated,PTH,ComponentDrill
T4C0.0354
; #@! TA.AperFunction,Plated,PTH,ComponentDrill
T5C0.0394
%
G90
G05
T1
X2.4143Y-1.9242
X2.4781Y-1.8371
X2.482Y-1.7284
X2.4876Y-2.6693
X2.5024Y-2.4793
X2.6066Y-2.943
X2.7155Y-2.0717
X2.8449Y-2.2773
X2.8542Y-1.8243
X2.8615Y-1.6217
X3.0035Y-2.4952
X3.0197Y-2.2817
X3.0729Y-2.1342
X3.109Y-2.277
X3.1269Y-1.918
X3.1405Y-1.9792
X3.141Y-2.0312
X3.1802Y-1.7089
X3.188Y-1.7721
X3.1982Y-2.0378
X3.2353Y-1.7667
X3.2446Y-2.7421
X3.2498Y-2.3836
X3.2631Y-2.6043
X3.3078Y-2.6884
X3.3245Y-3.4816
X3.328Y-2.3785
X3.3324Y-2.0041
X3.3464Y-2.0599
X3.3825Y-1.766
X3.3919Y-2.9268
X3.4667Y-2.9702
X3.5176Y-2.3672
X3.5516Y-3.4218
X3.8095Y-2.3742
X3.8326Y-2.9785
T2
X2.6596Y-3.1329
X2.7096Y-3.0829
X2.7096Y-3.1829
T3
X3.1858Y-3.851
X3.5858Y-3.851
T4
X2.389Y-3.7516
X2.5858Y-3.6531
X2.5858Y-3.85
X3.5132Y-2.8809
X3.5632Y-2.8809
X3.6132Y-2.8809
X3.6632Y-2.8809
T5
X2.1858Y-3.35
X2.1858Y-4.051
X2.1949Y-2.9921
X2.2858Y-3.35
X2.2858Y-4.051
X2.3858Y-3.35
X2.3858Y-4.051
X2.4858Y-3.35
X2.4858Y-4.051
X2.4941Y-2.9921
X2.5858Y-3.35
X2.5858Y-4.051
X2.6858Y-3.35
X2.6858Y-4.051
X2.7858Y-3.35
X2.7858Y-4.051
X2.8858Y-3.35
X2.8858Y-4.051
X2.947Y-3.0236
X2.948Y-3.2077
X2.9858Y-3.35
X2.9858Y-4.051
X3.047Y-3.0236
X3.048Y-3.2077
X3.0858Y-3.35
X3.0858Y-4.051
X3.147Y-3.0236
X3.148Y-3.2077
X3.1858Y-3.35
X3.1858Y-4.051
X3.247Y-3.0236
X3.248Y-3.2077
X3.2858Y-3.35
X3.2858Y-4.051
X3.3858Y-3.35
X3.3858Y-4.051
X3.4858Y-3.35
X3.4858Y-4.051
X3.5858Y-3.35
X3.5858Y-4.051
X3.5967Y-3.0634
X3.5967Y-3.1634
X3.6858Y-3.35
X3.6858Y-4.051
X3.6967Y-3.0634
X3.6967Y-3.1634
X3.7858Y-3.35
X3.7858Y-4.051
X3.7967Y-3.0634
X3.7967Y-3.1634
X3.8622Y-2.8189
X3.8622Y-2.9189
X3.8858Y-3.35
X3.8858Y-4.051
X3.8967Y-3.0634
X3.8967Y-3.1634
X3.9858Y-3.35
X3.9858Y-4.051
X4.0858Y-3.35
X4.0858Y-4.051
T0
M30
