%TF.GenerationSoftware,KiCad,Pcbnew,7.0.7*%
%TF.CreationDate,2024-05-19T18:37:36+02:00*%
%TF.ProjectId,Smart-mobility,536d6172-742d-46d6-9f62-696c6974792e,rev?*%
%TF.SameCoordinates,Original*%
%TF.FileFunction,Copper,L1,Top*%
%TF.FilePolarity,Positive*%
%FSLAX46Y46*%
G04 Gerber Fmt 4.6, Leading zero omitted, Abs format (unit mm)*
G04 Created by KiCad (PCBNEW 7.0.7) date 2024-05-19 18:37:36*
%MOMM*%
%LPD*%
G01*
G04 APERTURE LIST*
%TA.AperFunction,ComponentPad*%
%ADD10R,1.070000X1.800000*%
%TD*%
%TA.AperFunction,ComponentPad*%
%ADD11O,1.070000X1.800000*%
%TD*%
%TA.AperFunction,SMDPad,CuDef*%
%ADD12R,1.500000X2.600000*%
%TD*%
%TA.AperFunction,ComponentPad*%
%ADD13R,1.600000X1.600000*%
%TD*%
%TA.AperFunction,ComponentPad*%
%ADD14C,1.600000*%
%TD*%
%TA.AperFunction,ComponentPad*%
%ADD15R,1.700000X1.700000*%
%TD*%
%TA.AperFunction,ComponentPad*%
%ADD16O,1.700000X1.700000*%
%TD*%
%TA.AperFunction,ComponentPad*%
%ADD17C,1.620000*%
%TD*%
%TA.AperFunction,ComponentPad*%
%ADD18O,1.600000X1.600000*%
%TD*%
%TA.AperFunction,ComponentPad*%
%ADD19C,1.100000*%
%TD*%
%TA.AperFunction,ViaPad*%
%ADD20C,0.800000*%
%TD*%
%TA.AperFunction,Conductor*%
%ADD21C,0.250000*%
%TD*%
G04 APERTURE END LIST*
D10*
%TO.P,D26,1,DO*%
%TO.N,Net-(D26-DO)*%
X93045000Y-73175000D03*
D11*
%TO.P,D26,2,GND*%
%TO.N,Net-(D26-GND)*%
X91775000Y-73175000D03*
%TO.P,D26,3,VDD*%
%TO.N,Net-(D26-VDD)*%
X90505000Y-73175000D03*
%TO.P,D26,4,DI*%
%TO.N,Net-(D26-DI)*%
X89235000Y-73175000D03*
%TD*%
D12*
%TO.P,D2,1,K*%
%TO.N,Net-(D12-K)*%
X61120000Y-53170000D03*
%TO.P,D2,2,A*%
%TO.N,Net-(D1-A)*%
X64120000Y-53170000D03*
%TD*%
%TO.P,D11,1,K*%
%TO.N,Net-(D1-K)*%
X76520000Y-46245000D03*
%TO.P,D11,2,A*%
%TO.N,Net-(D11-A)*%
X79520000Y-46245000D03*
%TD*%
%TO.P,D15,1,K*%
%TO.N,Net-(D10-K)*%
X76345000Y-67320000D03*
%TO.P,D15,2,A*%
%TO.N,Net-(D11-A)*%
X79345000Y-67320000D03*
%TD*%
%TO.P,D20,1,K*%
%TO.N,Net-(D10-K)*%
X86370000Y-42745000D03*
%TO.P,D20,2,A*%
%TO.N,Net-(D16-A)*%
X89370000Y-42745000D03*
%TD*%
%TO.P,D21,1,K*%
%TO.N,Net-(D1-K)*%
X81470000Y-41245000D03*
%TO.P,D21,2,A*%
%TO.N,Net-(D21-A)*%
X84470000Y-41245000D03*
%TD*%
%TO.P,D3,1,K*%
%TO.N,Net-(D13-K)*%
X66195000Y-58195000D03*
%TO.P,D3,2,A*%
%TO.N,Net-(D1-A)*%
X69195000Y-58195000D03*
%TD*%
%TO.P,D14,1,K*%
%TO.N,Net-(D14-K)*%
X76445000Y-59920000D03*
%TO.P,D14,2,A*%
%TO.N,Net-(D11-A)*%
X79445000Y-59920000D03*
%TD*%
%TO.P,D24,1,K*%
%TO.N,Net-(D14-K)*%
X95720000Y-48470000D03*
%TO.P,D24,2,A*%
%TO.N,Net-(D21-A)*%
X98720000Y-48470000D03*
%TD*%
D13*
%TO.P,BZ1,1,-*%
%TO.N,Net-(BZ1--)*%
X55750000Y-76000000D03*
D14*
%TO.P,BZ1,2,+*%
%TO.N,Net-(BZ1-+)*%
X63350000Y-76000000D03*
%TD*%
D12*
%TO.P,D8,1,K*%
%TO.N,Net-(D13-K)*%
X71270000Y-55670000D03*
%TO.P,D8,2,A*%
%TO.N,Net-(D10-A)*%
X74270000Y-55670000D03*
%TD*%
%TO.P,D10,1,K*%
%TO.N,Net-(D10-K)*%
X71245000Y-41195000D03*
%TO.P,D10,2,A*%
%TO.N,Net-(D10-A)*%
X74245000Y-41195000D03*
%TD*%
%TO.P,D4,1,K*%
%TO.N,Net-(D14-K)*%
X76370000Y-40470000D03*
%TO.P,D4,2,A*%
%TO.N,Net-(D1-A)*%
X79370000Y-40470000D03*
%TD*%
%TO.P,D17,1,K*%
%TO.N,Net-(D12-K)*%
X86645000Y-50720000D03*
%TO.P,D17,2,A*%
%TO.N,Net-(D16-A)*%
X89645000Y-50720000D03*
%TD*%
%TO.P,D9,1,K*%
%TO.N,Net-(D14-K)*%
X71245000Y-62445000D03*
%TO.P,D9,2,A*%
%TO.N,Net-(D10-A)*%
X74245000Y-62445000D03*
%TD*%
%TO.P,D19,1,K*%
%TO.N,Net-(D14-K)*%
X81595000Y-62495000D03*
%TO.P,D19,2,A*%
%TO.N,Net-(D16-A)*%
X84595000Y-62495000D03*
%TD*%
%TO.P,D25,1,K*%
%TO.N,Net-(D10-K)*%
X56695000Y-48345000D03*
%TO.P,D25,2,A*%
%TO.N,Net-(D21-A)*%
X59695000Y-48345000D03*
%TD*%
%TO.P,D23,1,K*%
%TO.N,Net-(D13-K)*%
X86720000Y-57995000D03*
%TO.P,D23,2,A*%
%TO.N,Net-(D21-A)*%
X89720000Y-57995000D03*
%TD*%
%TO.P,D16,1,K*%
%TO.N,Net-(D1-K)*%
X81670000Y-48495000D03*
%TO.P,D16,2,A*%
%TO.N,Net-(D16-A)*%
X84670000Y-48495000D03*
%TD*%
%TO.P,D5,1,K*%
%TO.N,Net-(D10-K)*%
X66270000Y-42770000D03*
%TO.P,D5,2,A*%
%TO.N,Net-(D1-A)*%
X69270000Y-42770000D03*
%TD*%
%TO.P,D7,1,K*%
%TO.N,Net-(D12-K)*%
X66295000Y-50720000D03*
%TO.P,D7,2,A*%
%TO.N,Net-(D10-A)*%
X69295000Y-50720000D03*
%TD*%
%TO.P,D1,1,K*%
%TO.N,Net-(D1-K)*%
X61445000Y-45170000D03*
%TO.P,D1,2,A*%
%TO.N,Net-(D1-A)*%
X64445000Y-45170000D03*
%TD*%
%TO.P,D12,1,K*%
%TO.N,Net-(D12-K)*%
X91220000Y-45270000D03*
%TO.P,D12,2,A*%
%TO.N,Net-(D11-A)*%
X94220000Y-45270000D03*
%TD*%
D15*
%TO.P,J2,1,Pin_1*%
%TO.N,GND*%
X82500000Y-81475000D03*
D16*
%TO.P,J2,2,Pin_2*%
%TO.N,+5V*%
X79960000Y-81475000D03*
%TO.P,J2,3,Pin_3*%
%TO.N,Net-(J2-Pin_3)*%
X77420000Y-81475000D03*
%TO.P,J2,4,Pin_4*%
%TO.N,Net-(J2-Pin_4)*%
X74880000Y-81475000D03*
%TD*%
D12*
%TO.P,D13,1,K*%
%TO.N,Net-(D13-K)*%
X76495000Y-53795000D03*
%TO.P,D13,2,A*%
%TO.N,Net-(D11-A)*%
X79495000Y-53795000D03*
%TD*%
%TO.P,D22,1,K*%
%TO.N,Net-(D12-K)*%
X91645000Y-53345000D03*
%TO.P,D22,2,A*%
%TO.N,Net-(D21-A)*%
X94645000Y-53345000D03*
%TD*%
%TO.P,D6,1,K*%
%TO.N,Net-(D1-K)*%
X71420000Y-48445000D03*
%TO.P,D6,2,A*%
%TO.N,Net-(D10-A)*%
X74420000Y-48445000D03*
%TD*%
%TO.P,D18,1,K*%
%TO.N,Net-(D13-K)*%
X81620000Y-55670000D03*
%TO.P,D18,2,A*%
%TO.N,Net-(D16-A)*%
X84620000Y-55670000D03*
%TD*%
D15*
%TO.P,J6,1,Pin_1*%
%TO.N,GND*%
X82475000Y-76800000D03*
D16*
%TO.P,J6,2,Pin_2*%
%TO.N,+5V*%
X79935000Y-76800000D03*
%TO.P,J6,3,Pin_3*%
%TO.N,Net-(J2-Pin_3)*%
X77395000Y-76800000D03*
%TO.P,J6,4,Pin_4*%
%TO.N,Net-(J2-Pin_4)*%
X74855000Y-76800000D03*
%TD*%
D15*
%TO.P,SW1,1*%
%TO.N,Net-(J5-Pin_7)*%
X98975000Y-80350000D03*
D16*
%TO.P,SW1,2*%
%TO.N,Net-(J5-Pin_9)*%
X98975000Y-77810000D03*
%TO.P,SW1,3*%
%TO.N,Net-(J5-Pin_10)*%
X96435000Y-80350000D03*
%TO.P,SW1,4*%
%TO.N,Net-(J5-Pin_12)*%
X96435000Y-77810000D03*
%TO.P,SW1,5*%
%TO.N,GND*%
X93895000Y-80350000D03*
%TO.P,SW1,6*%
X93895000Y-77810000D03*
%TO.P,SW1,7*%
X91355000Y-80350000D03*
%TO.P,SW1,8*%
X91355000Y-77810000D03*
%TD*%
D17*
%TO.P,R20,1*%
%TO.N,+5V*%
X65680000Y-97790000D03*
%TO.P,R20,2*%
%TO.N,Net-(BZ1--)*%
X60680000Y-95290000D03*
%TO.P,R20,3*%
%TO.N,N/C*%
X65680000Y-92790000D03*
%TD*%
D15*
%TO.P,J4,1,Pin_1*%
%TO.N,Net-(J4-Pin_1)*%
X55520000Y-85090000D03*
D16*
%TO.P,J4,2,Pin_2*%
%TO.N,Net-(J4-Pin_2)*%
X58060000Y-85090000D03*
%TO.P,J4,3,Pin_3*%
%TO.N,unconnected-(J4-Pin_3-Pad3)*%
X60600000Y-85090000D03*
%TO.P,J4,4,Pin_4*%
%TO.N,Net-(J4-Pin_4)*%
X63140000Y-85090000D03*
%TO.P,J4,5,Pin_5*%
%TO.N,Net-(J4-Pin_5)*%
X65680000Y-85090000D03*
%TO.P,J4,6,Pin_6*%
%TO.N,Net-(J4-Pin_6)*%
X68220000Y-85090000D03*
%TO.P,J4,7,Pin_7*%
%TO.N,Net-(J4-Pin_7)*%
X70760000Y-85090000D03*
%TO.P,J4,8,Pin_8*%
%TO.N,unconnected-(J4-Pin_8-Pad8)*%
X73300000Y-85090000D03*
%TO.P,J4,9,Pin_9*%
%TO.N,Net-(J4-Pin_9)*%
X75840000Y-85090000D03*
%TO.P,J4,10,Pin_10*%
%TO.N,Net-(J4-Pin_10)*%
X78380000Y-85090000D03*
%TO.P,J4,11,Pin_11*%
%TO.N,unconnected-(J4-Pin_11-Pad11)*%
X80920000Y-85090000D03*
%TO.P,J4,12,Pin_12*%
%TO.N,unconnected-(J4-Pin_12-Pad12)*%
X83460000Y-85090000D03*
%TO.P,J4,13,Pin_13*%
%TO.N,unconnected-(J4-Pin_13-Pad13)*%
X86000000Y-85090000D03*
%TO.P,J4,14,Pin_14*%
%TO.N,Net-(J4-Pin_14)*%
X88540000Y-85090000D03*
%TO.P,J4,15,Pin_15*%
%TO.N,Net-(J4-Pin_15)*%
X91080000Y-85090000D03*
%TO.P,J4,16,Pin_16*%
%TO.N,Net-(J2-Pin_4)*%
X93620000Y-85090000D03*
%TO.P,J4,17,Pin_17*%
%TO.N,Net-(J2-Pin_3)*%
X96160000Y-85090000D03*
%TO.P,J4,18,Pin_18*%
%TO.N,unconnected-(J4-Pin_18-Pad18)*%
X98700000Y-85090000D03*
%TO.P,J4,19,Pin_19*%
%TO.N,unconnected-(J4-Pin_19-Pad19)*%
X101240000Y-85090000D03*
%TO.P,J4,20,Pin_20*%
%TO.N,unconnected-(J4-Pin_20-Pad20)*%
X103780000Y-85090000D03*
%TD*%
D15*
%TO.P,J3,1,Pin_1*%
%TO.N,Net-(J2-Pin_4)*%
X98100000Y-71600000D03*
D16*
%TO.P,J3,2,Pin_2*%
%TO.N,Net-(J2-Pin_3)*%
X98100000Y-74140000D03*
%TD*%
D14*
%TO.P,R21,1*%
%TO.N,Net-(J5-Pin_19)*%
X91080000Y-97815000D03*
D18*
%TO.P,R21,2*%
%TO.N,Net-(Q1-B)*%
X80920000Y-97815000D03*
%TD*%
D19*
%TO.P,Q1,1,C*%
%TO.N,Net-(BZ1-+)*%
X67555000Y-79575000D03*
%TO.P,Q1,2,B*%
%TO.N,Net-(Q1-B)*%
X68825000Y-78305000D03*
%TO.P,Q1,3,E*%
%TO.N,GND*%
X68825000Y-80845000D03*
%TD*%
D15*
%TO.P,J5,1,Pin_1*%
%TO.N,unconnected-(J5-Pin_1-Pad1)*%
X55520000Y-102895000D03*
D16*
%TO.P,J5,2,Pin_2*%
%TO.N,+5V*%
X58060000Y-102895000D03*
%TO.P,J5,3,Pin_3*%
%TO.N,GND*%
X60600000Y-102895000D03*
%TO.P,J5,4,Pin_4*%
%TO.N,unconnected-(J5-Pin_4-Pad4)*%
X63140000Y-102895000D03*
%TO.P,J5,5,Pin_5*%
%TO.N,+3.3V*%
X65680000Y-102895000D03*
%TO.P,J5,6,Pin_6*%
%TO.N,unconnected-(J5-Pin_6-Pad6)*%
X68220000Y-102895000D03*
%TO.P,J5,7,Pin_7*%
%TO.N,Net-(J5-Pin_7)*%
X70760000Y-102895000D03*
%TO.P,J5,8,Pin_8*%
%TO.N,unconnected-(J5-Pin_8-Pad8)*%
X73300000Y-102895000D03*
%TO.P,J5,9,Pin_9*%
%TO.N,Net-(J5-Pin_9)*%
X75840000Y-102895000D03*
%TO.P,J5,10,Pin_10*%
%TO.N,Net-(J5-Pin_10)*%
X78380000Y-102895000D03*
%TO.P,J5,11,Pin_11*%
%TO.N,unconnected-(J5-Pin_11-Pad11)*%
X80920000Y-102895000D03*
%TO.P,J5,12,Pin_12*%
%TO.N,Net-(J5-Pin_12)*%
X83460000Y-102895000D03*
%TO.P,J5,13,Pin_13*%
%TO.N,Net-(D26-DI)*%
X86000000Y-102895000D03*
%TO.P,J5,14,Pin_14*%
%TO.N,Net-(D26-VDD)*%
X88540000Y-102895000D03*
%TO.P,J5,15,Pin_15*%
%TO.N,Net-(D26-GND)*%
X91080000Y-102895000D03*
%TO.P,J5,16,Pin_16*%
%TO.N,Net-(D26-DO)*%
X93620000Y-102895000D03*
%TO.P,J5,17,Pin_17*%
%TO.N,unconnected-(J5-Pin_17-Pad17)*%
X96160000Y-102895000D03*
%TO.P,J5,18,Pin_18*%
%TO.N,unconnected-(J5-Pin_18-Pad18)*%
X98700000Y-102895000D03*
%TO.P,J5,19,Pin_19*%
%TO.N,Net-(J5-Pin_19)*%
X101240000Y-102895000D03*
%TO.P,J5,20,Pin_20*%
%TO.N,unconnected-(J5-Pin_20-Pad20)*%
X103780000Y-102895000D03*
%TD*%
D20*
%TO.N,Net-(D1-K)*%
X63041700Y-43902100D03*
X82176700Y-44875000D03*
X80776500Y-43405400D03*
X79768600Y-50272600D03*
X81233400Y-51759800D03*
%TO.N,Net-(D1-A)*%
X68972500Y-52622000D03*
%TO.N,Net-(D12-K)*%
X84998200Y-52320500D03*
X79422500Y-48717200D03*
%TO.N,Net-(D13-K)*%
X78052500Y-54207600D03*
%TO.N,Net-(D14-K)*%
X76701300Y-57954600D03*
%TO.N,Net-(D10-K)*%
X72683000Y-41192300D03*
X85914400Y-44857300D03*
X76288000Y-63378200D03*
%TO.N,Net-(D10-A)*%
X62945000Y-46662200D03*
X72496600Y-46338300D03*
%TO.N,Net-(D11-A)*%
X79780400Y-51593300D03*
X78969700Y-57836600D03*
%TO.N,Net-(D16-A)*%
X84531200Y-60415100D03*
X84641700Y-50903800D03*
%TO.N,Net-(D21-A)*%
X80974200Y-45012600D03*
X61324400Y-48873600D03*
%TO.N,+5V*%
X89347900Y-60127900D03*
X72260100Y-57842900D03*
X96761800Y-60304900D03*
%TO.N,Net-(J2-Pin_3)*%
X90209900Y-86912500D03*
%TO.N,Net-(J4-Pin_1)*%
X66208700Y-74751500D03*
%TO.N,Net-(U1-I4)*%
X63562200Y-62973300D03*
X63185400Y-67799800D03*
%TO.N,Net-(U2-I2)*%
X82414000Y-69649600D03*
X82544800Y-60544200D03*
%TO.N,Net-(J2-Pin_4)*%
X84442300Y-88431700D03*
%TO.N,Net-(J4-Pin_14)*%
X82883100Y-66150100D03*
%TO.N,+3.3V*%
X84017400Y-68285800D03*
%TO.N,Net-(J5-Pin_9)*%
X97347200Y-75652700D03*
%TO.N,Net-(J5-Pin_10)*%
X88053900Y-75442400D03*
%TO.N,Net-(J5-Pin_12)*%
X86153500Y-74340600D03*
%TD*%
D21*
%TO.N,Net-(D1-K)*%
X82176700Y-46361400D02*
X81670000Y-46868100D01*
X81470000Y-41245000D02*
X81470000Y-42871900D01*
X73623900Y-46644900D02*
X72496900Y-47771900D01*
X76520000Y-46644900D02*
X73623900Y-46644900D01*
X76520000Y-46644900D02*
X76520000Y-47024000D01*
X63041700Y-43902100D02*
X62521900Y-44421900D01*
X61445000Y-45170000D02*
X62521900Y-45170000D01*
X62521900Y-44421900D02*
X62521900Y-45170000D01*
X71420000Y-48445000D02*
X72496900Y-48445000D01*
X81310000Y-42871900D02*
X81470000Y-42871900D01*
X76520000Y-46245000D02*
X76520000Y-46644900D01*
X81670000Y-48495000D02*
X81670000Y-51323200D01*
X80776500Y-43405400D02*
X81310000Y-42871900D01*
X82176700Y-44875000D02*
X82176700Y-46361400D01*
X76520000Y-47024000D02*
X79768600Y-50272600D01*
X72496900Y-47771900D02*
X72496900Y-48445000D01*
X81670000Y-48495000D02*
X81670000Y-46868100D01*
X81670000Y-51323200D02*
X81233400Y-51759800D01*
%TO.N,Net-(D1-A)*%
X68972500Y-52622000D02*
X68720600Y-52873900D01*
X68720600Y-56093700D02*
X68720600Y-55267000D01*
X69270000Y-42770000D02*
X68193100Y-42770000D01*
X79370000Y-40470000D02*
X78293100Y-40470000D01*
X64118500Y-51543100D02*
X64120000Y-51544600D01*
X68720600Y-52873900D02*
X68720600Y-55267000D01*
X68193100Y-43443100D02*
X66466200Y-45170000D01*
X69270000Y-42770000D02*
X69327900Y-42827900D01*
X64120000Y-53170000D02*
X64120000Y-51544600D01*
X60043100Y-51734600D02*
X60234600Y-51543100D01*
X68720600Y-55267000D02*
X60669200Y-55267000D01*
X68193100Y-42770000D02*
X68193100Y-43443100D01*
X69195000Y-56568100D02*
X68720600Y-56093700D01*
X60234600Y-51543100D02*
X64118500Y-51543100D01*
X64118500Y-47123400D02*
X64445000Y-46796900D01*
X69195000Y-58195000D02*
X69195000Y-56568100D01*
X78293100Y-41143100D02*
X78293100Y-40470000D01*
X60669200Y-55267000D02*
X60043100Y-54640900D01*
X64445000Y-45170000D02*
X64445000Y-46796900D01*
X64118500Y-51543100D02*
X64118500Y-47123400D01*
X66466200Y-45170000D02*
X64445000Y-45170000D01*
X76608300Y-42827900D02*
X78293100Y-41143100D01*
X60043100Y-54640900D02*
X60043100Y-51734600D01*
X69327900Y-42827900D02*
X76608300Y-42827900D01*
%TO.N,Net-(D12-K)*%
X91220000Y-49043000D02*
X88758500Y-49043000D01*
X62196900Y-53170000D02*
X62196900Y-53843100D01*
X79422500Y-48717200D02*
X78442500Y-47737200D01*
X78442500Y-45600400D02*
X77460200Y-44618100D01*
X91220000Y-51293100D02*
X91645000Y-51718100D01*
X91645000Y-53345000D02*
X91645000Y-51718100D01*
X62196900Y-53843100D02*
X63150700Y-54796900D01*
X91220000Y-45676700D02*
X91220000Y-49043000D01*
X70770000Y-44618100D02*
X66295000Y-49093100D01*
X86645000Y-50720000D02*
X85568100Y-50720000D01*
X66295000Y-50720000D02*
X66295000Y-49093100D01*
X78442500Y-47737200D02*
X78442500Y-45600400D01*
X65010900Y-54796900D02*
X66295000Y-53512800D01*
X63150700Y-54796900D02*
X65010900Y-54796900D01*
X61120000Y-53170000D02*
X62196900Y-53170000D01*
X91220000Y-45270000D02*
X91220000Y-45676700D01*
X85568100Y-51750600D02*
X85568100Y-50720000D01*
X77460200Y-44618100D02*
X70770000Y-44618100D01*
X86645000Y-50720000D02*
X87721900Y-50720000D01*
X66295000Y-53512800D02*
X66295000Y-50720000D01*
X84998200Y-52320500D02*
X85568100Y-51750600D01*
X91220000Y-49043000D02*
X91220000Y-51293100D01*
X88758500Y-49043000D02*
X87721900Y-50079600D01*
X87721900Y-50079600D02*
X87721900Y-50720000D01*
%TO.N,Net-(D13-K)*%
X72539500Y-56535600D02*
X72346900Y-56343100D01*
X82696900Y-56343100D02*
X84348800Y-57995000D01*
X78052500Y-54892200D02*
X78052500Y-54207600D01*
X78052500Y-54892200D02*
X78830300Y-55670000D01*
X72539500Y-56535600D02*
X71533200Y-57541900D01*
X73300700Y-57296900D02*
X72539500Y-56535600D01*
X84348800Y-57995000D02*
X86720000Y-57995000D01*
X67271900Y-58832400D02*
X67271900Y-58195000D01*
X77624900Y-54892200D02*
X75220200Y-57296900D01*
X78052500Y-54892200D02*
X77624900Y-54892200D01*
X71490100Y-57602200D02*
X71490100Y-58413000D01*
X82696900Y-55670000D02*
X82696900Y-56343100D01*
X77984500Y-54207600D02*
X77571900Y-53795000D01*
X81620000Y-55670000D02*
X82696900Y-55670000D01*
X75220200Y-57296900D02*
X73300700Y-57296900D01*
X78052500Y-54207600D02*
X77984500Y-54207600D01*
X71490100Y-58413000D02*
X70030300Y-59872800D01*
X71533200Y-57559100D02*
X71490100Y-57602200D01*
X66195000Y-58195000D02*
X67271900Y-58195000D01*
X68312300Y-59872800D02*
X67271900Y-58832400D01*
X76495000Y-53795000D02*
X77571900Y-53795000D01*
X71533200Y-57541900D02*
X71533200Y-57559100D01*
X78830300Y-55670000D02*
X81620000Y-55670000D01*
X72346900Y-56343100D02*
X72346900Y-55670000D01*
X71270000Y-55670000D02*
X72346900Y-55670000D01*
X70030300Y-59872800D02*
X68312300Y-59872800D01*
%TO.N,Net-(D14-K)*%
X90293200Y-38801700D02*
X95720000Y-44228500D01*
X80241300Y-68970400D02*
X81595000Y-67616700D01*
X99796900Y-46940000D02*
X99796900Y-58348800D01*
X76445000Y-59106500D02*
X76445000Y-58293100D01*
X76701300Y-58036800D02*
X76445000Y-58293100D01*
X95720000Y-46792300D02*
X99649200Y-46792300D01*
X76445000Y-59513200D02*
X76445000Y-59106500D01*
X76701300Y-57954600D02*
X76701300Y-58036800D01*
X76370000Y-40470000D02*
X77446900Y-40470000D01*
X76445000Y-59513200D02*
X78043800Y-61112000D01*
X78043800Y-61112000D02*
X78043800Y-68564500D01*
X97074200Y-61071500D02*
X86255600Y-61071500D01*
X77446900Y-39796900D02*
X78442100Y-38801700D01*
X78449700Y-68970400D02*
X80241300Y-68970400D01*
X81595000Y-67616700D02*
X81595000Y-62495000D01*
X74987300Y-59106500D02*
X72321900Y-61771900D01*
X82282200Y-59676900D02*
X81595000Y-60364100D01*
X72321900Y-61771900D02*
X72321900Y-62445000D01*
X77446900Y-40470000D02*
X77446900Y-39796900D01*
X95720000Y-46792300D02*
X95720000Y-48470000D01*
X81595000Y-60364100D02*
X81595000Y-60868100D01*
X99649200Y-46792300D02*
X99796900Y-46940000D01*
X95720000Y-44228500D02*
X95720000Y-46792300D01*
X99796900Y-58348800D02*
X97074200Y-61071500D01*
X76445000Y-59920000D02*
X76445000Y-59513200D01*
X78043800Y-68564500D02*
X78449700Y-68970400D01*
X86255600Y-61071500D02*
X84861000Y-59676900D01*
X76445000Y-59106500D02*
X74987300Y-59106500D01*
X84861000Y-59676900D02*
X82282200Y-59676900D01*
X81595000Y-62495000D02*
X81595000Y-60868100D01*
X78442100Y-38801700D02*
X90293200Y-38801700D01*
X71245000Y-62445000D02*
X72321900Y-62445000D01*
%TO.N,Net-(D10-K)*%
X86370000Y-44401700D02*
X86370000Y-42745000D01*
X76288000Y-65636100D02*
X76345000Y-65693100D01*
X67346900Y-42096900D02*
X68300700Y-41143100D01*
X65193100Y-42770000D02*
X60643100Y-42770000D01*
X76345000Y-67320000D02*
X76345000Y-65693100D01*
X66270000Y-42770000D02*
X67346900Y-42770000D01*
X72324600Y-41192300D02*
X72321900Y-41195000D01*
X68300700Y-41143100D02*
X71193100Y-41143100D01*
X85914400Y-44857300D02*
X86370000Y-44401700D01*
X71193100Y-41143100D02*
X71245000Y-41195000D01*
X71245000Y-41195000D02*
X72321900Y-41195000D01*
X72683000Y-41192300D02*
X72324600Y-41192300D01*
X67346900Y-42770000D02*
X67346900Y-42096900D01*
X76288000Y-63378200D02*
X76288000Y-65636100D01*
X56695000Y-47531500D02*
X56695000Y-46718100D01*
X60643100Y-42770000D02*
X56695000Y-46718100D01*
X66270000Y-42770000D02*
X65193100Y-42770000D01*
X56695000Y-47531500D02*
X56695000Y-48345000D01*
%TO.N,Net-(D10-A)*%
X74270000Y-55670000D02*
X74270000Y-54043100D01*
X78758100Y-76262900D02*
X78758100Y-77308500D01*
X74420000Y-48445000D02*
X74420000Y-50071900D01*
X73168100Y-68057200D02*
X73168100Y-62445000D01*
X62943600Y-39528400D02*
X72538300Y-39528400D01*
X72496600Y-46338300D02*
X70983500Y-46338300D01*
X81182500Y-77300500D02*
X81182500Y-76071600D01*
X69295000Y-50720000D02*
X73771900Y-50720000D01*
X79437800Y-77988200D02*
X80494800Y-77988200D01*
X69295000Y-48026800D02*
X69295000Y-50720000D01*
X59590600Y-57095400D02*
X78758100Y-76262900D01*
X73771900Y-53545000D02*
X74270000Y-54043100D01*
X61315400Y-49971900D02*
X59590600Y-49971900D01*
X78758100Y-77308500D02*
X79437800Y-77988200D01*
X80494800Y-77988200D02*
X81182500Y-77300500D01*
X73771900Y-50720000D02*
X73771900Y-53545000D01*
X81182500Y-76071600D02*
X73168100Y-68057200D01*
X62945000Y-46662200D02*
X62945000Y-48342300D01*
X73771900Y-50720000D02*
X74420000Y-50071900D01*
X59590600Y-49971900D02*
X55715500Y-49971900D01*
X74245000Y-41195000D02*
X74204900Y-41195000D01*
X72538300Y-39528400D02*
X74204900Y-41195000D01*
X62945000Y-48342300D02*
X61315400Y-49971900D01*
X74245000Y-62445000D02*
X73168100Y-62445000D01*
X55715500Y-49971900D02*
X55618100Y-49874500D01*
X55618100Y-46853900D02*
X62943600Y-39528400D01*
X70983500Y-46338300D02*
X69295000Y-48026800D01*
X55618100Y-49874500D02*
X55618100Y-46853900D01*
X59590600Y-49971900D02*
X59590600Y-57095400D01*
%TO.N,Net-(D11-A)*%
X80535300Y-50838400D02*
X80535300Y-48760300D01*
X94220000Y-45270000D02*
X94220000Y-43643100D01*
X79520000Y-46245000D02*
X79520000Y-44618100D01*
X81142900Y-44132300D02*
X82741400Y-42533800D01*
X79426200Y-58293100D02*
X78969700Y-57836600D01*
X82741400Y-42533800D02*
X82741400Y-40407400D01*
X79520000Y-44618100D02*
X80005800Y-44132300D01*
X90195000Y-39618100D02*
X94220000Y-43643100D01*
X79495000Y-53795000D02*
X79495000Y-52168100D01*
X79780400Y-51593300D02*
X80535300Y-50838400D01*
X83530700Y-39618100D02*
X90195000Y-39618100D01*
X79445000Y-58293100D02*
X79426200Y-58293100D01*
X79445000Y-59920000D02*
X79445000Y-58293100D01*
X80535300Y-48760300D02*
X79646900Y-47871900D01*
X82741400Y-40407400D02*
X83530700Y-39618100D01*
X79646900Y-47871900D02*
X79520000Y-47871900D01*
X79495000Y-52168100D02*
X79495000Y-51878700D01*
X79495000Y-51878700D02*
X79780400Y-51593300D01*
X79345000Y-67320000D02*
X79345000Y-61646900D01*
X79445000Y-59920000D02*
X79445000Y-61546900D01*
X79520000Y-46245000D02*
X79520000Y-47871900D01*
X80005800Y-44132300D02*
X81142900Y-44132300D01*
X79345000Y-61646900D02*
X79445000Y-61546900D01*
%TO.N,Net-(D16-A)*%
X84595000Y-62495000D02*
X84595000Y-60478900D01*
X88568100Y-51373200D02*
X86417500Y-53523800D01*
X84271300Y-53175100D02*
X84620000Y-53523800D01*
X84641700Y-50150200D02*
X84670000Y-50121900D01*
X85746900Y-47995000D02*
X89370000Y-44371900D01*
X88568100Y-50720000D02*
X88568100Y-51373200D01*
X84620000Y-53523800D02*
X84620000Y-54043100D01*
X84271300Y-51274200D02*
X84271300Y-53175100D01*
X84670000Y-48495000D02*
X84670000Y-50121900D01*
X89645000Y-50720000D02*
X88568100Y-50720000D01*
X84670000Y-48495000D02*
X85746900Y-48495000D01*
X89370000Y-42745000D02*
X89370000Y-44371900D01*
X84595000Y-60478900D02*
X84531200Y-60415100D01*
X84641700Y-50903800D02*
X84271300Y-51274200D01*
X86417500Y-53523800D02*
X84620000Y-53523800D01*
X84620000Y-55670000D02*
X84620000Y-54043100D01*
X85746900Y-48495000D02*
X85746900Y-47995000D01*
X84641700Y-50903800D02*
X84641700Y-50150200D01*
%TO.N,Net-(D21-A)*%
X98720000Y-48470000D02*
X97643100Y-48470000D01*
X90318400Y-41118100D02*
X93143100Y-43942800D01*
X93568100Y-55223800D02*
X93568100Y-53345000D01*
X84470000Y-41245000D02*
X84470000Y-42871900D01*
X84470000Y-41245000D02*
X84596900Y-41118100D01*
X83114900Y-42871900D02*
X84470000Y-42871900D01*
X93143100Y-43942800D02*
X93143100Y-52920000D01*
X80974200Y-45012600D02*
X83114900Y-42871900D01*
X94645000Y-53345000D02*
X95721900Y-53345000D01*
X60771900Y-48345000D02*
X60795800Y-48345000D01*
X60795800Y-48345000D02*
X61324400Y-48873600D01*
X90796900Y-57995000D02*
X93568100Y-55223800D01*
X93143100Y-52920000D02*
X93568100Y-53345000D01*
X94645000Y-53345000D02*
X93568100Y-53345000D01*
X95721900Y-53345000D02*
X97643100Y-51423800D01*
X59695000Y-48345000D02*
X60771900Y-48345000D01*
X97643100Y-51423800D02*
X97643100Y-48470000D01*
X89720000Y-57995000D02*
X90796900Y-57995000D01*
X84596900Y-41118100D02*
X90318400Y-41118100D01*
%TO.N,+5V*%
X89347900Y-60127900D02*
X96584800Y-60127900D01*
X70144900Y-65833000D02*
X79935000Y-75623100D01*
X65680000Y-97790000D02*
X77110000Y-86360000D01*
X70144900Y-60668800D02*
X70144900Y-65833000D01*
X85989700Y-60127900D02*
X84961400Y-59099600D01*
X84961400Y-59099600D02*
X81623000Y-59099600D01*
X76248300Y-57107000D02*
X75512400Y-57842900D01*
X72260100Y-58553600D02*
X70144900Y-60668800D01*
X79960000Y-81475000D02*
X79960000Y-82651900D01*
X75512400Y-57842900D02*
X72260100Y-57842900D01*
X77110000Y-86360000D02*
X77110000Y-84669600D01*
X81623000Y-59099600D02*
X79630400Y-57107000D01*
X89347900Y-60127900D02*
X85989700Y-60127900D01*
X77110000Y-84669600D02*
X79127700Y-82651900D01*
X96584800Y-60127900D02*
X96761800Y-60304900D01*
X79935000Y-76800000D02*
X79935000Y-75623100D01*
X79630400Y-57107000D02*
X76248300Y-57107000D01*
X72260100Y-57842900D02*
X72260100Y-58553600D01*
X79127700Y-82651900D02*
X79960000Y-82651900D01*
%TO.N,Net-(J2-Pin_3)*%
X77420000Y-81475000D02*
X78596900Y-81475000D01*
X79451900Y-80254200D02*
X83522500Y-80254200D01*
X88665400Y-86912400D02*
X90209900Y-86912400D01*
X87270000Y-84001700D02*
X87270000Y-85517000D01*
X90209900Y-86912400D02*
X90209900Y-86912500D01*
X78596900Y-81109200D02*
X79451900Y-80254200D01*
X83522500Y-80254200D02*
X87270000Y-84001700D01*
X87270000Y-85517000D02*
X88665400Y-86912400D01*
X78596900Y-81475000D02*
X78596900Y-81109200D01*
%TO.N,Net-(J4-Pin_1)*%
X56696900Y-84263300D02*
X66208700Y-74751500D01*
X55520000Y-85090000D02*
X56696900Y-85090000D01*
X56696900Y-85090000D02*
X56696900Y-84263300D01*
%TO.N,Net-(D26-DO)*%
X93045000Y-73175000D02*
X93045000Y-71948100D01*
X99970000Y-95368100D02*
X93620000Y-101718100D01*
X93620000Y-102895000D02*
X93620000Y-101718100D01*
X100657100Y-71935700D02*
X100657100Y-82700400D01*
X99144500Y-70423100D02*
X100657100Y-71935700D01*
X93045000Y-71948100D02*
X94570000Y-70423100D01*
X94570000Y-70423100D02*
X99144500Y-70423100D01*
X99970000Y-83387500D02*
X99970000Y-95368100D01*
X100657100Y-82700400D02*
X99970000Y-83387500D01*
%TO.N,Net-(D26-GND)*%
X94151000Y-104078300D02*
X94890000Y-103339300D01*
X94890000Y-103339300D02*
X94890000Y-101745500D01*
X92256900Y-103262800D02*
X93072400Y-104078300D01*
X102436900Y-94198600D02*
X102436900Y-73007200D01*
X99396200Y-69966500D02*
X93756600Y-69966500D01*
X91775000Y-73175000D02*
X91775000Y-71948100D01*
X94890000Y-101745500D02*
X102436900Y-94198600D01*
X93756600Y-69966500D02*
X91775000Y-71948100D01*
X92256900Y-102895000D02*
X92256900Y-103262800D01*
X102436900Y-73007200D02*
X99396200Y-69966500D01*
X91080000Y-102895000D02*
X92256900Y-102895000D01*
X93072400Y-104078300D02*
X94151000Y-104078300D01*
%TO.N,Net-(U1-I4)*%
X63185400Y-67799800D02*
X63185400Y-63350100D01*
X63185400Y-63350100D02*
X63562200Y-62973300D01*
%TO.N,Net-(U2-I2)*%
X82671900Y-60671300D02*
X82671900Y-63930400D01*
X82156100Y-64446200D02*
X82156100Y-69391700D01*
X82544800Y-60544200D02*
X82671900Y-60671300D01*
X82671900Y-63930400D02*
X82156100Y-64446200D01*
X82156100Y-69391700D02*
X82414000Y-69649600D01*
%TO.N,Net-(J2-Pin_4)*%
X97631800Y-80855700D02*
X94574400Y-83913100D01*
X74880000Y-81475000D02*
X74880000Y-80298100D01*
X74855000Y-80273100D02*
X74855000Y-76800000D01*
X98100000Y-72776900D02*
X97732200Y-72776900D01*
X93620000Y-85090000D02*
X93620000Y-86266900D01*
X96589500Y-76300100D02*
X97631800Y-77342400D01*
X94574400Y-83913100D02*
X93620000Y-83913100D01*
X97732200Y-72776900D02*
X96589500Y-73919600D01*
X98100000Y-71600000D02*
X98100000Y-72776900D01*
X93620000Y-86266900D02*
X91455200Y-88431700D01*
X91455200Y-88431700D02*
X84442300Y-88431700D01*
X96589500Y-73919600D02*
X96589500Y-76300100D01*
X97631800Y-77342400D02*
X97631800Y-80855700D01*
X93620000Y-85090000D02*
X93620000Y-83913100D01*
X74880000Y-80298100D02*
X74855000Y-80273100D01*
%TO.N,Net-(J4-Pin_14)*%
X88540000Y-85090000D02*
X88540000Y-83913100D01*
X84744300Y-67984700D02*
X82909700Y-66150100D01*
X88540000Y-83913100D02*
X84744300Y-80117400D01*
X84744300Y-80117400D02*
X84744300Y-67984700D01*
X82909700Y-66150100D02*
X82883100Y-66150100D01*
%TO.N,+3.3V*%
X74570000Y-87098000D02*
X74570000Y-84489600D01*
X84017400Y-77503200D02*
X84017400Y-68285800D01*
X65680000Y-102895000D02*
X65680000Y-101718100D01*
X82631000Y-78889600D02*
X84017400Y-77503200D01*
X76065800Y-81130600D02*
X78306800Y-78889600D01*
X64506900Y-100545000D02*
X64506900Y-97161100D01*
X76065800Y-82993800D02*
X76065800Y-81130600D01*
X65680000Y-101718100D02*
X64506900Y-100545000D01*
X64506900Y-97161100D02*
X74570000Y-87098000D01*
X78306800Y-78889600D02*
X82631000Y-78889600D01*
X74570000Y-84489600D02*
X76065800Y-82993800D01*
%TO.N,Net-(J5-Pin_9)*%
X95647800Y-87297700D02*
X97430000Y-85515500D01*
X98327600Y-76633100D02*
X97347200Y-75652700D01*
X97430000Y-85515500D02*
X97430000Y-84649000D01*
X79650000Y-103354400D02*
X79650000Y-102424200D01*
X94776500Y-87297700D02*
X95647800Y-87297700D01*
X98975000Y-77810000D02*
X98975000Y-78986900D01*
X78876900Y-104127500D02*
X79650000Y-103354400D01*
X77016900Y-102895000D02*
X77016900Y-103262800D01*
X100151900Y-81927100D02*
X100151900Y-79331500D01*
X98975000Y-76633100D02*
X98327600Y-76633100D01*
X77016900Y-103262800D02*
X77881600Y-104127500D01*
X97430000Y-84649000D02*
X100151900Y-81927100D01*
X75840000Y-102895000D02*
X77016900Y-102895000D01*
X99807300Y-78986900D02*
X98975000Y-78986900D01*
X98975000Y-77810000D02*
X98975000Y-76633100D01*
X77881600Y-104127500D02*
X78876900Y-104127500D01*
X100151900Y-79331500D02*
X99807300Y-78986900D01*
X79650000Y-102424200D02*
X94776500Y-87297700D01*
%TO.N,Net-(J5-Pin_10)*%
X84126900Y-87691300D02*
X90462600Y-87691300D01*
X95258100Y-80715800D02*
X95258100Y-80350000D01*
X78380000Y-102895000D02*
X78380000Y-93438200D01*
X94434400Y-81539500D02*
X95258100Y-80715800D01*
X90946400Y-86620800D02*
X89903100Y-85577500D01*
X89903100Y-77291600D02*
X88053900Y-75442400D01*
X90946400Y-87207500D02*
X90946400Y-86620800D01*
X89903100Y-85577500D02*
X89903100Y-81539500D01*
X90462600Y-87691300D02*
X90946400Y-87207500D01*
X89903100Y-81539500D02*
X94434400Y-81539500D01*
X78380000Y-93438200D02*
X84126900Y-87691300D01*
X89903100Y-81539500D02*
X89903100Y-77291600D01*
X96435000Y-80350000D02*
X95258100Y-80350000D01*
%TO.N,Net-(J5-Pin_12)*%
X92225500Y-74411600D02*
X86224500Y-74411600D01*
X95258100Y-77810000D02*
X95258100Y-77444200D01*
X95258100Y-77444200D02*
X92225500Y-74411600D01*
X86224500Y-74411600D02*
X86153500Y-74340600D01*
X96435000Y-77810000D02*
X95258100Y-77810000D01*
%TD*%
%TA.AperFunction,Conductor*%
%TO.N,GND*%
G36*
X84055203Y-81671939D02*
G01*
X84061676Y-81677967D01*
X84997124Y-82613415D01*
X85920520Y-83536811D01*
X85954005Y-83598134D01*
X85949021Y-83667826D01*
X85907149Y-83723759D01*
X85843647Y-83748020D01*
X85764596Y-83754936D01*
X85764586Y-83754938D01*
X85536344Y-83816094D01*
X85536335Y-83816098D01*
X85322171Y-83915964D01*
X85322169Y-83915965D01*
X85128597Y-84051505D01*
X84961505Y-84218597D01*
X84831575Y-84404158D01*
X84776998Y-84447783D01*
X84707500Y-84454977D01*
X84645145Y-84423454D01*
X84628425Y-84404158D01*
X84498494Y-84218597D01*
X84331402Y-84051506D01*
X84331395Y-84051501D01*
X84137834Y-83915967D01*
X84137830Y-83915965D01*
X84104498Y-83900422D01*
X83923663Y-83816097D01*
X83923659Y-83816096D01*
X83923655Y-83816094D01*
X83695413Y-83754938D01*
X83695403Y-83754936D01*
X83460001Y-83734341D01*
X83459999Y-83734341D01*
X83224596Y-83754936D01*
X83224586Y-83754938D01*
X82996344Y-83816094D01*
X82996335Y-83816098D01*
X82782171Y-83915964D01*
X82782169Y-83915965D01*
X82588597Y-84051505D01*
X82421505Y-84218597D01*
X82291575Y-84404158D01*
X82236998Y-84447783D01*
X82167500Y-84454977D01*
X82105145Y-84423454D01*
X82088425Y-84404158D01*
X81958494Y-84218597D01*
X81791402Y-84051506D01*
X81791395Y-84051501D01*
X81597834Y-83915967D01*
X81597830Y-83915965D01*
X81564498Y-83900422D01*
X81383663Y-83816097D01*
X81383659Y-83816096D01*
X81383655Y-83816094D01*
X81155413Y-83754938D01*
X81155403Y-83754936D01*
X80920001Y-83734341D01*
X80919999Y-83734341D01*
X80684596Y-83754936D01*
X80684586Y-83754938D01*
X80456344Y-83816094D01*
X80456335Y-83816098D01*
X80242171Y-83915964D01*
X80242169Y-83915965D01*
X80048597Y-84051505D01*
X79881505Y-84218597D01*
X79751575Y-84404158D01*
X79696998Y-84447783D01*
X79627500Y-84454977D01*
X79565145Y-84423454D01*
X79548425Y-84404158D01*
X79418494Y-84218597D01*
X79251402Y-84051506D01*
X79251395Y-84051501D01*
X79057832Y-83915966D01*
X79007180Y-83892346D01*
X78954741Y-83846173D01*
X78935590Y-83778979D01*
X78955806Y-83712098D01*
X78971899Y-83692289D01*
X79350470Y-83313719D01*
X79411794Y-83280234D01*
X79438152Y-83277400D01*
X79889153Y-83277400D01*
X79912385Y-83279596D01*
X79913989Y-83279901D01*
X79920412Y-83281127D01*
X79977724Y-83277521D01*
X79981597Y-83277400D01*
X79999342Y-83277400D01*
X79999350Y-83277400D01*
X80016990Y-83275171D01*
X80020807Y-83274810D01*
X80078138Y-83271204D01*
X80085905Y-83268680D01*
X80108680Y-83263588D01*
X80116792Y-83262564D01*
X80170195Y-83241419D01*
X80173835Y-83240109D01*
X80228441Y-83222367D01*
X80235337Y-83217990D01*
X80256133Y-83207394D01*
X80263732Y-83204386D01*
X80310191Y-83170630D01*
X80313390Y-83168455D01*
X80361877Y-83137686D01*
X80367466Y-83131733D01*
X80384979Y-83116294D01*
X80391587Y-83111494D01*
X80428190Y-83067247D01*
X80430736Y-83064357D01*
X80470062Y-83022482D01*
X80473998Y-83015321D01*
X80487119Y-82996014D01*
X80492324Y-82989723D01*
X80516769Y-82937774D01*
X80518528Y-82934319D01*
X80546197Y-82883992D01*
X80548227Y-82876081D01*
X80556135Y-82854118D01*
X80559614Y-82846726D01*
X80570377Y-82790301D01*
X80571210Y-82786570D01*
X80585500Y-82730919D01*
X80585500Y-82730916D01*
X80587440Y-82723361D01*
X80590026Y-82724025D01*
X80612788Y-82671789D01*
X80636781Y-82649769D01*
X80637827Y-82649036D01*
X80637830Y-82649035D01*
X80831401Y-82513495D01*
X80953717Y-82391178D01*
X81015036Y-82357696D01*
X81084728Y-82362680D01*
X81140662Y-82404551D01*
X81157577Y-82435528D01*
X81206646Y-82567088D01*
X81206649Y-82567093D01*
X81292809Y-82682187D01*
X81292812Y-82682190D01*
X81407906Y-82768350D01*
X81407913Y-82768354D01*
X81542620Y-82818596D01*
X81542627Y-82818598D01*
X81602155Y-82824999D01*
X81602172Y-82825000D01*
X82250000Y-82825000D01*
X82250000Y-82087301D01*
X82269685Y-82020262D01*
X82322489Y-81974507D01*
X82391647Y-81964563D01*
X82464237Y-81975000D01*
X82464238Y-81975000D01*
X82535762Y-81975000D01*
X82535763Y-81975000D01*
X82608353Y-81964563D01*
X82677512Y-81974507D01*
X82730315Y-82020262D01*
X82750000Y-82087301D01*
X82750000Y-82825000D01*
X83397828Y-82825000D01*
X83397844Y-82824999D01*
X83457372Y-82818598D01*
X83457379Y-82818596D01*
X83592086Y-82768354D01*
X83592093Y-82768350D01*
X83707187Y-82682190D01*
X83707190Y-82682187D01*
X83793350Y-82567093D01*
X83793354Y-82567086D01*
X83843596Y-82432379D01*
X83843598Y-82432372D01*
X83849999Y-82372844D01*
X83850000Y-82372827D01*
X83850000Y-81765652D01*
X83869685Y-81698613D01*
X83922489Y-81652858D01*
X83991647Y-81642914D01*
X84055203Y-81671939D01*
G37*
%TD.AperFunction*%
%TA.AperFunction,Conductor*%
G36*
X93348692Y-80119685D02*
G01*
X93394447Y-80172489D01*
X93404391Y-80241647D01*
X93400631Y-80258933D01*
X93395000Y-80278111D01*
X93395000Y-80421888D01*
X93400631Y-80441067D01*
X93400630Y-80510936D01*
X93362855Y-80569714D01*
X93299299Y-80598738D01*
X93281653Y-80600000D01*
X91968347Y-80600000D01*
X91901308Y-80580315D01*
X91855553Y-80527511D01*
X91845609Y-80458353D01*
X91849369Y-80441067D01*
X91855000Y-80421888D01*
X91855000Y-80278111D01*
X91849369Y-80258933D01*
X91849370Y-80189064D01*
X91887145Y-80130286D01*
X91950701Y-80101262D01*
X91968347Y-80100000D01*
X93281653Y-80100000D01*
X93348692Y-80119685D01*
G37*
%TD.AperFunction*%
%TA.AperFunction,Conductor*%
G36*
X91532512Y-78309507D02*
G01*
X91585315Y-78355262D01*
X91605000Y-78422301D01*
X91605000Y-79737698D01*
X91585315Y-79804737D01*
X91532511Y-79850492D01*
X91463355Y-79860436D01*
X91390766Y-79850000D01*
X91390763Y-79850000D01*
X91319237Y-79850000D01*
X91319233Y-79850000D01*
X91246645Y-79860436D01*
X91177487Y-79850492D01*
X91124684Y-79804736D01*
X91105000Y-79737698D01*
X91105000Y-78422301D01*
X91124685Y-78355262D01*
X91177489Y-78309507D01*
X91246647Y-78299563D01*
X91319237Y-78310000D01*
X91319238Y-78310000D01*
X91390762Y-78310000D01*
X91390763Y-78310000D01*
X91463353Y-78299563D01*
X91532512Y-78309507D01*
G37*
%TD.AperFunction*%
%TA.AperFunction,Conductor*%
G36*
X94072512Y-78309507D02*
G01*
X94125315Y-78355262D01*
X94145000Y-78422301D01*
X94145000Y-79737698D01*
X94125315Y-79804737D01*
X94072511Y-79850492D01*
X94003355Y-79860436D01*
X93930766Y-79850000D01*
X93930763Y-79850000D01*
X93859237Y-79850000D01*
X93859233Y-79850000D01*
X93786645Y-79860436D01*
X93717487Y-79850492D01*
X93664684Y-79804736D01*
X93645000Y-79737698D01*
X93645000Y-78422301D01*
X93664685Y-78355262D01*
X93717489Y-78309507D01*
X93786647Y-78299563D01*
X93859237Y-78310000D01*
X93859238Y-78310000D01*
X93930762Y-78310000D01*
X93930763Y-78310000D01*
X94003353Y-78299563D01*
X94072512Y-78309507D01*
G37*
%TD.AperFunction*%
%TA.AperFunction,Conductor*%
G36*
X93348692Y-77579685D02*
G01*
X93394447Y-77632489D01*
X93404391Y-77701647D01*
X93400631Y-77718933D01*
X93395000Y-77738111D01*
X93395000Y-77881888D01*
X93400631Y-77901067D01*
X93400630Y-77970936D01*
X93362855Y-78029714D01*
X93299299Y-78058738D01*
X93281653Y-78060000D01*
X91968347Y-78060000D01*
X91901308Y-78040315D01*
X91855553Y-77987511D01*
X91845609Y-77918353D01*
X91849369Y-77901067D01*
X91855000Y-77881888D01*
X91855000Y-77738111D01*
X91849369Y-77718933D01*
X91849370Y-77649064D01*
X91887145Y-77590286D01*
X91950701Y-77561262D01*
X91968347Y-77560000D01*
X93281653Y-77560000D01*
X93348692Y-77579685D01*
G37*
%TD.AperFunction*%
%TA.AperFunction,Conductor*%
G36*
X91982087Y-75056785D02*
G01*
X92002729Y-75073419D01*
X93329727Y-76400417D01*
X93363212Y-76461740D01*
X93358228Y-76531432D01*
X93316356Y-76587365D01*
X93294451Y-76600480D01*
X93217422Y-76636399D01*
X93217420Y-76636400D01*
X93023926Y-76771886D01*
X93023920Y-76771891D01*
X92856891Y-76938920D01*
X92856890Y-76938922D01*
X92726575Y-77125031D01*
X92671998Y-77168655D01*
X92602499Y-77175848D01*
X92540145Y-77144326D01*
X92523425Y-77125031D01*
X92393109Y-76938922D01*
X92393108Y-76938920D01*
X92226082Y-76771894D01*
X92032578Y-76636399D01*
X91818492Y-76536570D01*
X91818486Y-76536567D01*
X91605000Y-76479364D01*
X91605000Y-77197698D01*
X91585315Y-77264737D01*
X91532511Y-77310492D01*
X91463355Y-77320436D01*
X91390766Y-77310000D01*
X91390763Y-77310000D01*
X91319237Y-77310000D01*
X91319233Y-77310000D01*
X91246645Y-77320436D01*
X91177487Y-77310492D01*
X91124684Y-77264736D01*
X91105000Y-77197698D01*
X91105000Y-76479364D01*
X91104999Y-76479364D01*
X90891513Y-76536567D01*
X90891507Y-76536570D01*
X90677422Y-76636399D01*
X90677420Y-76636400D01*
X90483919Y-76771891D01*
X90463629Y-76792181D01*
X90402306Y-76825665D01*
X90332614Y-76820679D01*
X90288269Y-76792179D01*
X88992860Y-75496769D01*
X88959375Y-75435446D01*
X88957223Y-75422068D01*
X88939574Y-75254144D01*
X88921791Y-75199416D01*
X88919797Y-75129578D01*
X88955877Y-75069745D01*
X89018577Y-75038916D01*
X89039723Y-75037100D01*
X91915048Y-75037100D01*
X91982087Y-75056785D01*
G37*
%TD.AperFunction*%
%TA.AperFunction,Conductor*%
G36*
X81449934Y-68748869D02*
G01*
X81505867Y-68790741D01*
X81530284Y-68856205D01*
X81530600Y-68865051D01*
X81530600Y-69308955D01*
X81528875Y-69324572D01*
X81529161Y-69324599D01*
X81528426Y-69332365D01*
X81530600Y-69401514D01*
X81530600Y-69434945D01*
X81530067Y-69434945D01*
X81528605Y-69454840D01*
X81529005Y-69454883D01*
X81513956Y-69598073D01*
X81508540Y-69649600D01*
X81528326Y-69837856D01*
X81528327Y-69837859D01*
X81586818Y-70017877D01*
X81586821Y-70017884D01*
X81681467Y-70181816D01*
X81715490Y-70219602D01*
X81808129Y-70322488D01*
X81961265Y-70433748D01*
X81961270Y-70433751D01*
X82134192Y-70510742D01*
X82134197Y-70510744D01*
X82319354Y-70550100D01*
X82319355Y-70550100D01*
X82508644Y-70550100D01*
X82508646Y-70550100D01*
X82693803Y-70510744D01*
X82866730Y-70433751D01*
X83019871Y-70322488D01*
X83146533Y-70181816D01*
X83160512Y-70157602D01*
X83211079Y-70109387D01*
X83279686Y-70096163D01*
X83344551Y-70122131D01*
X83385080Y-70179045D01*
X83391900Y-70219602D01*
X83391900Y-75326000D01*
X83372215Y-75393039D01*
X83319411Y-75438794D01*
X83267900Y-75450000D01*
X82725000Y-75450000D01*
X82725000Y-76187698D01*
X82705315Y-76254737D01*
X82652511Y-76300492D01*
X82583355Y-76310436D01*
X82510766Y-76300000D01*
X82510763Y-76300000D01*
X82439237Y-76300000D01*
X82439233Y-76300000D01*
X82366645Y-76310436D01*
X82297487Y-76300492D01*
X82244684Y-76254736D01*
X82225000Y-76187698D01*
X82225000Y-75450000D01*
X81577169Y-75450000D01*
X81517258Y-75456441D01*
X81448499Y-75444035D01*
X81416323Y-75420832D01*
X75287833Y-69292342D01*
X75254348Y-69231019D01*
X75259332Y-69161327D01*
X75301204Y-69105394D01*
X75366668Y-69080977D01*
X75418847Y-69088479D01*
X75487517Y-69114091D01*
X75487516Y-69114091D01*
X75494444Y-69114835D01*
X75547127Y-69120500D01*
X77142872Y-69120499D01*
X77202483Y-69114091D01*
X77337331Y-69063796D01*
X77338212Y-69063136D01*
X77431756Y-68993110D01*
X77497220Y-68968692D01*
X77565493Y-68983543D01*
X77585107Y-68996832D01*
X77620109Y-69025788D01*
X77624420Y-69029710D01*
X77787101Y-69192391D01*
X77948894Y-69354184D01*
X77958717Y-69366445D01*
X77958939Y-69366263D01*
X77963912Y-69372275D01*
X77963913Y-69372276D01*
X77963914Y-69372277D01*
X77982537Y-69389765D01*
X78014336Y-69419627D01*
X78035223Y-69440515D01*
X78035227Y-69440518D01*
X78035229Y-69440520D01*
X78040711Y-69444773D01*
X78045143Y-69448557D01*
X78079118Y-69480462D01*
X78096676Y-69490114D01*
X78112935Y-69500795D01*
X78128764Y-69513073D01*
X78171538Y-69531582D01*
X78176756Y-69534138D01*
X78217608Y-69556597D01*
X78237016Y-69561580D01*
X78255417Y-69567880D01*
X78273804Y-69575837D01*
X78317188Y-69582708D01*
X78319819Y-69583125D01*
X78325539Y-69584309D01*
X78370681Y-69595900D01*
X78390716Y-69595900D01*
X78410114Y-69597426D01*
X78429894Y-69600559D01*
X78429895Y-69600560D01*
X78429895Y-69600559D01*
X78429896Y-69600560D01*
X78476283Y-69596175D01*
X78482122Y-69595900D01*
X80158557Y-69595900D01*
X80174177Y-69597624D01*
X80174204Y-69597339D01*
X80181960Y-69598071D01*
X80181967Y-69598073D01*
X80251114Y-69595900D01*
X80280650Y-69595900D01*
X80287528Y-69595030D01*
X80293341Y-69594572D01*
X80339927Y-69593109D01*
X80359169Y-69587517D01*
X80378212Y-69583574D01*
X80398092Y-69581064D01*
X80441422Y-69563907D01*
X80446946Y-69562017D01*
X80450696Y-69560927D01*
X80491690Y-69549018D01*
X80508929Y-69538822D01*
X80526403Y-69530262D01*
X80545027Y-69522888D01*
X80545027Y-69522887D01*
X80545032Y-69522886D01*
X80582749Y-69495482D01*
X80587605Y-69492292D01*
X80627720Y-69468570D01*
X80641889Y-69454399D01*
X80656679Y-69441768D01*
X80672887Y-69429994D01*
X80702599Y-69394076D01*
X80706512Y-69389776D01*
X81318920Y-68777369D01*
X81380242Y-68743885D01*
X81449934Y-68748869D01*
G37*
%TD.AperFunction*%
%TA.AperFunction,Conductor*%
G36*
X106742539Y-30500185D02*
G01*
X106788294Y-30552989D01*
X106799500Y-30604500D01*
X106799500Y-114255500D01*
X106779815Y-114322539D01*
X106727011Y-114368294D01*
X106675500Y-114379500D01*
X48344500Y-114379500D01*
X48277461Y-114359815D01*
X48231706Y-114307011D01*
X48220500Y-114255500D01*
X48220500Y-110867763D01*
X76045787Y-110867763D01*
X76075413Y-111137013D01*
X76075415Y-111137024D01*
X76143926Y-111399082D01*
X76143928Y-111399088D01*
X76249870Y-111648390D01*
X76321998Y-111766575D01*
X76390979Y-111879605D01*
X76390986Y-111879615D01*
X76564253Y-112087819D01*
X76564259Y-112087824D01*
X76765998Y-112268582D01*
X76991910Y-112418044D01*
X77237176Y-112533020D01*
X77237183Y-112533022D01*
X77237185Y-112533023D01*
X77496557Y-112611057D01*
X77496564Y-112611058D01*
X77496569Y-112611060D01*
X77764561Y-112650500D01*
X77764566Y-112650500D01*
X77967636Y-112650500D01*
X78019133Y-112646730D01*
X78170156Y-112635677D01*
X78282758Y-112610593D01*
X78434546Y-112576782D01*
X78434548Y-112576781D01*
X78434553Y-112576780D01*
X78687558Y-112480014D01*
X78923777Y-112347441D01*
X79138177Y-112181888D01*
X79326186Y-111986881D01*
X79483799Y-111766579D01*
X79557787Y-111622669D01*
X79607649Y-111525690D01*
X79607651Y-111525684D01*
X79607656Y-111525675D01*
X79695118Y-111269305D01*
X79744319Y-111002933D01*
X79754212Y-110732235D01*
X79724586Y-110462982D01*
X79656072Y-110200912D01*
X79550130Y-109951610D01*
X79409018Y-109720390D01*
X79319747Y-109613119D01*
X79235746Y-109512180D01*
X79235740Y-109512175D01*
X79034002Y-109331418D01*
X78808092Y-109181957D01*
X78808090Y-109181956D01*
X78562824Y-109066980D01*
X78562819Y-109066978D01*
X78562814Y-109066976D01*
X78303442Y-108988942D01*
X78303428Y-108988939D01*
X78187791Y-108971921D01*
X78035439Y-108949500D01*
X77832369Y-108949500D01*
X77832364Y-108949500D01*
X77629844Y-108964323D01*
X77629831Y-108964325D01*
X77365453Y-109023217D01*
X77365446Y-109023220D01*
X77112439Y-109119987D01*
X76876226Y-109252557D01*
X76661822Y-109418112D01*
X76473822Y-109613109D01*
X76473816Y-109613116D01*
X76316202Y-109833419D01*
X76316199Y-109833424D01*
X76192350Y-110074309D01*
X76192343Y-110074327D01*
X76104884Y-110330685D01*
X76104881Y-110330699D01*
X76055681Y-110597068D01*
X76055680Y-110597075D01*
X76045787Y-110867763D01*
X48220500Y-110867763D01*
X48220500Y-103792870D01*
X54169500Y-103792870D01*
X54169501Y-103792876D01*
X54175908Y-103852483D01*
X54226202Y-103987328D01*
X54226206Y-103987335D01*
X54312452Y-104102544D01*
X54312455Y-104102547D01*
X54427664Y-104188793D01*
X54427671Y-104188797D01*
X54562517Y-104239091D01*
X54562516Y-104239091D01*
X54569444Y-104239835D01*
X54622127Y-104245500D01*
X56417872Y-104245499D01*
X56477483Y-104239091D01*
X56612331Y-104188796D01*
X56727546Y-104102546D01*
X56813796Y-103987331D01*
X56862810Y-103855916D01*
X56904681Y-103799984D01*
X56970145Y-103775566D01*
X57038418Y-103790417D01*
X57066673Y-103811569D01*
X57188599Y-103933495D01*
X57285384Y-104001265D01*
X57382165Y-104069032D01*
X57382167Y-104069033D01*
X57382170Y-104069035D01*
X57596337Y-104168903D01*
X57824592Y-104230063D01*
X58001034Y-104245500D01*
X58059999Y-104250659D01*
X58060000Y-104250659D01*
X58060001Y-104250659D01*
X58118966Y-104245500D01*
X58295408Y-104230063D01*
X58523663Y-104168903D01*
X58737830Y-104069035D01*
X58931401Y-103933495D01*
X59098495Y-103766401D01*
X59228730Y-103580405D01*
X59283307Y-103536781D01*
X59352805Y-103529587D01*
X59415160Y-103561110D01*
X59431879Y-103580405D01*
X59561890Y-103766078D01*
X59728917Y-103933105D01*
X59922421Y-104068600D01*
X60136507Y-104168429D01*
X60136516Y-104168433D01*
X60350000Y-104225634D01*
X60350000Y-103507301D01*
X60369685Y-103440262D01*
X60422489Y-103394507D01*
X60491647Y-103384563D01*
X60564237Y-103395000D01*
X60564238Y-103395000D01*
X60635762Y-103395000D01*
X60635763Y-103395000D01*
X60708352Y-103384563D01*
X60777510Y-103394507D01*
X60830314Y-103440261D01*
X60849999Y-103507301D01*
X60849999Y-104225633D01*
X61063483Y-104168433D01*
X61063492Y-104168429D01*
X61277578Y-104068600D01*
X61471082Y-103933105D01*
X61638105Y-103766082D01*
X61768119Y-103580405D01*
X61822696Y-103536781D01*
X61892195Y-103529588D01*
X61954549Y-103561110D01*
X61971269Y-103580405D01*
X62101505Y-103766401D01*
X62268599Y-103933495D01*
X62365384Y-104001265D01*
X62462165Y-104069032D01*
X62462167Y-104069033D01*
X62462170Y-104069035D01*
X62676337Y-104168903D01*
X62904592Y-104230063D01*
X63081034Y-104245500D01*
X63139999Y-104250659D01*
X63140000Y-104250659D01*
X63140001Y-104250659D01*
X63198966Y-104245500D01*
X63375408Y-104230063D01*
X63603663Y-104168903D01*
X63817830Y-104069035D01*
X64011401Y-103933495D01*
X64178495Y-103766401D01*
X64308426Y-103580841D01*
X64363002Y-103537217D01*
X64432500Y-103530023D01*
X64494855Y-103561546D01*
X64511575Y-103580842D01*
X64641500Y-103766395D01*
X64641505Y-103766401D01*
X64808599Y-103933495D01*
X64905384Y-104001265D01*
X65002165Y-104069032D01*
X65002167Y-104069033D01*
X65002170Y-104069035D01*
X65216337Y-104168903D01*
X65444592Y-104230063D01*
X65621034Y-104245500D01*
X65679999Y-104250659D01*
X65680000Y-104250659D01*
X65680001Y-104250659D01*
X65738966Y-104245500D01*
X65915408Y-104230063D01*
X66143663Y-104168903D01*
X66357830Y-104069035D01*
X66551401Y-103933495D01*
X66718495Y-103766401D01*
X66848426Y-103580841D01*
X66903002Y-103537217D01*
X66972500Y-103530023D01*
X67034855Y-103561546D01*
X67051575Y-103580842D01*
X67181500Y-103766395D01*
X67181505Y-103766401D01*
X67348599Y-103933495D01*
X67445384Y-104001265D01*
X67542165Y-104069032D01*
X67542167Y-104069033D01*
X67542170Y-104069035D01*
X67756337Y-104168903D01*
X67984592Y-104230063D01*
X68161034Y-104245500D01*
X68219999Y-104250659D01*
X68220000Y-104250659D01*
X68220001Y-104250659D01*
X68278966Y-104245500D01*
X68455408Y-104230063D01*
X68683663Y-104168903D01*
X68897830Y-104069035D01*
X69091401Y-103933495D01*
X69258495Y-103766401D01*
X69388426Y-103580841D01*
X69443002Y-103537217D01*
X69512500Y-103530023D01*
X69574855Y-103561546D01*
X69591575Y-103580842D01*
X69721500Y-103766395D01*
X69721505Y-103766401D01*
X69888599Y-103933495D01*
X69985384Y-104001265D01*
X70082165Y-104069032D01*
X70082167Y-104069033D01*
X70082170Y-104069035D01*
X70296337Y-104168903D01*
X70524592Y-104230063D01*
X70701034Y-104245500D01*
X70759999Y-104250659D01*
X70760000Y-104250659D01*
X70760001Y-104250659D01*
X70818966Y-104245500D01*
X70995408Y-104230063D01*
X71223663Y-104168903D01*
X71437830Y-104069035D01*
X71631401Y-103933495D01*
X71798495Y-103766401D01*
X71928426Y-103580841D01*
X71983002Y-103537217D01*
X72052500Y-103530023D01*
X72114855Y-103561546D01*
X72131575Y-103580842D01*
X72261500Y-103766395D01*
X72261505Y-103766401D01*
X72428599Y-103933495D01*
X72525384Y-104001265D01*
X72622165Y-104069032D01*
X72622167Y-104069033D01*
X72622170Y-104069035D01*
X72836337Y-104168903D01*
X73064592Y-104230063D01*
X73241034Y-104245500D01*
X73299999Y-104250659D01*
X73300000Y-104250659D01*
X73300001Y-104250659D01*
X73358966Y-104245500D01*
X73535408Y-104230063D01*
X73763663Y-104168903D01*
X73977830Y-104069035D01*
X74171401Y-103933495D01*
X74338495Y-103766401D01*
X74468426Y-103580841D01*
X74523002Y-103537217D01*
X74592500Y-103530023D01*
X74654855Y-103561546D01*
X74671575Y-103580842D01*
X74801500Y-103766395D01*
X74801505Y-103766401D01*
X74968599Y-103933495D01*
X75065384Y-104001265D01*
X75162165Y-104069032D01*
X75162167Y-104069033D01*
X75162170Y-104069035D01*
X75376337Y-104168903D01*
X75604592Y-104230063D01*
X75781034Y-104245500D01*
X75839999Y-104250659D01*
X75840000Y-104250659D01*
X75840001Y-104250659D01*
X75898966Y-104245500D01*
X76075408Y-104230063D01*
X76303663Y-104168903D01*
X76517830Y-104069035D01*
X76680048Y-103955448D01*
X76746252Y-103933121D01*
X76814019Y-103950131D01*
X76838851Y-103969342D01*
X77380797Y-104511288D01*
X77390622Y-104523551D01*
X77390843Y-104523369D01*
X77395814Y-104529378D01*
X77416643Y-104548937D01*
X77446235Y-104576726D01*
X77467129Y-104597620D01*
X77472611Y-104601873D01*
X77477043Y-104605657D01*
X77511018Y-104637562D01*
X77528576Y-104647214D01*
X77544835Y-104657895D01*
X77560664Y-104670173D01*
X77603438Y-104688682D01*
X77608656Y-104691238D01*
X77649508Y-104713697D01*
X77668916Y-104718680D01*
X77687317Y-104724980D01*
X77705704Y-104732937D01*
X77749088Y-104739808D01*
X77751719Y-104740225D01*
X77757439Y-104741409D01*
X77802581Y-104753000D01*
X77822616Y-104753000D01*
X77842014Y-104754526D01*
X77861794Y-104757659D01*
X77861795Y-104757660D01*
X77861795Y-104757659D01*
X77861796Y-104757660D01*
X77908183Y-104753275D01*
X77914022Y-104753000D01*
X78794157Y-104753000D01*
X78809777Y-104754724D01*
X78809804Y-104754439D01*
X78817560Y-104755171D01*
X78817567Y-104755173D01*
X78886714Y-104753000D01*
X78916250Y-104753000D01*
X78923128Y-104752130D01*
X78928941Y-104751672D01*
X78975527Y-104750209D01*
X78994769Y-104744617D01*
X79013812Y-104740674D01*
X79033692Y-104738164D01*
X79077022Y-104721007D01*
X79082546Y-104719117D01*
X79086296Y-104718027D01*
X79127290Y-104706118D01*
X79144529Y-104695922D01*
X79162003Y-104687362D01*
X79180627Y-104679988D01*
X79180627Y-104679987D01*
X79180632Y-104679986D01*
X79218349Y-104652582D01*
X79223205Y-104649392D01*
X79263320Y-104625670D01*
X79277489Y-104611499D01*
X79292279Y-104598868D01*
X79308487Y-104587094D01*
X79338199Y-104551176D01*
X79342112Y-104546876D01*
X79920266Y-103968722D01*
X79981587Y-103935239D01*
X80051279Y-103940223D01*
X80079068Y-103954830D01*
X80242165Y-104069032D01*
X80242167Y-104069033D01*
X80242170Y-104069035D01*
X80456337Y-104168903D01*
X80684592Y-104230063D01*
X80861034Y-104245500D01*
X80919999Y-104250659D01*
X80920000Y-104250659D01*
X80920001Y-104250659D01*
X80978966Y-104245500D01*
X81155408Y-104230063D01*
X81383663Y-104168903D01*
X81597830Y-104069035D01*
X81791401Y-103933495D01*
X81958495Y-103766401D01*
X82088426Y-103580841D01*
X82143002Y-103537217D01*
X82212500Y-103530023D01*
X82274855Y-103561546D01*
X82291575Y-103580842D01*
X82421500Y-103766395D01*
X82421505Y-103766401D01*
X82588599Y-103933495D01*
X82685384Y-104001265D01*
X82782165Y-104069032D01*
X82782167Y-104069033D01*
X82782170Y-104069035D01*
X82996337Y-104168903D01*
X83224592Y-104230063D01*
X83401034Y-104245500D01*
X83459999Y-104250659D01*
X83460000Y-104250659D01*
X83460001Y-104250659D01*
X83518966Y-104245500D01*
X83695408Y-104230063D01*
X83923663Y-104168903D01*
X84137830Y-104069035D01*
X84331401Y-103933495D01*
X84498495Y-103766401D01*
X84628426Y-103580841D01*
X84683002Y-103537217D01*
X84752500Y-103530023D01*
X84814855Y-103561546D01*
X84831575Y-103580842D01*
X84961500Y-103766395D01*
X84961505Y-103766401D01*
X85128599Y-103933495D01*
X85225384Y-104001265D01*
X85322165Y-104069032D01*
X85322167Y-104069033D01*
X85322170Y-104069035D01*
X85536337Y-104168903D01*
X85764592Y-104230063D01*
X85941034Y-104245500D01*
X85999999Y-104250659D01*
X86000000Y-104250659D01*
X86000001Y-104250659D01*
X86058966Y-104245500D01*
X86235408Y-104230063D01*
X86463663Y-104168903D01*
X86677830Y-104069035D01*
X86871401Y-103933495D01*
X87038495Y-103766401D01*
X87168426Y-103580841D01*
X87223002Y-103537217D01*
X87292500Y-103530023D01*
X87354855Y-103561546D01*
X87371575Y-103580842D01*
X87501500Y-103766395D01*
X87501505Y-103766401D01*
X87668599Y-103933495D01*
X87765384Y-104001264D01*
X87862165Y-104069032D01*
X87862167Y-104069033D01*
X87862170Y-104069035D01*
X88076337Y-104168903D01*
X88304592Y-104230063D01*
X88481034Y-104245500D01*
X88539999Y-104250659D01*
X88540000Y-104250659D01*
X88540001Y-104250659D01*
X88598966Y-104245500D01*
X88775408Y-104230063D01*
X89003663Y-104168903D01*
X89217830Y-104069035D01*
X89411401Y-103933495D01*
X89578495Y-103766401D01*
X89708426Y-103580840D01*
X89763001Y-103537217D01*
X89832499Y-103530023D01*
X89894854Y-103561546D01*
X89911574Y-103580841D01*
X90041505Y-103766401D01*
X90208599Y-103933495D01*
X90305384Y-104001264D01*
X90402165Y-104069032D01*
X90402167Y-104069033D01*
X90402170Y-104069035D01*
X90616337Y-104168903D01*
X90844592Y-104230063D01*
X91021034Y-104245500D01*
X91079999Y-104250659D01*
X91080000Y-104250659D01*
X91080001Y-104250659D01*
X91138966Y-104245500D01*
X91315408Y-104230063D01*
X91543663Y-104168903D01*
X91757830Y-104069035D01*
X91920048Y-103955448D01*
X91986252Y-103933121D01*
X92054019Y-103950131D01*
X92078851Y-103969342D01*
X92571597Y-104462088D01*
X92581422Y-104474351D01*
X92581643Y-104474169D01*
X92586614Y-104480178D01*
X92607443Y-104499737D01*
X92637035Y-104527526D01*
X92657929Y-104548420D01*
X92663411Y-104552673D01*
X92667843Y-104556457D01*
X92701818Y-104588362D01*
X92719376Y-104598014D01*
X92735635Y-104608695D01*
X92751464Y-104620973D01*
X92794238Y-104639482D01*
X92799456Y-104642038D01*
X92840308Y-104664497D01*
X92859716Y-104669480D01*
X92878117Y-104675780D01*
X92896504Y-104683737D01*
X92939888Y-104690608D01*
X92942519Y-104691025D01*
X92948239Y-104692209D01*
X92993381Y-104703800D01*
X93013416Y-104703800D01*
X93032814Y-104705326D01*
X93052594Y-104708459D01*
X93052595Y-104708460D01*
X93052595Y-104708459D01*
X93052596Y-104708460D01*
X93098983Y-104704075D01*
X93104822Y-104703800D01*
X94068257Y-104703800D01*
X94083877Y-104705524D01*
X94083904Y-104705239D01*
X94091660Y-104705971D01*
X94091667Y-104705973D01*
X94160814Y-104703800D01*
X94190350Y-104703800D01*
X94197228Y-104702930D01*
X94203041Y-104702472D01*
X94249627Y-104701009D01*
X94268869Y-104695417D01*
X94287912Y-104691474D01*
X94307792Y-104688964D01*
X94351122Y-104671807D01*
X94356646Y-104669917D01*
X94360396Y-104668827D01*
X94401390Y-104656918D01*
X94418629Y-104646722D01*
X94436103Y-104638162D01*
X94454727Y-104630788D01*
X94454727Y-104630787D01*
X94454732Y-104630786D01*
X94492449Y-104603382D01*
X94497305Y-104600192D01*
X94537420Y-104576470D01*
X94551589Y-104562299D01*
X94566379Y-104549668D01*
X94582587Y-104537894D01*
X94612299Y-104501976D01*
X94616212Y-104497676D01*
X95151384Y-103962504D01*
X95212706Y-103929021D01*
X95282398Y-103934005D01*
X95310187Y-103948612D01*
X95482165Y-104069032D01*
X95482167Y-104069033D01*
X95482170Y-104069035D01*
X95696337Y-104168903D01*
X95924592Y-104230063D01*
X96101034Y-104245500D01*
X96159999Y-104250659D01*
X96160000Y-104250659D01*
X96160001Y-104250659D01*
X96218966Y-104245500D01*
X96395408Y-104230063D01*
X96623663Y-104168903D01*
X96837830Y-104069035D01*
X97031401Y-103933495D01*
X97198495Y-103766401D01*
X97328426Y-103580841D01*
X97383002Y-103537217D01*
X97452500Y-103530023D01*
X97514855Y-103561546D01*
X97531575Y-103580842D01*
X97661500Y-103766395D01*
X97661505Y-103766401D01*
X97828599Y-103933495D01*
X97925384Y-104001264D01*
X98022165Y-104069032D01*
X98022167Y-104069033D01*
X98022170Y-104069035D01*
X98236337Y-104168903D01*
X98464592Y-104230063D01*
X98641034Y-104245500D01*
X98699999Y-104250659D01*
X98700000Y-104250659D01*
X98700001Y-104250659D01*
X98758966Y-104245500D01*
X98935408Y-104230063D01*
X99163663Y-104168903D01*
X99377830Y-104069035D01*
X99571401Y-103933495D01*
X99738495Y-103766401D01*
X99868426Y-103580840D01*
X99923001Y-103537217D01*
X99992499Y-103530023D01*
X100054854Y-103561546D01*
X100071574Y-103580841D01*
X100201505Y-103766401D01*
X100368599Y-103933495D01*
X100465384Y-104001264D01*
X100562165Y-104069032D01*
X100562167Y-104069033D01*
X100562170Y-104069035D01*
X100776337Y-104168903D01*
X101004592Y-104230063D01*
X101181034Y-104245500D01*
X101239999Y-104250659D01*
X101240000Y-104250659D01*
X101240001Y-104250659D01*
X101298966Y-104245500D01*
X101475408Y-104230063D01*
X101703663Y-104168903D01*
X101917830Y-104069035D01*
X102111401Y-103933495D01*
X102278495Y-103766401D01*
X102408426Y-103580841D01*
X102463002Y-103537217D01*
X102532500Y-103530023D01*
X102594855Y-103561546D01*
X102611575Y-103580842D01*
X102741500Y-103766395D01*
X102741505Y-103766401D01*
X102908599Y-103933495D01*
X103005384Y-104001264D01*
X103102165Y-104069032D01*
X103102167Y-104069033D01*
X103102170Y-104069035D01*
X103316337Y-104168903D01*
X103544592Y-104230063D01*
X103721034Y-104245500D01*
X103779999Y-104250659D01*
X103780000Y-104250659D01*
X103780001Y-104250659D01*
X103838966Y-104245500D01*
X104015408Y-104230063D01*
X104243663Y-104168903D01*
X104457830Y-104069035D01*
X104651401Y-103933495D01*
X104818495Y-103766401D01*
X104954035Y-103572830D01*
X105053903Y-103358663D01*
X105115063Y-103130408D01*
X105135659Y-102895000D01*
X105115063Y-102659592D01*
X105053903Y-102431337D01*
X104954035Y-102217171D01*
X104948731Y-102209595D01*
X104818494Y-102023597D01*
X104651402Y-101856506D01*
X104651395Y-101856501D01*
X104457834Y-101720967D01*
X104457830Y-101720965D01*
X104454474Y-101719400D01*
X104243663Y-101621097D01*
X104243659Y-101621096D01*
X104243655Y-101621094D01*
X104015413Y-101559938D01*
X104015403Y-101559936D01*
X103780001Y-101539341D01*
X103779999Y-101539341D01*
X103544596Y-101559936D01*
X103544586Y-101559938D01*
X103316344Y-101621094D01*
X103316335Y-101621098D01*
X103102171Y-101720964D01*
X103102169Y-101720965D01*
X102908597Y-101856505D01*
X102741505Y-102023597D01*
X102611575Y-102209158D01*
X102556998Y-102252783D01*
X102487500Y-102259977D01*
X102425145Y-102228454D01*
X102408425Y-102209158D01*
X102278494Y-102023597D01*
X102111402Y-101856506D01*
X102111395Y-101856501D01*
X101917834Y-101720967D01*
X101917830Y-101720965D01*
X101914474Y-101719400D01*
X101703663Y-101621097D01*
X101703659Y-101621096D01*
X101703655Y-101621094D01*
X101475413Y-101559938D01*
X101475403Y-101559936D01*
X101240001Y-101539341D01*
X101239999Y-101539341D01*
X101004596Y-101559936D01*
X101004586Y-101559938D01*
X100776344Y-101621094D01*
X100776335Y-101621098D01*
X100562171Y-101720964D01*
X100562169Y-101720965D01*
X100368597Y-101856505D01*
X100201508Y-102023594D01*
X100071574Y-102209159D01*
X100016997Y-102252784D01*
X99947498Y-102259976D01*
X99885144Y-102228454D01*
X99868424Y-102209158D01*
X99738494Y-102023597D01*
X99571402Y-101856506D01*
X99571395Y-101856501D01*
X99377834Y-101720967D01*
X99377830Y-101720965D01*
X99374474Y-101719400D01*
X99163663Y-101621097D01*
X99163659Y-101621096D01*
X99163655Y-101621094D01*
X98935413Y-101559938D01*
X98935403Y-101559936D01*
X98700001Y-101539341D01*
X98699999Y-101539341D01*
X98464596Y-101559936D01*
X98464586Y-101559938D01*
X98236344Y-101621094D01*
X98236335Y-101621098D01*
X98022171Y-101720964D01*
X98022169Y-101720965D01*
X97828597Y-101856505D01*
X97661505Y-102023597D01*
X97531575Y-102209158D01*
X97476998Y-102252783D01*
X97407500Y-102259977D01*
X97345145Y-102228454D01*
X97328425Y-102209158D01*
X97198494Y-102023597D01*
X97031402Y-101856506D01*
X97031395Y-101856501D01*
X96837834Y-101720967D01*
X96837830Y-101720965D01*
X96834474Y-101719400D01*
X96623663Y-101621097D01*
X96623659Y-101621096D01*
X96623655Y-101621094D01*
X96395413Y-101559938D01*
X96395403Y-101559936D01*
X96260074Y-101548096D01*
X96195005Y-101522643D01*
X96154027Y-101466052D01*
X96150149Y-101396290D01*
X96183199Y-101336889D01*
X102820688Y-94699401D01*
X102832942Y-94689586D01*
X102832759Y-94689364D01*
X102838766Y-94684392D01*
X102838777Y-94684386D01*
X102869675Y-94651482D01*
X102886127Y-94633964D01*
X102896571Y-94623518D01*
X102907020Y-94613071D01*
X102911279Y-94607578D01*
X102915052Y-94603161D01*
X102946962Y-94569182D01*
X102956613Y-94551624D01*
X102967296Y-94535361D01*
X102979573Y-94519536D01*
X102998085Y-94476753D01*
X103000638Y-94471541D01*
X103023097Y-94430692D01*
X103028080Y-94411280D01*
X103034381Y-94392880D01*
X103042337Y-94374496D01*
X103049629Y-94328452D01*
X103050806Y-94322771D01*
X103062400Y-94277619D01*
X103062400Y-94257582D01*
X103063927Y-94238182D01*
X103067060Y-94218404D01*
X103062675Y-94172015D01*
X103062400Y-94166177D01*
X103062400Y-86440131D01*
X103082085Y-86373092D01*
X103134889Y-86327337D01*
X103204047Y-86317393D01*
X103238804Y-86327748D01*
X103316337Y-86363903D01*
X103316343Y-86363904D01*
X103316344Y-86363905D01*
X103350631Y-86373092D01*
X103544592Y-86425063D01*
X103721034Y-86440500D01*
X103779999Y-86445659D01*
X103780000Y-86445659D01*
X103780001Y-86445659D01*
X103838966Y-86440500D01*
X104015408Y-86425063D01*
X104243663Y-86363903D01*
X104457830Y-86264035D01*
X104651401Y-86128495D01*
X104818495Y-85961401D01*
X104954035Y-85767830D01*
X105053903Y-85553663D01*
X105115063Y-85325408D01*
X105135659Y-85090000D01*
X105115063Y-84854592D01*
X105053903Y-84626337D01*
X104954035Y-84412171D01*
X104953405Y-84411270D01*
X104818494Y-84218597D01*
X104651402Y-84051506D01*
X104651395Y-84051501D01*
X104457834Y-83915967D01*
X104457830Y-83915965D01*
X104424498Y-83900422D01*
X104243663Y-83816097D01*
X104243659Y-83816096D01*
X104243655Y-83816094D01*
X104015413Y-83754938D01*
X104015403Y-83754936D01*
X103780001Y-83734341D01*
X103779999Y-83734341D01*
X103544596Y-83754936D01*
X103544586Y-83754938D01*
X103316344Y-83816094D01*
X103316337Y-83816096D01*
X103316337Y-83816097D01*
X103277466Y-83834223D01*
X103238805Y-83852251D01*
X103169727Y-83862743D01*
X103105943Y-83834223D01*
X103067704Y-83775747D01*
X103062400Y-83739869D01*
X103062400Y-73089937D01*
X103064123Y-73074320D01*
X103063838Y-73074293D01*
X103064572Y-73066531D01*
X103062400Y-72997403D01*
X103062400Y-72967851D01*
X103062400Y-72967850D01*
X103061529Y-72960959D01*
X103061072Y-72955145D01*
X103060884Y-72949171D01*
X103059609Y-72908573D01*
X103055315Y-72893796D01*
X103054022Y-72889344D01*
X103050074Y-72870284D01*
X103047564Y-72850408D01*
X103030407Y-72807075D01*
X103028519Y-72801559D01*
X103015519Y-72756812D01*
X103005318Y-72739563D01*
X102996760Y-72722094D01*
X102989386Y-72703468D01*
X102989383Y-72703464D01*
X102989383Y-72703463D01*
X102961998Y-72665771D01*
X102958790Y-72660887D01*
X102935072Y-72620782D01*
X102935063Y-72620771D01*
X102920905Y-72606613D01*
X102908270Y-72591820D01*
X102896493Y-72575612D01*
X102860593Y-72545913D01*
X102856281Y-72541990D01*
X99897002Y-69582712D01*
X99887180Y-69570450D01*
X99886959Y-69570634D01*
X99881986Y-69564623D01*
X99873436Y-69556594D01*
X99831564Y-69517273D01*
X99821119Y-69506828D01*
X99810675Y-69496383D01*
X99805186Y-69492125D01*
X99800761Y-69488347D01*
X99766782Y-69456438D01*
X99766780Y-69456436D01*
X99766777Y-69456435D01*
X99749229Y-69446788D01*
X99732963Y-69436104D01*
X99731469Y-69434945D01*
X99717136Y-69423827D01*
X99717135Y-69423826D01*
X99717133Y-69423825D01*
X99674368Y-69405318D01*
X99669122Y-69402748D01*
X99628293Y-69380303D01*
X99628292Y-69380302D01*
X99608893Y-69375322D01*
X99590481Y-69369018D01*
X99572098Y-69361062D01*
X99572092Y-69361060D01*
X99526074Y-69353772D01*
X99520352Y-69352587D01*
X99475221Y-69341000D01*
X99475219Y-69341000D01*
X99455184Y-69341000D01*
X99435786Y-69339473D01*
X99428362Y-69338297D01*
X99416005Y-69336340D01*
X99416004Y-69336340D01*
X99369616Y-69340725D01*
X99363778Y-69341000D01*
X93839343Y-69341000D01*
X93823722Y-69339275D01*
X93823695Y-69339561D01*
X93815933Y-69338826D01*
X93746772Y-69341000D01*
X93717249Y-69341000D01*
X93710378Y-69341867D01*
X93704559Y-69342325D01*
X93657974Y-69343789D01*
X93657968Y-69343790D01*
X93638726Y-69349380D01*
X93619687Y-69353323D01*
X93599817Y-69355834D01*
X93599803Y-69355837D01*
X93556483Y-69372988D01*
X93550958Y-69374880D01*
X93506213Y-69387880D01*
X93506210Y-69387881D01*
X93488966Y-69398079D01*
X93471505Y-69406633D01*
X93452874Y-69414010D01*
X93452862Y-69414017D01*
X93415170Y-69441402D01*
X93410287Y-69444609D01*
X93370180Y-69468329D01*
X93356014Y-69482495D01*
X93341224Y-69495127D01*
X93325014Y-69506904D01*
X93325011Y-69506907D01*
X93295310Y-69542809D01*
X93291377Y-69547131D01*
X91391208Y-71447299D01*
X91378951Y-71457120D01*
X91379134Y-71457341D01*
X91373123Y-71462313D01*
X91325772Y-71512736D01*
X91304889Y-71533619D01*
X91304877Y-71533632D01*
X91300621Y-71539117D01*
X91296837Y-71543547D01*
X91264937Y-71577518D01*
X91264936Y-71577520D01*
X91255284Y-71595076D01*
X91244610Y-71611326D01*
X91232329Y-71627161D01*
X91232324Y-71627168D01*
X91213815Y-71669938D01*
X91211245Y-71675184D01*
X91188803Y-71716006D01*
X91183822Y-71735407D01*
X91177521Y-71753810D01*
X91169562Y-71772202D01*
X91169561Y-71772205D01*
X91164858Y-71801897D01*
X91134926Y-71865031D01*
X91075614Y-71901960D01*
X91005751Y-71900960D01*
X90983932Y-71891853D01*
X90903190Y-71848695D01*
X90707991Y-71789482D01*
X90505000Y-71769490D01*
X90302008Y-71789482D01*
X90106809Y-71848695D01*
X89928453Y-71944029D01*
X89860050Y-71958271D01*
X89811547Y-71944029D01*
X89633190Y-71848695D01*
X89437991Y-71789482D01*
X89257176Y-71771674D01*
X89235000Y-71769490D01*
X89234999Y-71769490D01*
X89032008Y-71789482D01*
X88836809Y-71848695D01*
X88656929Y-71944844D01*
X88499247Y-72074247D01*
X88369844Y-72231929D01*
X88273695Y-72411809D01*
X88214482Y-72607008D01*
X88206079Y-72692331D01*
X88199500Y-72759132D01*
X88199500Y-73590868D01*
X88205319Y-73649946D01*
X88192300Y-73718592D01*
X88144235Y-73769302D01*
X88081916Y-73786100D01*
X86921177Y-73786100D01*
X86854138Y-73766415D01*
X86829027Y-73745072D01*
X86759376Y-73667716D01*
X86759369Y-73667710D01*
X86606234Y-73556451D01*
X86606229Y-73556448D01*
X86433307Y-73479457D01*
X86433302Y-73479455D01*
X86287500Y-73448465D01*
X86248146Y-73440100D01*
X86058854Y-73440100D01*
X86026397Y-73446998D01*
X85873697Y-73479455D01*
X85873692Y-73479457D01*
X85700770Y-73556448D01*
X85700765Y-73556451D01*
X85566685Y-73653866D01*
X85500878Y-73677346D01*
X85432825Y-73661520D01*
X85384130Y-73611414D01*
X85369800Y-73553548D01*
X85369800Y-68067437D01*
X85371524Y-68051823D01*
X85371238Y-68051796D01*
X85371972Y-68044033D01*
X85369800Y-67974903D01*
X85369800Y-67945351D01*
X85369800Y-67945350D01*
X85368929Y-67938459D01*
X85368472Y-67932645D01*
X85367009Y-67886072D01*
X85361422Y-67866844D01*
X85357474Y-67847784D01*
X85355787Y-67834428D01*
X85354964Y-67827908D01*
X85337807Y-67784575D01*
X85335919Y-67779059D01*
X85322919Y-67734312D01*
X85321320Y-67731609D01*
X85312718Y-67717063D01*
X85304160Y-67699594D01*
X85296786Y-67680968D01*
X85296783Y-67680964D01*
X85296783Y-67680963D01*
X85269398Y-67643271D01*
X85266190Y-67638387D01*
X85242472Y-67598282D01*
X85242463Y-67598271D01*
X85228305Y-67584113D01*
X85215670Y-67569320D01*
X85203893Y-67553112D01*
X85167993Y-67523413D01*
X85163681Y-67519490D01*
X83818936Y-66174745D01*
X83785451Y-66113422D01*
X83783296Y-66100024D01*
X83769855Y-65972135D01*
X83768774Y-65961844D01*
X83710279Y-65781816D01*
X83615633Y-65617884D01*
X83488971Y-65477212D01*
X83447403Y-65447011D01*
X83335834Y-65365951D01*
X83335829Y-65365948D01*
X83162907Y-65288957D01*
X83162902Y-65288955D01*
X83017100Y-65257965D01*
X82977746Y-65249600D01*
X82905600Y-65249600D01*
X82838561Y-65229915D01*
X82792806Y-65177111D01*
X82781600Y-65125600D01*
X82781600Y-64756651D01*
X82801285Y-64689612D01*
X82817915Y-64668974D01*
X83055685Y-64431203D01*
X83067941Y-64421387D01*
X83067758Y-64421165D01*
X83073775Y-64416187D01*
X83073774Y-64416187D01*
X83073777Y-64416186D01*
X83117619Y-64369499D01*
X83121127Y-64365764D01*
X83131571Y-64355318D01*
X83142020Y-64344871D01*
X83146279Y-64339378D01*
X83150052Y-64334961D01*
X83181962Y-64300982D01*
X83191613Y-64283424D01*
X83202296Y-64267161D01*
X83214573Y-64251336D01*
X83233085Y-64208553D01*
X83235638Y-64203341D01*
X83258097Y-64162492D01*
X83258100Y-64162477D01*
X83258366Y-64161810D01*
X83258724Y-64161350D01*
X83261857Y-64155653D01*
X83262775Y-64156158D01*
X83301345Y-64106723D01*
X83367283Y-64083616D01*
X83435246Y-64099826D01*
X83472927Y-64133141D01*
X83487452Y-64152544D01*
X83487455Y-64152547D01*
X83602664Y-64238793D01*
X83602671Y-64238797D01*
X83737517Y-64289091D01*
X83737516Y-64289091D01*
X83744444Y-64289835D01*
X83797127Y-64295500D01*
X85392872Y-64295499D01*
X85452483Y-64289091D01*
X85587331Y-64238796D01*
X85702546Y-64152546D01*
X85788796Y-64037331D01*
X85839091Y-63902483D01*
X85845500Y-63842873D01*
X85845499Y-61769507D01*
X85865184Y-61702469D01*
X85917987Y-61656714D01*
X85987146Y-61646770D01*
X86015664Y-61656311D01*
X86016253Y-61654824D01*
X86023505Y-61657695D01*
X86023508Y-61657697D01*
X86042916Y-61662680D01*
X86061317Y-61668980D01*
X86079704Y-61676937D01*
X86123088Y-61683808D01*
X86125719Y-61684225D01*
X86131439Y-61685409D01*
X86176581Y-61697000D01*
X86196616Y-61697000D01*
X86216014Y-61698526D01*
X86235794Y-61701659D01*
X86235795Y-61701660D01*
X86235795Y-61701659D01*
X86235796Y-61701660D01*
X86282183Y-61697275D01*
X86288022Y-61697000D01*
X96991457Y-61697000D01*
X97007077Y-61698724D01*
X97007104Y-61698439D01*
X97014860Y-61699171D01*
X97014867Y-61699173D01*
X97084014Y-61697000D01*
X97113550Y-61697000D01*
X97120428Y-61696130D01*
X97126241Y-61695672D01*
X97172827Y-61694209D01*
X97192069Y-61688617D01*
X97211112Y-61684674D01*
X97230992Y-61682164D01*
X97274322Y-61665007D01*
X97279846Y-61663117D01*
X97283596Y-61662027D01*
X97324590Y-61650118D01*
X97341829Y-61639922D01*
X97359303Y-61631362D01*
X97377927Y-61623988D01*
X97377927Y-61623987D01*
X97377932Y-61623986D01*
X97415649Y-61596582D01*
X97420505Y-61593392D01*
X97460620Y-61569670D01*
X97474789Y-61555499D01*
X97489579Y-61542868D01*
X97505787Y-61531094D01*
X97535499Y-61495176D01*
X97539412Y-61490876D01*
X100180688Y-58849601D01*
X100192942Y-58839786D01*
X100192759Y-58839564D01*
X100198766Y-58834592D01*
X100198777Y-58834586D01*
X100229675Y-58801682D01*
X100246127Y-58784164D01*
X100256571Y-58773718D01*
X100267020Y-58763271D01*
X100271279Y-58757778D01*
X100275052Y-58753361D01*
X100306962Y-58719382D01*
X100316613Y-58701824D01*
X100327296Y-58685561D01*
X100339573Y-58669736D01*
X100358085Y-58626953D01*
X100360638Y-58621741D01*
X100383097Y-58580892D01*
X100388080Y-58561480D01*
X100394381Y-58543080D01*
X100402337Y-58524696D01*
X100409629Y-58478652D01*
X100410806Y-58472971D01*
X100422400Y-58427819D01*
X100422400Y-58407782D01*
X100423927Y-58388382D01*
X100427060Y-58368604D01*
X100422675Y-58322215D01*
X100422400Y-58316377D01*
X100422400Y-47022737D01*
X100424124Y-47007123D01*
X100423838Y-47007096D01*
X100424572Y-46999333D01*
X100422400Y-46930203D01*
X100422400Y-46900651D01*
X100422400Y-46900650D01*
X100421529Y-46893759D01*
X100421072Y-46887945D01*
X100420929Y-46883392D01*
X100419609Y-46841373D01*
X100414021Y-46822139D01*
X100410074Y-46803081D01*
X100407564Y-46783208D01*
X100401959Y-46769052D01*
X100390407Y-46739875D01*
X100388514Y-46734346D01*
X100376938Y-46694500D01*
X100375517Y-46689610D01*
X100365320Y-46672368D01*
X100356763Y-46654902D01*
X100349386Y-46636268D01*
X100321983Y-46598550D01*
X100318800Y-46593705D01*
X100295070Y-46553579D01*
X100295065Y-46553573D01*
X100280905Y-46539413D01*
X100268270Y-46524620D01*
X100256493Y-46508412D01*
X100220593Y-46478713D01*
X100216281Y-46474790D01*
X100150003Y-46408512D01*
X100140180Y-46396250D01*
X100139959Y-46396434D01*
X100134986Y-46390423D01*
X100120822Y-46377122D01*
X100084564Y-46343073D01*
X100070468Y-46328977D01*
X100063675Y-46322183D01*
X100058186Y-46317925D01*
X100053761Y-46314147D01*
X100019782Y-46282238D01*
X100019780Y-46282236D01*
X100019777Y-46282235D01*
X100002229Y-46272588D01*
X99985963Y-46261904D01*
X99970133Y-46249625D01*
X99927368Y-46231118D01*
X99922122Y-46228548D01*
X99881293Y-46206103D01*
X99881292Y-46206102D01*
X99861893Y-46201122D01*
X99843481Y-46194818D01*
X99825098Y-46186862D01*
X99825092Y-46186860D01*
X99779074Y-46179572D01*
X99773352Y-46178387D01*
X99728221Y-46166800D01*
X99728219Y-46166800D01*
X99708184Y-46166800D01*
X99688786Y-46165273D01*
X99681362Y-46164097D01*
X99669005Y-46162140D01*
X99669004Y-46162140D01*
X99622616Y-46166525D01*
X99616778Y-46166800D01*
X96469500Y-46166800D01*
X96402461Y-46147115D01*
X96356706Y-46094311D01*
X96345500Y-46042800D01*
X96345500Y-44311238D01*
X96347224Y-44295624D01*
X96346938Y-44295597D01*
X96347672Y-44287834D01*
X96345500Y-44218703D01*
X96345500Y-44189151D01*
X96345500Y-44189150D01*
X96344629Y-44182259D01*
X96344172Y-44176445D01*
X96342709Y-44129872D01*
X96337122Y-44110644D01*
X96333174Y-44091584D01*
X96332684Y-44087704D01*
X96330664Y-44071708D01*
X96313507Y-44028375D01*
X96311619Y-44022859D01*
X96298619Y-43978112D01*
X96288418Y-43960863D01*
X96279860Y-43943394D01*
X96272486Y-43924768D01*
X96272483Y-43924764D01*
X96272483Y-43924763D01*
X96245098Y-43887071D01*
X96241890Y-43882187D01*
X96218172Y-43842082D01*
X96218163Y-43842071D01*
X96204005Y-43827913D01*
X96191370Y-43813120D01*
X96179593Y-43796912D01*
X96143693Y-43767213D01*
X96139381Y-43763290D01*
X90794003Y-38417912D01*
X90784180Y-38405650D01*
X90783959Y-38405834D01*
X90778986Y-38399823D01*
X90760359Y-38382331D01*
X90728564Y-38352473D01*
X90718119Y-38342028D01*
X90707675Y-38331583D01*
X90702186Y-38327325D01*
X90697761Y-38323547D01*
X90663782Y-38291638D01*
X90663780Y-38291636D01*
X90663777Y-38291635D01*
X90646229Y-38281988D01*
X90629963Y-38271304D01*
X90614133Y-38259025D01*
X90571368Y-38240518D01*
X90566122Y-38237948D01*
X90525293Y-38215503D01*
X90525292Y-38215502D01*
X90505893Y-38210522D01*
X90487481Y-38204218D01*
X90469098Y-38196262D01*
X90469092Y-38196260D01*
X90423074Y-38188972D01*
X90417352Y-38187787D01*
X90372221Y-38176200D01*
X90372219Y-38176200D01*
X90352184Y-38176200D01*
X90332786Y-38174673D01*
X90325362Y-38173497D01*
X90313005Y-38171540D01*
X90313004Y-38171540D01*
X90266616Y-38175925D01*
X90260778Y-38176200D01*
X78524837Y-38176200D01*
X78509220Y-38174476D01*
X78509193Y-38174762D01*
X78501431Y-38174027D01*
X78432303Y-38176200D01*
X78402750Y-38176200D01*
X78402029Y-38176290D01*
X78395857Y-38177069D01*
X78390045Y-38177526D01*
X78343478Y-38178990D01*
X78343467Y-38178992D01*
X78324234Y-38184579D01*
X78305194Y-38188522D01*
X78285317Y-38191034D01*
X78285310Y-38191035D01*
X78285308Y-38191036D01*
X78285306Y-38191036D01*
X78285305Y-38191037D01*
X78241968Y-38208194D01*
X78236442Y-38210086D01*
X78191711Y-38223082D01*
X78191708Y-38223083D01*
X78174463Y-38233281D01*
X78157001Y-38241835D01*
X78138372Y-38249211D01*
X78138367Y-38249213D01*
X78100664Y-38276606D01*
X78095782Y-38279812D01*
X78055680Y-38303528D01*
X78041508Y-38317700D01*
X78026723Y-38330328D01*
X78010512Y-38342107D01*
X77980809Y-38378010D01*
X77976877Y-38382331D01*
X77593101Y-38766106D01*
X77531778Y-38799591D01*
X77462086Y-38794607D01*
X77431110Y-38777692D01*
X77362331Y-38726204D01*
X77362328Y-38726202D01*
X77227482Y-38675908D01*
X77227483Y-38675908D01*
X77167883Y-38669501D01*
X77167881Y-38669500D01*
X77167873Y-38669500D01*
X77167864Y-38669500D01*
X75572129Y-38669500D01*
X75572123Y-38669501D01*
X75512516Y-38675908D01*
X75377671Y-38726202D01*
X75377664Y-38726206D01*
X75262455Y-38812452D01*
X75262452Y-38812455D01*
X75176206Y-38927664D01*
X75176202Y-38927671D01*
X75125908Y-39062517D01*
X75119501Y-39122116D01*
X75119500Y-39122135D01*
X75119500Y-39270500D01*
X75099815Y-39337539D01*
X75047011Y-39383294D01*
X74995500Y-39394500D01*
X73447129Y-39394500D01*
X73447123Y-39394501D01*
X73387513Y-39400909D01*
X73380303Y-39402613D01*
X73310533Y-39398872D01*
X73264108Y-39369617D01*
X73039103Y-39144612D01*
X73029280Y-39132350D01*
X73029059Y-39132534D01*
X73024086Y-39126523D01*
X73005459Y-39109031D01*
X72973664Y-39079173D01*
X72963219Y-39068728D01*
X72952775Y-39058283D01*
X72947286Y-39054025D01*
X72942861Y-39050247D01*
X72908882Y-39018338D01*
X72908880Y-39018336D01*
X72908877Y-39018335D01*
X72891329Y-39008688D01*
X72875063Y-38998004D01*
X72859233Y-38985725D01*
X72816468Y-38967218D01*
X72811222Y-38964648D01*
X72770393Y-38942203D01*
X72770392Y-38942202D01*
X72750993Y-38937222D01*
X72732581Y-38930918D01*
X72714198Y-38922962D01*
X72714192Y-38922960D01*
X72668174Y-38915672D01*
X72662452Y-38914487D01*
X72617321Y-38902900D01*
X72617319Y-38902900D01*
X72597284Y-38902900D01*
X72577886Y-38901373D01*
X72570462Y-38900197D01*
X72558105Y-38898240D01*
X72558104Y-38898240D01*
X72511716Y-38902625D01*
X72505878Y-38902900D01*
X63026337Y-38902900D01*
X63010720Y-38901176D01*
X63010693Y-38901462D01*
X63002931Y-38900727D01*
X62933803Y-38902900D01*
X62904250Y-38902900D01*
X62903529Y-38902990D01*
X62897357Y-38903769D01*
X62891545Y-38904226D01*
X62844972Y-38905690D01*
X62844969Y-38905691D01*
X62825726Y-38911281D01*
X62806683Y-38915225D01*
X62786804Y-38917736D01*
X62786803Y-38917737D01*
X62743478Y-38934890D01*
X62737952Y-38936782D01*
X62693208Y-38949783D01*
X62693204Y-38949785D01*
X62675965Y-38959980D01*
X62658498Y-38968537D01*
X62639869Y-38975912D01*
X62639867Y-38975913D01*
X62602164Y-39003306D01*
X62597282Y-39006512D01*
X62557180Y-39030228D01*
X62543008Y-39044400D01*
X62528223Y-39057028D01*
X62512012Y-39068807D01*
X62482309Y-39104710D01*
X62478377Y-39109031D01*
X55234308Y-46353099D01*
X55222051Y-46362920D01*
X55222234Y-46363141D01*
X55216223Y-46368113D01*
X55168872Y-46418536D01*
X55147989Y-46439419D01*
X55147977Y-46439432D01*
X55143721Y-46444917D01*
X55139937Y-46449347D01*
X55108037Y-46483318D01*
X55108036Y-46483320D01*
X55098384Y-46500876D01*
X55087710Y-46517126D01*
X55075429Y-46532961D01*
X55075424Y-46532968D01*
X55056915Y-46575738D01*
X55054345Y-46580984D01*
X55031903Y-46621806D01*
X55026922Y-46641207D01*
X55020621Y-46659610D01*
X55012662Y-46678002D01*
X55012661Y-46678005D01*
X55005371Y-46724027D01*
X55004187Y-46729746D01*
X54992601Y-46774872D01*
X54992600Y-46774882D01*
X54992600Y-46794916D01*
X54991073Y-46814313D01*
X54987940Y-46834096D01*
X54988258Y-46837455D01*
X54992325Y-46880483D01*
X54992600Y-46886321D01*
X54992600Y-49791755D01*
X54990875Y-49807372D01*
X54991161Y-49807399D01*
X54990426Y-49815165D01*
X54992600Y-49884314D01*
X54992600Y-49913843D01*
X54992601Y-49913860D01*
X54993468Y-49920731D01*
X54993926Y-49926550D01*
X54995390Y-49973124D01*
X54995391Y-49973127D01*
X55000980Y-49992367D01*
X55004924Y-50011411D01*
X55006264Y-50022011D01*
X55007436Y-50031291D01*
X55024590Y-50074619D01*
X55026482Y-50080147D01*
X55039481Y-50124888D01*
X55049680Y-50142134D01*
X55058238Y-50159603D01*
X55065614Y-50178232D01*
X55092998Y-50215923D01*
X55096206Y-50220807D01*
X55119929Y-50260920D01*
X55134094Y-50275085D01*
X55146727Y-50289876D01*
X55158504Y-50306085D01*
X55194402Y-50335782D01*
X55198727Y-50339718D01*
X55214702Y-50355694D01*
X55224522Y-50367950D01*
X55224743Y-50367768D01*
X55229713Y-50373776D01*
X55229714Y-50373777D01*
X55250543Y-50393337D01*
X55280138Y-50421129D01*
X55301023Y-50442015D01*
X55301027Y-50442018D01*
X55301029Y-50442020D01*
X55306511Y-50446273D01*
X55310943Y-50450057D01*
X55344918Y-50481962D01*
X55362476Y-50491614D01*
X55378735Y-50502295D01*
X55394564Y-50514573D01*
X55437338Y-50533082D01*
X55442556Y-50535638D01*
X55483408Y-50558097D01*
X55502816Y-50563080D01*
X55521217Y-50569380D01*
X55539604Y-50577337D01*
X55582988Y-50584208D01*
X55585619Y-50584625D01*
X55591339Y-50585809D01*
X55636481Y-50597400D01*
X55656516Y-50597400D01*
X55675914Y-50598926D01*
X55695694Y-50602059D01*
X55695695Y-50602060D01*
X55695695Y-50602059D01*
X55695696Y-50602060D01*
X55742083Y-50597675D01*
X55747922Y-50597400D01*
X58841100Y-50597400D01*
X58908139Y-50617085D01*
X58953894Y-50669889D01*
X58965100Y-50721400D01*
X58965100Y-57012655D01*
X58963375Y-57028272D01*
X58963661Y-57028299D01*
X58962926Y-57036065D01*
X58965100Y-57105214D01*
X58965100Y-57134743D01*
X58965101Y-57134760D01*
X58965968Y-57141631D01*
X58966426Y-57147450D01*
X58967890Y-57194024D01*
X58967891Y-57194027D01*
X58973480Y-57213267D01*
X58977424Y-57232311D01*
X58979936Y-57252191D01*
X58997090Y-57295519D01*
X58998982Y-57301047D01*
X59011981Y-57345788D01*
X59022180Y-57363034D01*
X59030738Y-57380503D01*
X59038114Y-57399132D01*
X59065498Y-57436823D01*
X59068706Y-57441707D01*
X59092427Y-57481816D01*
X59092433Y-57481824D01*
X59106590Y-57495980D01*
X59119228Y-57510776D01*
X59131005Y-57526986D01*
X59131006Y-57526987D01*
X59166909Y-57556688D01*
X59171220Y-57560610D01*
X61347938Y-59737328D01*
X63484082Y-61873472D01*
X63517567Y-61934795D01*
X63512583Y-62004487D01*
X63470711Y-62060420D01*
X63422182Y-62082443D01*
X63282397Y-62112155D01*
X63282392Y-62112157D01*
X63109470Y-62189148D01*
X63109465Y-62189151D01*
X62956329Y-62300411D01*
X62829666Y-62441085D01*
X62735021Y-62605015D01*
X62735018Y-62605022D01*
X62697224Y-62721341D01*
X62676526Y-62785044D01*
X62670121Y-62845985D01*
X62656061Y-62979763D01*
X62654536Y-62979602D01*
X62643243Y-63020890D01*
X62645824Y-63022007D01*
X62624215Y-63071938D01*
X62621645Y-63077184D01*
X62599203Y-63118006D01*
X62594222Y-63137407D01*
X62587921Y-63155810D01*
X62579962Y-63174202D01*
X62579961Y-63174205D01*
X62572671Y-63220227D01*
X62571487Y-63225946D01*
X62559901Y-63271072D01*
X62559900Y-63271082D01*
X62559900Y-63291116D01*
X62558373Y-63310515D01*
X62555240Y-63330294D01*
X62555240Y-63330295D01*
X62559625Y-63376683D01*
X62559900Y-63382521D01*
X62559900Y-67101112D01*
X62540215Y-67168151D01*
X62528050Y-67184084D01*
X62452866Y-67267584D01*
X62358221Y-67431515D01*
X62358218Y-67431522D01*
X62304036Y-67598279D01*
X62299726Y-67611544D01*
X62279940Y-67799800D01*
X62299726Y-67988056D01*
X62299727Y-67988059D01*
X62358218Y-68168077D01*
X62358221Y-68168084D01*
X62452867Y-68332016D01*
X62579529Y-68472688D01*
X62732665Y-68583948D01*
X62732670Y-68583951D01*
X62905592Y-68660942D01*
X62905597Y-68660944D01*
X63090754Y-68700300D01*
X63090755Y-68700300D01*
X63280044Y-68700300D01*
X63280046Y-68700300D01*
X63465203Y-68660944D01*
X63638130Y-68583951D01*
X63791271Y-68472688D01*
X63917933Y-68332016D01*
X64012579Y-68168084D01*
X64071074Y-67988056D01*
X64090860Y-67799800D01*
X64071074Y-67611544D01*
X64012579Y-67431516D01*
X63917933Y-67267584D01*
X63842750Y-67184084D01*
X63812520Y-67121092D01*
X63810900Y-67101112D01*
X63810900Y-63928818D01*
X63830585Y-63861779D01*
X63883389Y-63816024D01*
X63884464Y-63815539D01*
X63935372Y-63792873D01*
X64014930Y-63757451D01*
X64168071Y-63646188D01*
X64294733Y-63505516D01*
X64389379Y-63341584D01*
X64447874Y-63161556D01*
X64451542Y-63126651D01*
X64478124Y-63062040D01*
X64535421Y-63022054D01*
X64605240Y-63019393D01*
X64662542Y-63051932D01*
X70812944Y-69202335D01*
X76946174Y-75335565D01*
X76979659Y-75396888D01*
X76974675Y-75466580D01*
X76932803Y-75522513D01*
X76910898Y-75535628D01*
X76717171Y-75625964D01*
X76717169Y-75625965D01*
X76523597Y-75761505D01*
X76356505Y-75928597D01*
X76226575Y-76114158D01*
X76171998Y-76157783D01*
X76102500Y-76164977D01*
X76040145Y-76133454D01*
X76023425Y-76114158D01*
X75893494Y-75928597D01*
X75726402Y-75761506D01*
X75726395Y-75761501D01*
X75532834Y-75625967D01*
X75532830Y-75625965D01*
X75377437Y-75553504D01*
X75318663Y-75526097D01*
X75318659Y-75526096D01*
X75318655Y-75526094D01*
X75090413Y-75464938D01*
X75090403Y-75464936D01*
X74855001Y-75444341D01*
X74854999Y-75444341D01*
X74619596Y-75464936D01*
X74619586Y-75464938D01*
X74391344Y-75526094D01*
X74391335Y-75526098D01*
X74177171Y-75625964D01*
X74177169Y-75625965D01*
X73983597Y-75761505D01*
X73816505Y-75928597D01*
X73680965Y-76122169D01*
X73680964Y-76122171D01*
X73581098Y-76336335D01*
X73581094Y-76336344D01*
X73519938Y-76564586D01*
X73519936Y-76564596D01*
X73499341Y-76799999D01*
X73499341Y-76800000D01*
X73519936Y-77035403D01*
X73519938Y-77035413D01*
X73581094Y-77263655D01*
X73581096Y-77263659D01*
X73581097Y-77263663D01*
X73657410Y-77427317D01*
X73680965Y-77477830D01*
X73680967Y-77477834D01*
X73781519Y-77621436D01*
X73816501Y-77671396D01*
X73816506Y-77671402D01*
X73983597Y-77838493D01*
X73983603Y-77838498D01*
X74008032Y-77855603D01*
X74176624Y-77973653D01*
X74220248Y-78028228D01*
X74229500Y-78075226D01*
X74229500Y-80190355D01*
X74227775Y-80205972D01*
X74228061Y-80205999D01*
X74227326Y-80213772D01*
X74227360Y-80214848D01*
X74227147Y-80215666D01*
X74226593Y-80221532D01*
X74225646Y-80221442D01*
X74209786Y-80282471D01*
X74174545Y-80320308D01*
X74008594Y-80436508D01*
X73841505Y-80603597D01*
X73705965Y-80797169D01*
X73705964Y-80797171D01*
X73606098Y-81011335D01*
X73606094Y-81011344D01*
X73544938Y-81239586D01*
X73544936Y-81239596D01*
X73524341Y-81474999D01*
X73524341Y-81475000D01*
X73544936Y-81710403D01*
X73544938Y-81710413D01*
X73606094Y-81938655D01*
X73606096Y-81938659D01*
X73606097Y-81938663D01*
X73695840Y-82131117D01*
X73705965Y-82152830D01*
X73705967Y-82152834D01*
X73801312Y-82289000D01*
X73841505Y-82346401D01*
X74008599Y-82513495D01*
X74085135Y-82567086D01*
X74202165Y-82649032D01*
X74202167Y-82649033D01*
X74202170Y-82649035D01*
X74416337Y-82748903D01*
X74416343Y-82748904D01*
X74416344Y-82748905D01*
X74431314Y-82752916D01*
X74644592Y-82810063D01*
X74815319Y-82825000D01*
X74879999Y-82830659D01*
X74880000Y-82830659D01*
X74880001Y-82830659D01*
X74944681Y-82825000D01*
X75049479Y-82815831D01*
X75117979Y-82829597D01*
X75168162Y-82878213D01*
X75184096Y-82946241D01*
X75160721Y-83012085D01*
X75147968Y-83027040D01*
X74216802Y-83958205D01*
X74155479Y-83991690D01*
X74085787Y-83986706D01*
X74057999Y-83972100D01*
X73977830Y-83915965D01*
X73763663Y-83816097D01*
X73763659Y-83816096D01*
X73763655Y-83816094D01*
X73535413Y-83754938D01*
X73535403Y-83754936D01*
X73300001Y-83734341D01*
X73299999Y-83734341D01*
X73064596Y-83754936D01*
X73064586Y-83754938D01*
X72836344Y-83816094D01*
X72836335Y-83816098D01*
X72622171Y-83915964D01*
X72622169Y-83915965D01*
X72428597Y-84051505D01*
X72261505Y-84218597D01*
X72131575Y-84404158D01*
X72076998Y-84447783D01*
X72007500Y-84454977D01*
X71945145Y-84423454D01*
X71928425Y-84404158D01*
X71798494Y-84218597D01*
X71631402Y-84051506D01*
X71631395Y-84051501D01*
X71437834Y-83915967D01*
X71437830Y-83915965D01*
X71404498Y-83900422D01*
X71223663Y-83816097D01*
X71223659Y-83816096D01*
X71223655Y-83816094D01*
X70995413Y-83754938D01*
X70995403Y-83754936D01*
X70760001Y-83734341D01*
X70759999Y-83734341D01*
X70524596Y-83754936D01*
X70524586Y-83754938D01*
X70296344Y-83816094D01*
X70296335Y-83816098D01*
X70082171Y-83915964D01*
X70082169Y-83915965D01*
X69888597Y-84051505D01*
X69721508Y-84218594D01*
X69591574Y-84404159D01*
X69536997Y-84447784D01*
X69467498Y-84454976D01*
X69405144Y-84423454D01*
X69388424Y-84404158D01*
X69258494Y-84218597D01*
X69091402Y-84051506D01*
X69091395Y-84051501D01*
X68897834Y-83915967D01*
X68897830Y-83915965D01*
X68864498Y-83900422D01*
X68683663Y-83816097D01*
X68683659Y-83816096D01*
X68683655Y-83816094D01*
X68455413Y-83754938D01*
X68455403Y-83754936D01*
X68220001Y-83734341D01*
X68219999Y-83734341D01*
X67984596Y-83754936D01*
X67984586Y-83754938D01*
X67756344Y-83816094D01*
X67756335Y-83816098D01*
X67542171Y-83915964D01*
X67542169Y-83915965D01*
X67348597Y-84051505D01*
X67181505Y-84218597D01*
X67051575Y-84404158D01*
X66996998Y-84447783D01*
X66927500Y-84454977D01*
X66865145Y-84423454D01*
X66848425Y-84404158D01*
X66718494Y-84218597D01*
X66551402Y-84051506D01*
X66551395Y-84051501D01*
X66357834Y-83915967D01*
X66357830Y-83915965D01*
X66324498Y-83900422D01*
X66143663Y-83816097D01*
X66143659Y-83816096D01*
X66143655Y-83816094D01*
X65915413Y-83754938D01*
X65915403Y-83754936D01*
X65680001Y-83734341D01*
X65679999Y-83734341D01*
X65444596Y-83754936D01*
X65444586Y-83754938D01*
X65216344Y-83816094D01*
X65216335Y-83816098D01*
X65002171Y-83915964D01*
X65002169Y-83915965D01*
X64808597Y-84051505D01*
X64641508Y-84218594D01*
X64511574Y-84404160D01*
X64456997Y-84447784D01*
X64387498Y-84454977D01*
X64325144Y-84423455D01*
X64308429Y-84404164D01*
X64178495Y-84218599D01*
X64178493Y-84218596D01*
X64011402Y-84051506D01*
X64011395Y-84051501D01*
X63817834Y-83915967D01*
X63817830Y-83915965D01*
X63784498Y-83900422D01*
X63603663Y-83816097D01*
X63603659Y-83816096D01*
X63603655Y-83816094D01*
X63375413Y-83754938D01*
X63375403Y-83754936D01*
X63140001Y-83734341D01*
X63139999Y-83734341D01*
X62904596Y-83754936D01*
X62904586Y-83754938D01*
X62676344Y-83816094D01*
X62676335Y-83816098D01*
X62462171Y-83915964D01*
X62462169Y-83915965D01*
X62268597Y-84051505D01*
X62101505Y-84218597D01*
X61971575Y-84404158D01*
X61916998Y-84447783D01*
X61847500Y-84454977D01*
X61785145Y-84423454D01*
X61768425Y-84404158D01*
X61638494Y-84218597D01*
X61471402Y-84051506D01*
X61471395Y-84051501D01*
X61277834Y-83915967D01*
X61277830Y-83915965D01*
X61244498Y-83900422D01*
X61063663Y-83816097D01*
X61063659Y-83816096D01*
X61063655Y-83816094D01*
X60835413Y-83754938D01*
X60835403Y-83754936D01*
X60600001Y-83734341D01*
X60599999Y-83734341D01*
X60364596Y-83754936D01*
X60364586Y-83754938D01*
X60136344Y-83816094D01*
X60136335Y-83816098D01*
X59922171Y-83915964D01*
X59922169Y-83915965D01*
X59728597Y-84051505D01*
X59561508Y-84218594D01*
X59431574Y-84404160D01*
X59376997Y-84447784D01*
X59307498Y-84454977D01*
X59245144Y-84423455D01*
X59228429Y-84404164D01*
X59098495Y-84218599D01*
X59098493Y-84218596D01*
X58931402Y-84051506D01*
X58931395Y-84051501D01*
X58737834Y-83915967D01*
X58737830Y-83915965D01*
X58704498Y-83900422D01*
X58523663Y-83816097D01*
X58523659Y-83816096D01*
X58523655Y-83816094D01*
X58340747Y-83767085D01*
X58281086Y-83730720D01*
X58250557Y-83667873D01*
X58258852Y-83598498D01*
X58285156Y-83559632D01*
X62269790Y-79574999D01*
X66499417Y-79574999D01*
X66519699Y-79780932D01*
X66544962Y-79864214D01*
X66579768Y-79978954D01*
X66677315Y-80161450D01*
X66709198Y-80200300D01*
X66808589Y-80321410D01*
X66846382Y-80352425D01*
X66968550Y-80452685D01*
X67151046Y-80550232D01*
X67349066Y-80610300D01*
X67349065Y-80610300D01*
X67369348Y-80612297D01*
X67555000Y-80630583D01*
X67642982Y-80621917D01*
X67711627Y-80634936D01*
X67762338Y-80683000D01*
X67779013Y-80750851D01*
X67778539Y-80757473D01*
X67769919Y-80844999D01*
X67790191Y-81050834D01*
X67850233Y-81248766D01*
X67925975Y-81390469D01*
X67925976Y-81390469D01*
X68328585Y-80987861D01*
X68389908Y-80954376D01*
X68459600Y-80959360D01*
X68515533Y-81001232D01*
X68523652Y-81013541D01*
X68526007Y-81017619D01*
X68526008Y-81017620D01*
X68526009Y-81017622D01*
X68603081Y-81109473D01*
X68660298Y-81142507D01*
X68708512Y-81193072D01*
X68721736Y-81261679D01*
X68695768Y-81326544D01*
X68685978Y-81337574D01*
X68279528Y-81744023D01*
X68421233Y-81819766D01*
X68619165Y-81879808D01*
X68825000Y-81900080D01*
X69030834Y-81879808D01*
X69228764Y-81819766D01*
X69370470Y-81744022D01*
X68964022Y-81337574D01*
X68930537Y-81276251D01*
X68935521Y-81206559D01*
X68977393Y-81150626D01*
X68989689Y-81142514D01*
X69046919Y-81109473D01*
X69123991Y-81017623D01*
X69123992Y-81017619D01*
X69126343Y-81013548D01*
X69176908Y-80965330D01*
X69245514Y-80952104D01*
X69310380Y-80978069D01*
X69321414Y-80987862D01*
X69724022Y-81390470D01*
X69799766Y-81248764D01*
X69859808Y-81050834D01*
X69880080Y-80844999D01*
X69859808Y-80639165D01*
X69799766Y-80441233D01*
X69724023Y-80299528D01*
X69321414Y-80702138D01*
X69260091Y-80735623D01*
X69190399Y-80730639D01*
X69134466Y-80688767D01*
X69126345Y-80676456D01*
X69123989Y-80672375D01*
X69071901Y-80610300D01*
X69046919Y-80580527D01*
X69046914Y-80580524D01*
X69046913Y-80580523D01*
X68989703Y-80547493D01*
X68941487Y-80496927D01*
X68928263Y-80428320D01*
X68954231Y-80363455D01*
X68964021Y-80352425D01*
X69370469Y-79945976D01*
X69370469Y-79945975D01*
X69228766Y-79870233D01*
X69030834Y-79810191D01*
X68824999Y-79789919D01*
X68737473Y-79798539D01*
X68668827Y-79785520D01*
X68618117Y-79737455D01*
X68601443Y-79669604D01*
X68601915Y-79663000D01*
X68610583Y-79575000D01*
X68601967Y-79487523D01*
X68614986Y-79418878D01*
X68663050Y-79368168D01*
X68730901Y-79351493D01*
X68737512Y-79351966D01*
X68825000Y-79360583D01*
X69030934Y-79340300D01*
X69228954Y-79280232D01*
X69411450Y-79182685D01*
X69571410Y-79051410D01*
X69702685Y-78891450D01*
X69800232Y-78708954D01*
X69860300Y-78510934D01*
X69880583Y-78305000D01*
X69860300Y-78099066D01*
X69800232Y-77901046D01*
X69702685Y-77718550D01*
X69622986Y-77621436D01*
X69571410Y-77558589D01*
X69411452Y-77427317D01*
X69411453Y-77427317D01*
X69411450Y-77427315D01*
X69228954Y-77329768D01*
X69030934Y-77269700D01*
X69030932Y-77269699D01*
X69030934Y-77269699D01*
X68825000Y-77249417D01*
X68619067Y-77269699D01*
X68421043Y-77329769D01*
X68327969Y-77379519D01*
X68238550Y-77427315D01*
X68238548Y-77427316D01*
X68238547Y-77427317D01*
X68078589Y-77558589D01*
X67950253Y-77714970D01*
X67947315Y-77718550D01*
X67919759Y-77770104D01*
X67849769Y-77901043D01*
X67789699Y-78099067D01*
X67769417Y-78305000D01*
X67778032Y-78392476D01*
X67765013Y-78461122D01*
X67716948Y-78511832D01*
X67649097Y-78528506D01*
X67642476Y-78528032D01*
X67555001Y-78519417D01*
X67555000Y-78519417D01*
X67534717Y-78521414D01*
X67349067Y-78539699D01*
X67151043Y-78599769D01*
X67040898Y-78658643D01*
X66968550Y-78697315D01*
X66968548Y-78697316D01*
X66968547Y-78697317D01*
X66808589Y-78828589D01*
X66677317Y-78988547D01*
X66579769Y-79171043D01*
X66519699Y-79369067D01*
X66499417Y-79574999D01*
X62269790Y-79574999D01*
X66156470Y-75688319D01*
X66217794Y-75654834D01*
X66244152Y-75652000D01*
X66303344Y-75652000D01*
X66303346Y-75652000D01*
X66488503Y-75612644D01*
X66661430Y-75535651D01*
X66814571Y-75424388D01*
X66941233Y-75283716D01*
X67035879Y-75119784D01*
X67094374Y-74939756D01*
X67114160Y-74751500D01*
X67094374Y-74563244D01*
X67035879Y-74383216D01*
X66941233Y-74219284D01*
X66814571Y-74078612D01*
X66814570Y-74078611D01*
X66661434Y-73967351D01*
X66661429Y-73967348D01*
X66488507Y-73890357D01*
X66488502Y-73890355D01*
X66342700Y-73859365D01*
X66303346Y-73851000D01*
X66114054Y-73851000D01*
X66081597Y-73857898D01*
X65928897Y-73890355D01*
X65928892Y-73890357D01*
X65755970Y-73967348D01*
X65755965Y-73967351D01*
X65602829Y-74078611D01*
X65476166Y-74219285D01*
X65381521Y-74383215D01*
X65381518Y-74383222D01*
X65323027Y-74563240D01*
X65323026Y-74563244D01*
X65321738Y-74575499D01*
X65305378Y-74731151D01*
X65278793Y-74795766D01*
X65269738Y-74805870D01*
X64684585Y-75391023D01*
X64623262Y-75424508D01*
X64553570Y-75419524D01*
X64497637Y-75377652D01*
X64484523Y-75355749D01*
X64480568Y-75347266D01*
X64350047Y-75160861D01*
X64350045Y-75160858D01*
X64189141Y-74999954D01*
X64002734Y-74869432D01*
X64002732Y-74869431D01*
X63796497Y-74773261D01*
X63796488Y-74773258D01*
X63576697Y-74714366D01*
X63576693Y-74714365D01*
X63576692Y-74714365D01*
X63576691Y-74714364D01*
X63576686Y-74714364D01*
X63350002Y-74694532D01*
X63349998Y-74694532D01*
X63123313Y-74714364D01*
X63123302Y-74714366D01*
X62903511Y-74773258D01*
X62903502Y-74773261D01*
X62697267Y-74869431D01*
X62697265Y-74869432D01*
X62510858Y-74999954D01*
X62349954Y-75160858D01*
X62219432Y-75347265D01*
X62219431Y-75347267D01*
X62123261Y-75553502D01*
X62123258Y-75553511D01*
X62064366Y-75773302D01*
X62064364Y-75773313D01*
X62044532Y-75999998D01*
X62044532Y-76000001D01*
X62064364Y-76226686D01*
X62064366Y-76226697D01*
X62123258Y-76446488D01*
X62123261Y-76446497D01*
X62219431Y-76652732D01*
X62219432Y-76652734D01*
X62349954Y-76839141D01*
X62510858Y-77000045D01*
X62510861Y-77000047D01*
X62697266Y-77130568D01*
X62705746Y-77134522D01*
X62758185Y-77180694D01*
X62777337Y-77247888D01*
X62757121Y-77314769D01*
X62741022Y-77334585D01*
X56372426Y-83703181D01*
X56311103Y-83736666D01*
X56284745Y-83739500D01*
X54622129Y-83739500D01*
X54622123Y-83739501D01*
X54562516Y-83745908D01*
X54427671Y-83796202D01*
X54427664Y-83796206D01*
X54312455Y-83882452D01*
X54312452Y-83882455D01*
X54226206Y-83997664D01*
X54226202Y-83997671D01*
X54175908Y-84132517D01*
X54169501Y-84192116D01*
X54169500Y-84192135D01*
X54169500Y-85987870D01*
X54169501Y-85987876D01*
X54175908Y-86047483D01*
X54226202Y-86182328D01*
X54226206Y-86182335D01*
X54312452Y-86297544D01*
X54312455Y-86297547D01*
X54427664Y-86383793D01*
X54427671Y-86383797D01*
X54562517Y-86434091D01*
X54562516Y-86434091D01*
X54569444Y-86434835D01*
X54622127Y-86440500D01*
X56417872Y-86440499D01*
X56477483Y-86434091D01*
X56612331Y-86383796D01*
X56727546Y-86297546D01*
X56813796Y-86182331D01*
X56862810Y-86050916D01*
X56904681Y-85994984D01*
X56970145Y-85970566D01*
X57038418Y-85985417D01*
X57066673Y-86006569D01*
X57188599Y-86128495D01*
X57285384Y-86196264D01*
X57382165Y-86264032D01*
X57382167Y-86264033D01*
X57382170Y-86264035D01*
X57596337Y-86363903D01*
X57596343Y-86363904D01*
X57596344Y-86363905D01*
X57630631Y-86373092D01*
X57824592Y-86425063D01*
X58001034Y-86440500D01*
X58059999Y-86445659D01*
X58060000Y-86445659D01*
X58060001Y-86445659D01*
X58118966Y-86440500D01*
X58295408Y-86425063D01*
X58523663Y-86363903D01*
X58737830Y-86264035D01*
X58931401Y-86128495D01*
X59098495Y-85961401D01*
X59228424Y-85775842D01*
X59283002Y-85732217D01*
X59352500Y-85725023D01*
X59414855Y-85756546D01*
X59431575Y-85775842D01*
X59561500Y-85961395D01*
X59561505Y-85961401D01*
X59728599Y-86128495D01*
X59825384Y-86196264D01*
X59922165Y-86264032D01*
X59922167Y-86264033D01*
X59922170Y-86264035D01*
X60136337Y-86363903D01*
X60136343Y-86363904D01*
X60136344Y-86363905D01*
X60170631Y-86373092D01*
X60364592Y-86425063D01*
X60541034Y-86440500D01*
X60599999Y-86445659D01*
X60600000Y-86445659D01*
X60600001Y-86445659D01*
X60658966Y-86440500D01*
X60835408Y-86425063D01*
X61063663Y-86363903D01*
X61277830Y-86264035D01*
X61471401Y-86128495D01*
X61638495Y-85961401D01*
X61768424Y-85775842D01*
X61823002Y-85732217D01*
X61892500Y-85725023D01*
X61954855Y-85756546D01*
X61971575Y-85775842D01*
X62101500Y-85961395D01*
X62101505Y-85961401D01*
X62268599Y-86128495D01*
X62365384Y-86196264D01*
X62462165Y-86264032D01*
X62462167Y-86264033D01*
X62462170Y-86264035D01*
X62676337Y-86363903D01*
X62676343Y-86363904D01*
X62676344Y-86363905D01*
X62710631Y-86373092D01*
X62904592Y-86425063D01*
X63081034Y-86440500D01*
X63139999Y-86445659D01*
X63140000Y-86445659D01*
X63140001Y-86445659D01*
X63198966Y-86440500D01*
X63375408Y-86425063D01*
X63603663Y-86363903D01*
X63817830Y-86264035D01*
X64011401Y-86128495D01*
X64178495Y-85961401D01*
X64308424Y-85775842D01*
X64363002Y-85732217D01*
X64432500Y-85725023D01*
X64494855Y-85756546D01*
X64511575Y-85775842D01*
X64641500Y-85961395D01*
X64641505Y-85961401D01*
X64808599Y-86128495D01*
X64905384Y-86196264D01*
X65002165Y-86264032D01*
X65002167Y-86264033D01*
X65002170Y-86264035D01*
X65216337Y-86363903D01*
X65216343Y-86363904D01*
X65216344Y-86363905D01*
X65250631Y-86373092D01*
X65444592Y-86425063D01*
X65621034Y-86440500D01*
X65679999Y-86445659D01*
X65680000Y-86445659D01*
X65680001Y-86445659D01*
X65738966Y-86440500D01*
X65915408Y-86425063D01*
X66143663Y-86363903D01*
X66357830Y-86264035D01*
X66551401Y-86128495D01*
X66718495Y-85961401D01*
X66848424Y-85775842D01*
X66903002Y-85732217D01*
X66972500Y-85725023D01*
X67034855Y-85756546D01*
X67051575Y-85775842D01*
X67181500Y-85961395D01*
X67181505Y-85961401D01*
X67348599Y-86128495D01*
X67445384Y-86196264D01*
X67542165Y-86264032D01*
X67542167Y-86264033D01*
X67542170Y-86264035D01*
X67756337Y-86363903D01*
X67756343Y-86363904D01*
X67756344Y-86363905D01*
X67790631Y-86373092D01*
X67984592Y-86425063D01*
X68161034Y-86440500D01*
X68219999Y-86445659D01*
X68220000Y-86445659D01*
X68220001Y-86445659D01*
X68278966Y-86440500D01*
X68455408Y-86425063D01*
X68683663Y-86363903D01*
X68897830Y-86264035D01*
X69091401Y-86128495D01*
X69258495Y-85961401D01*
X69388424Y-85775842D01*
X69443002Y-85732217D01*
X69512500Y-85725023D01*
X69574855Y-85756546D01*
X69591575Y-85775842D01*
X69721500Y-85961395D01*
X69721505Y-85961401D01*
X69888599Y-86128495D01*
X69985384Y-86196264D01*
X70082165Y-86264032D01*
X70082167Y-86264033D01*
X70082170Y-86264035D01*
X70296337Y-86363903D01*
X70296343Y-86363904D01*
X70296344Y-86363905D01*
X70330631Y-86373092D01*
X70524592Y-86425063D01*
X70701034Y-86440500D01*
X70759999Y-86445659D01*
X70760000Y-86445659D01*
X70760001Y-86445659D01*
X70818966Y-86440500D01*
X70995408Y-86425063D01*
X71223663Y-86363903D01*
X71437830Y-86264035D01*
X71631401Y-86128495D01*
X71798495Y-85961401D01*
X71928424Y-85775842D01*
X71983002Y-85732217D01*
X72052500Y-85725023D01*
X72114855Y-85756546D01*
X72131575Y-85775842D01*
X72261500Y-85961395D01*
X72261505Y-85961401D01*
X72428599Y-86128495D01*
X72525384Y-86196264D01*
X72622165Y-86264032D01*
X72622167Y-86264033D01*
X72622170Y-86264035D01*
X72836337Y-86363903D01*
X72836343Y-86363904D01*
X72836344Y-86363905D01*
X72870631Y-86373092D01*
X73064592Y-86425063D01*
X73241034Y-86440500D01*
X73299999Y-86445659D01*
X73300000Y-86445659D01*
X73300001Y-86445659D01*
X73358966Y-86440500D01*
X73535408Y-86425063D01*
X73763663Y-86363903D01*
X73768093Y-86361837D01*
X73837171Y-86351344D01*
X73900955Y-86379863D01*
X73939196Y-86438339D01*
X73944500Y-86474218D01*
X73944500Y-86787546D01*
X73924815Y-86854585D01*
X73908181Y-86875227D01*
X64123108Y-96660299D01*
X64110851Y-96670120D01*
X64111034Y-96670341D01*
X64105023Y-96675313D01*
X64057672Y-96725736D01*
X64036789Y-96746619D01*
X64036777Y-96746632D01*
X64032521Y-96752117D01*
X64028737Y-96756547D01*
X63996837Y-96790518D01*
X63996836Y-96790520D01*
X63987184Y-96808076D01*
X63976510Y-96824326D01*
X63964229Y-96840161D01*
X63964224Y-96840168D01*
X63945715Y-96882938D01*
X63943145Y-96888184D01*
X63920703Y-96929006D01*
X63915722Y-96948407D01*
X63909421Y-96966810D01*
X63901462Y-96985202D01*
X63901461Y-96985205D01*
X63894171Y-97031227D01*
X63892987Y-97036946D01*
X63881401Y-97082072D01*
X63881400Y-97082082D01*
X63881400Y-97102116D01*
X63879873Y-97121515D01*
X63876740Y-97141294D01*
X63876740Y-97141295D01*
X63881125Y-97187683D01*
X63881400Y-97193521D01*
X63881400Y-100462255D01*
X63879675Y-100477872D01*
X63879961Y-100477899D01*
X63879226Y-100485665D01*
X63881400Y-100554814D01*
X63881400Y-100584343D01*
X63881401Y-100584360D01*
X63882268Y-100591231D01*
X63882726Y-100597050D01*
X63884190Y-100643624D01*
X63884191Y-100643627D01*
X63889780Y-100662867D01*
X63893724Y-100681911D01*
X63896236Y-100701791D01*
X63913390Y-100745119D01*
X63915282Y-100750647D01*
X63928281Y-100795388D01*
X63938480Y-100812634D01*
X63947038Y-100830103D01*
X63954414Y-100848732D01*
X63981798Y-100886423D01*
X63985006Y-100891307D01*
X64008727Y-100931416D01*
X64008733Y-100931424D01*
X64022890Y-100945580D01*
X64035528Y-100960376D01*
X64047305Y-100976586D01*
X64047306Y-100976587D01*
X64083209Y-101006288D01*
X64087520Y-101010210D01*
X64442386Y-101365076D01*
X64783525Y-101706215D01*
X64817010Y-101767538D01*
X64812026Y-101837230D01*
X64783526Y-101881577D01*
X64641505Y-102023597D01*
X64511574Y-102209160D01*
X64456997Y-102252784D01*
X64387498Y-102259977D01*
X64325144Y-102228455D01*
X64308429Y-102209164D01*
X64178495Y-102023599D01*
X64178493Y-102023596D01*
X64011402Y-101856506D01*
X64011395Y-101856501D01*
X63817834Y-101720967D01*
X63817830Y-101720965D01*
X63814474Y-101719400D01*
X63603663Y-101621097D01*
X63603659Y-101621096D01*
X63603655Y-101621094D01*
X63375413Y-101559938D01*
X63375403Y-101559936D01*
X63140001Y-101539341D01*
X63139999Y-101539341D01*
X62904596Y-101559936D01*
X62904586Y-101559938D01*
X62676344Y-101621094D01*
X62676335Y-101621098D01*
X62462171Y-101720964D01*
X62462169Y-101720965D01*
X62268597Y-101856505D01*
X62101508Y-102023594D01*
X61971269Y-102209595D01*
X61916692Y-102253219D01*
X61847193Y-102260412D01*
X61784839Y-102228890D01*
X61768119Y-102209594D01*
X61638113Y-102023926D01*
X61638108Y-102023920D01*
X61471082Y-101856894D01*
X61277578Y-101721399D01*
X61063492Y-101621570D01*
X61063486Y-101621567D01*
X60849999Y-101564364D01*
X60849999Y-102282698D01*
X60830314Y-102349737D01*
X60777510Y-102395492D01*
X60708353Y-102405436D01*
X60635764Y-102395000D01*
X60635763Y-102395000D01*
X60564237Y-102395000D01*
X60564233Y-102395000D01*
X60491645Y-102405436D01*
X60422487Y-102395492D01*
X60369684Y-102349736D01*
X60350000Y-102282698D01*
X60350000Y-101564364D01*
X60349999Y-101564364D01*
X60136513Y-101621567D01*
X60136507Y-101621570D01*
X59922422Y-101721399D01*
X59922420Y-101721400D01*
X59728926Y-101856886D01*
X59728920Y-101856891D01*
X59561891Y-102023920D01*
X59561890Y-102023922D01*
X59431880Y-102209595D01*
X59377303Y-102253219D01*
X59307804Y-102260412D01*
X59245450Y-102228890D01*
X59228730Y-102209594D01*
X59098494Y-102023597D01*
X58931402Y-101856506D01*
X58931395Y-101856501D01*
X58737834Y-101720967D01*
X58737830Y-101720965D01*
X58734474Y-101719400D01*
X58523663Y-101621097D01*
X58523659Y-101621096D01*
X58523655Y-101621094D01*
X58295413Y-101559938D01*
X58295403Y-101559936D01*
X58060001Y-101539341D01*
X58059999Y-101539341D01*
X57824596Y-101559936D01*
X57824586Y-101559938D01*
X57596344Y-101621094D01*
X57596335Y-101621098D01*
X57382171Y-101720964D01*
X57382169Y-101720965D01*
X57188600Y-101856503D01*
X57066673Y-101978430D01*
X57005350Y-102011914D01*
X56935658Y-102006930D01*
X56879725Y-101965058D01*
X56862810Y-101934081D01*
X56813797Y-101802671D01*
X56813793Y-101802664D01*
X56727547Y-101687455D01*
X56727544Y-101687452D01*
X56612335Y-101601206D01*
X56612328Y-101601202D01*
X56477482Y-101550908D01*
X56477483Y-101550908D01*
X56417883Y-101544501D01*
X56417881Y-101544500D01*
X56417873Y-101544500D01*
X56417864Y-101544500D01*
X54622129Y-101544500D01*
X54622123Y-101544501D01*
X54562516Y-101550908D01*
X54427671Y-101601202D01*
X54427664Y-101601206D01*
X54312455Y-101687452D01*
X54312452Y-101687455D01*
X54226206Y-101802664D01*
X54226202Y-101802671D01*
X54175908Y-101937517D01*
X54169501Y-101997116D01*
X54169500Y-101997135D01*
X54169500Y-103792870D01*
X48220500Y-103792870D01*
X48220500Y-95290002D01*
X59364494Y-95290002D01*
X59384478Y-95518429D01*
X59384479Y-95518436D01*
X59443827Y-95739925D01*
X59443828Y-95739927D01*
X59443829Y-95739930D01*
X59540738Y-95947753D01*
X59672264Y-96135591D01*
X59834409Y-96297736D01*
X60022247Y-96429262D01*
X60230070Y-96526171D01*
X60451565Y-96585521D01*
X60614732Y-96599796D01*
X60679998Y-96605506D01*
X60680000Y-96605506D01*
X60680002Y-96605506D01*
X60737108Y-96600509D01*
X60908435Y-96585521D01*
X61129930Y-96526171D01*
X61337753Y-96429262D01*
X61525591Y-96297736D01*
X61687736Y-96135591D01*
X61819262Y-95947753D01*
X61916171Y-95739930D01*
X61975521Y-95518435D01*
X61995506Y-95290000D01*
X61975521Y-95061565D01*
X61916171Y-94840070D01*
X61819262Y-94632247D01*
X61687736Y-94444409D01*
X61525591Y-94282264D01*
X61337753Y-94150738D01*
X61129930Y-94053829D01*
X61129927Y-94053828D01*
X61129925Y-94053827D01*
X60908436Y-93994479D01*
X60908429Y-93994478D01*
X60680002Y-93974494D01*
X60679998Y-93974494D01*
X60451570Y-93994478D01*
X60451563Y-93994479D01*
X60230074Y-94053827D01*
X60230070Y-94053829D01*
X60022247Y-94150738D01*
X59834409Y-94282264D01*
X59834407Y-94282265D01*
X59834404Y-94282268D01*
X59672268Y-94444404D01*
X59672265Y-94444407D01*
X59672264Y-94444409D01*
X59619659Y-94519537D01*
X59540738Y-94632247D01*
X59443830Y-94840068D01*
X59443827Y-94840074D01*
X59384479Y-95061563D01*
X59384478Y-95061570D01*
X59364494Y-95289997D01*
X59364494Y-95290002D01*
X48220500Y-95290002D01*
X48220500Y-92790002D01*
X64364494Y-92790002D01*
X64384478Y-93018429D01*
X64384479Y-93018436D01*
X64443827Y-93239925D01*
X64443828Y-93239927D01*
X64443829Y-93239930D01*
X64540738Y-93447753D01*
X64672264Y-93635591D01*
X64834409Y-93797736D01*
X65022247Y-93929262D01*
X65230070Y-94026171D01*
X65451565Y-94085521D01*
X65614732Y-94099796D01*
X65679998Y-94105506D01*
X65680000Y-94105506D01*
X65680002Y-94105506D01*
X65737108Y-94100509D01*
X65908435Y-94085521D01*
X66129930Y-94026171D01*
X66337753Y-93929262D01*
X66525591Y-93797736D01*
X66687736Y-93635591D01*
X66819262Y-93447753D01*
X66916171Y-93239930D01*
X66975521Y-93018435D01*
X66995506Y-92790000D01*
X66975521Y-92561565D01*
X66916171Y-92340070D01*
X66819262Y-92132247D01*
X66687736Y-91944409D01*
X66525591Y-91782264D01*
X66337753Y-91650738D01*
X66129930Y-91553829D01*
X66129927Y-91553828D01*
X66129925Y-91553827D01*
X65908436Y-91494479D01*
X65908429Y-91494478D01*
X65680002Y-91474494D01*
X65679998Y-91474494D01*
X65451570Y-91494478D01*
X65451563Y-91494479D01*
X65230074Y-91553827D01*
X65230070Y-91553829D01*
X65022247Y-91650738D01*
X64834409Y-91782264D01*
X64834407Y-91782265D01*
X64834404Y-91782268D01*
X64672268Y-91944404D01*
X64540738Y-92132247D01*
X64443830Y-92340068D01*
X64443827Y-92340074D01*
X64384479Y-92561563D01*
X64384478Y-92561570D01*
X64364494Y-92789997D01*
X64364494Y-92790002D01*
X48220500Y-92790002D01*
X48220500Y-76847870D01*
X54449500Y-76847870D01*
X54449501Y-76847876D01*
X54455908Y-76907483D01*
X54506202Y-77042328D01*
X54506206Y-77042335D01*
X54592452Y-77157544D01*
X54592455Y-77157547D01*
X54707664Y-77243793D01*
X54707671Y-77243797D01*
X54842517Y-77294091D01*
X54842516Y-77294091D01*
X54849444Y-77294835D01*
X54902127Y-77300500D01*
X56597872Y-77300499D01*
X56657483Y-77294091D01*
X56792331Y-77243796D01*
X56907546Y-77157546D01*
X56993796Y-77042331D01*
X57044091Y-76907483D01*
X57050500Y-76847873D01*
X57050499Y-75152128D01*
X57044091Y-75092517D01*
X57032191Y-75060612D01*
X56993797Y-74957671D01*
X56993793Y-74957664D01*
X56907547Y-74842455D01*
X56907544Y-74842452D01*
X56792335Y-74756206D01*
X56792328Y-74756202D01*
X56657482Y-74705908D01*
X56657483Y-74705908D01*
X56597883Y-74699501D01*
X56597881Y-74699500D01*
X56597873Y-74699500D01*
X56597864Y-74699500D01*
X54902129Y-74699500D01*
X54902123Y-74699501D01*
X54842516Y-74705908D01*
X54707671Y-74756202D01*
X54707664Y-74756206D01*
X54592455Y-74842452D01*
X54592452Y-74842455D01*
X54506206Y-74957664D01*
X54506202Y-74957671D01*
X54455908Y-75092517D01*
X54451924Y-75129578D01*
X54449501Y-75152123D01*
X54449500Y-75152135D01*
X54449500Y-76847870D01*
X48220500Y-76847870D01*
X48220500Y-34067763D01*
X49945787Y-34067763D01*
X49975413Y-34337013D01*
X49975415Y-34337024D01*
X50043926Y-34599082D01*
X50043928Y-34599088D01*
X50149870Y-34848390D01*
X50221998Y-34966575D01*
X50290979Y-35079605D01*
X50290986Y-35079615D01*
X50464253Y-35287819D01*
X50464259Y-35287824D01*
X50665998Y-35468582D01*
X50891910Y-35618044D01*
X51137176Y-35733020D01*
X51137183Y-35733022D01*
X51137185Y-35733023D01*
X51396557Y-35811057D01*
X51396564Y-35811058D01*
X51396569Y-35811060D01*
X51664561Y-35850500D01*
X51664566Y-35850500D01*
X51867636Y-35850500D01*
X51919133Y-35846730D01*
X52070156Y-35835677D01*
X52182758Y-35810593D01*
X52334546Y-35776782D01*
X52334548Y-35776781D01*
X52334553Y-35776780D01*
X52587558Y-35680014D01*
X52823777Y-35547441D01*
X53038177Y-35381888D01*
X53226186Y-35186881D01*
X53383799Y-34966579D01*
X53457787Y-34822669D01*
X53507649Y-34725690D01*
X53507651Y-34725684D01*
X53507656Y-34725675D01*
X53595118Y-34469305D01*
X53644319Y-34202933D01*
X53649259Y-34067763D01*
X101445787Y-34067763D01*
X101475413Y-34337013D01*
X101475415Y-34337024D01*
X101543926Y-34599082D01*
X101543928Y-34599088D01*
X101649870Y-34848390D01*
X101721998Y-34966575D01*
X101790979Y-35079605D01*
X101790986Y-35079615D01*
X101964253Y-35287819D01*
X101964259Y-35287824D01*
X102165998Y-35468582D01*
X102391910Y-35618044D01*
X102637176Y-35733020D01*
X102637183Y-35733022D01*
X102637185Y-35733023D01*
X102896557Y-35811057D01*
X102896564Y-35811058D01*
X102896569Y-35811060D01*
X103164561Y-35850500D01*
X103164566Y-35850500D01*
X103367636Y-35850500D01*
X103419133Y-35846730D01*
X103570156Y-35835677D01*
X103682758Y-35810593D01*
X103834546Y-35776782D01*
X103834548Y-35776781D01*
X103834553Y-35776780D01*
X104087558Y-35680014D01*
X104323777Y-35547441D01*
X104538177Y-35381888D01*
X104726186Y-35186881D01*
X104883799Y-34966579D01*
X104957787Y-34822669D01*
X105007649Y-34725690D01*
X105007651Y-34725684D01*
X105007656Y-34725675D01*
X105095118Y-34469305D01*
X105144319Y-34202933D01*
X105154212Y-33932235D01*
X105124586Y-33662982D01*
X105056072Y-33400912D01*
X104950130Y-33151610D01*
X104809018Y-32920390D01*
X104719747Y-32813119D01*
X104635746Y-32712180D01*
X104635740Y-32712175D01*
X104434002Y-32531418D01*
X104208092Y-32381957D01*
X104208090Y-32381956D01*
X103962824Y-32266980D01*
X103962819Y-32266978D01*
X103962814Y-32266976D01*
X103703442Y-32188942D01*
X103703428Y-32188939D01*
X103587791Y-32171921D01*
X103435439Y-32149500D01*
X103232369Y-32149500D01*
X103232364Y-32149500D01*
X103029844Y-32164323D01*
X103029831Y-32164325D01*
X102765453Y-32223217D01*
X102765446Y-32223220D01*
X102512439Y-32319987D01*
X102276226Y-32452557D01*
X102061822Y-32618112D01*
X101873822Y-32813109D01*
X101873816Y-32813116D01*
X101716202Y-33033419D01*
X101716199Y-33033424D01*
X101592350Y-33274309D01*
X101592343Y-33274327D01*
X101504884Y-33530685D01*
X101504881Y-33530699D01*
X101455681Y-33797068D01*
X101455680Y-33797075D01*
X101445787Y-34067763D01*
X53649259Y-34067763D01*
X53654212Y-33932235D01*
X53624586Y-33662982D01*
X53556072Y-33400912D01*
X53450130Y-33151610D01*
X53309018Y-32920390D01*
X53219747Y-32813119D01*
X53135746Y-32712180D01*
X53135740Y-32712175D01*
X52934002Y-32531418D01*
X52708092Y-32381957D01*
X52708090Y-32381956D01*
X52462824Y-32266980D01*
X52462819Y-32266978D01*
X52462814Y-32266976D01*
X52203442Y-32188942D01*
X52203428Y-32188939D01*
X52087791Y-32171921D01*
X51935439Y-32149500D01*
X51732369Y-32149500D01*
X51732364Y-32149500D01*
X51529844Y-32164323D01*
X51529831Y-32164325D01*
X51265453Y-32223217D01*
X51265446Y-32223220D01*
X51012439Y-32319987D01*
X50776226Y-32452557D01*
X50561822Y-32618112D01*
X50373822Y-32813109D01*
X50373816Y-32813116D01*
X50216202Y-33033419D01*
X50216199Y-33033424D01*
X50092350Y-33274309D01*
X50092343Y-33274327D01*
X50004884Y-33530685D01*
X50004881Y-33530699D01*
X49955681Y-33797068D01*
X49955680Y-33797075D01*
X49945787Y-34067763D01*
X48220500Y-34067763D01*
X48220500Y-30604500D01*
X48240185Y-30537461D01*
X48292989Y-30491706D01*
X48344500Y-30480500D01*
X106675500Y-30480500D01*
X106742539Y-30500185D01*
G37*
%TD.AperFunction*%
%TD*%
M02*
