%TF.GenerationSoftware,KiCad,Pcbnew,7.0.7*%
%TF.CreationDate,2024-05-19T18:37:37+02:00*%
%TF.ProjectId,Smart-mobility,536d6172-742d-46d6-9f62-696c6974792e,rev?*%
%TF.SameCoordinates,Original*%
%TF.FileFunction,Soldermask,Bot*%
%TF.FilePolarity,Negative*%
%FSLAX46Y46*%
G04 Gerber Fmt 4.6, Leading zero omitted, Abs format (unit mm)*
G04 Created by KiCad (PCBNEW 7.0.7) date 2024-05-19 18:37:37*
%MOMM*%
%LPD*%
G01*
G04 APERTURE LIST*
G04 Aperture macros list*
%AMRoundRect*
0 Rectangle with rounded corners*
0 $1 Rounding radius*
0 $2 $3 $4 $5 $6 $7 $8 $9 X,Y pos of 4 corners*
0 Add a 4 corners polygon primitive as box body*
4,1,4,$2,$3,$4,$5,$6,$7,$8,$9,$2,$3,0*
0 Add four circle primitives for the rounded corners*
1,1,$1+$1,$2,$3*
1,1,$1+$1,$4,$5*
1,1,$1+$1,$6,$7*
1,1,$1+$1,$8,$9*
0 Add four rect primitives between the rounded corners*
20,1,$1+$1,$2,$3,$4,$5,0*
20,1,$1+$1,$4,$5,$6,$7,0*
20,1,$1+$1,$6,$7,$8,$9,0*
20,1,$1+$1,$8,$9,$2,$3,0*%
G04 Aperture macros list end*
%ADD10C,3.200000*%
%ADD11R,1.070000X1.800000*%
%ADD12O,1.070000X1.800000*%
%ADD13R,1.600000X1.600000*%
%ADD14C,1.600000*%
%ADD15R,1.700000X1.700000*%
%ADD16O,1.700000X1.700000*%
%ADD17R,1.200000X0.700000*%
%ADD18R,1.200000X0.760000*%
%ADD19R,1.200000X0.800000*%
%ADD20R,1.500000X1.800000*%
%ADD21R,1.350000X1.800000*%
%ADD22RoundRect,0.250000X1.075000X-0.312500X1.075000X0.312500X-1.075000X0.312500X-1.075000X-0.312500X0*%
%ADD23RoundRect,0.250000X-0.312500X-1.075000X0.312500X-1.075000X0.312500X1.075000X-0.312500X1.075000X0*%
%ADD24O,0.599999X1.899999*%
%ADD25RoundRect,0.250000X-1.075000X0.312500X-1.075000X-0.312500X1.075000X-0.312500X1.075000X0.312500X0*%
%ADD26C,1.620000*%
%ADD27O,1.600000X1.600000*%
%ADD28C,1.100000*%
G04 APERTURE END LIST*
D10*
%TO.C,REF\u002A\u002A*%
X77900000Y-110800000D03*
%TD*%
%TO.C,MH2*%
X51800000Y-34000000D03*
%TD*%
D11*
%TO.C,D26*%
X93045000Y-73175000D03*
D12*
X91775000Y-73175000D03*
X90505000Y-73175000D03*
X89235000Y-73175000D03*
%TD*%
D10*
%TO.C,MH3*%
X103300000Y-34000000D03*
%TD*%
D13*
%TO.C,BZ1*%
X55750000Y-76000000D03*
D14*
X63350000Y-76000000D03*
%TD*%
D15*
%TO.C,J2*%
X82500000Y-81475000D03*
D16*
X79960000Y-81475000D03*
X77420000Y-81475000D03*
X74880000Y-81475000D03*
%TD*%
D17*
%TO.C,J1*%
X101567500Y-62200000D03*
D18*
X101567500Y-64220000D03*
D19*
X101567500Y-65450000D03*
D17*
X101567500Y-63200000D03*
D18*
X101567500Y-61180000D03*
D19*
X101567500Y-59950000D03*
D20*
X105202500Y-57575000D03*
D21*
X101622500Y-57575000D03*
D20*
X105202500Y-67825000D03*
D21*
X101622500Y-67825000D03*
%TD*%
D22*
%TO.C,R8*%
X61250000Y-67775000D03*
X61250000Y-64850000D03*
%TD*%
D23*
%TO.C,R13*%
X73112500Y-52000000D03*
X76037500Y-52000000D03*
%TD*%
D24*
%TO.C,U2*%
X81045000Y-60750000D03*
X79775000Y-60750000D03*
X78505000Y-60750000D03*
X77235000Y-60750000D03*
X75965000Y-60750000D03*
X74695000Y-60750000D03*
X73425000Y-60750000D03*
X72155000Y-60750000D03*
X72155000Y-56050000D03*
X73425000Y-56050000D03*
X74695000Y-56050000D03*
X75965000Y-56050000D03*
X77235000Y-56050000D03*
X78505000Y-56050000D03*
X79775000Y-56050000D03*
X81045000Y-56050000D03*
%TD*%
D25*
%TO.C,R26*%
X97850000Y-62212500D03*
X97850000Y-65137500D03*
%TD*%
D15*
%TO.C,J6*%
X82475000Y-76800000D03*
D16*
X79935000Y-76800000D03*
X77395000Y-76800000D03*
X74855000Y-76800000D03*
%TD*%
D15*
%TO.C,SW1*%
X98975000Y-80350000D03*
D16*
X98975000Y-77810000D03*
X96435000Y-80350000D03*
X96435000Y-77810000D03*
X93895000Y-80350000D03*
X93895000Y-77810000D03*
X91355000Y-80350000D03*
X91355000Y-77810000D03*
%TD*%
D23*
%TO.C,R16*%
X56487500Y-71350000D03*
X59412500Y-71350000D03*
%TD*%
D25*
%TO.C,R3*%
X66100000Y-50862500D03*
X66100000Y-53787500D03*
%TD*%
D22*
%TO.C,R11*%
X75750000Y-72637500D03*
X75750000Y-69712500D03*
%TD*%
D25*
%TO.C,R22*%
X85100000Y-67075000D03*
X85100000Y-70000000D03*
%TD*%
D22*
%TO.C,R9*%
X57275000Y-67737500D03*
X57275000Y-64812500D03*
%TD*%
D26*
%TO.C,R20*%
X65680000Y-97790000D03*
X60680000Y-95290000D03*
X65680000Y-92790000D03*
%TD*%
D25*
%TO.C,R2*%
X69250000Y-45787500D03*
X69250000Y-48712500D03*
%TD*%
%TO.C,R1*%
X69450000Y-50862500D03*
X69450000Y-53787500D03*
%TD*%
D23*
%TO.C,R27*%
X92517500Y-60250000D03*
X95442500Y-60250000D03*
%TD*%
D22*
%TO.C,R18*%
X81000000Y-67487500D03*
X81000000Y-64562500D03*
%TD*%
D15*
%TO.C,J4*%
X55520000Y-85090000D03*
D16*
X58060000Y-85090000D03*
X60600000Y-85090000D03*
X63140000Y-85090000D03*
X65680000Y-85090000D03*
X68220000Y-85090000D03*
X70760000Y-85090000D03*
X73300000Y-85090000D03*
X75840000Y-85090000D03*
X78380000Y-85090000D03*
X80920000Y-85090000D03*
X83460000Y-85090000D03*
X86000000Y-85090000D03*
X88540000Y-85090000D03*
X91080000Y-85090000D03*
X93620000Y-85090000D03*
X96160000Y-85090000D03*
X98700000Y-85090000D03*
X101240000Y-85090000D03*
X103780000Y-85090000D03*
%TD*%
D25*
%TO.C,R24*%
X92525000Y-67080000D03*
X92525000Y-70005000D03*
%TD*%
D22*
%TO.C,R7*%
X65250000Y-67737500D03*
X65250000Y-64812500D03*
%TD*%
%TO.C,R19*%
X73250000Y-67687500D03*
X73250000Y-64762500D03*
%TD*%
D25*
%TO.C,R4*%
X58625000Y-50912500D03*
X58625000Y-53837500D03*
%TD*%
D15*
%TO.C,J3*%
X98100000Y-71600000D03*
D16*
X98100000Y-74140000D03*
%TD*%
D22*
%TO.C,R15*%
X63450000Y-72762500D03*
X63450000Y-69837500D03*
%TD*%
D23*
%TO.C,R25*%
X92037500Y-63900000D03*
X94962500Y-63900000D03*
%TD*%
D25*
%TO.C,R23*%
X88800000Y-67137500D03*
X88800000Y-70062500D03*
%TD*%
D22*
%TO.C,R12*%
X77150000Y-67487500D03*
X77150000Y-64562500D03*
%TD*%
D25*
%TO.C,R5*%
X62650000Y-50912500D03*
X62650000Y-53837500D03*
%TD*%
D22*
%TO.C,R14*%
X69150000Y-67737500D03*
X69150000Y-64812500D03*
%TD*%
D14*
%TO.C,R21*%
X91080000Y-97815000D03*
D27*
X80920000Y-97815000D03*
%TD*%
D24*
%TO.C,U1*%
X68580000Y-60960000D03*
X67310000Y-60960000D03*
X66040000Y-60960000D03*
X64770000Y-60960000D03*
X63500000Y-60960000D03*
X62230000Y-60960000D03*
X60960000Y-60960000D03*
X59690000Y-60960000D03*
X59690000Y-56260000D03*
X60960000Y-56260000D03*
X62230000Y-56260000D03*
X63500000Y-56260000D03*
X64770000Y-56260000D03*
X66040000Y-56260000D03*
X67310000Y-56260000D03*
X68580000Y-56260000D03*
%TD*%
D28*
%TO.C,Q1*%
X67555000Y-79575000D03*
X68825000Y-78305000D03*
X68825000Y-80845000D03*
%TD*%
D22*
%TO.C,R6*%
X67550000Y-72687500D03*
X67550000Y-69762500D03*
%TD*%
%TO.C,R10*%
X71475000Y-72687500D03*
X71475000Y-69762500D03*
%TD*%
%TO.C,R17*%
X80250000Y-72712500D03*
X80250000Y-69787500D03*
%TD*%
D15*
%TO.C,J5*%
X55520000Y-102895000D03*
D16*
X58060000Y-102895000D03*
X60600000Y-102895000D03*
X63140000Y-102895000D03*
X65680000Y-102895000D03*
X68220000Y-102895000D03*
X70760000Y-102895000D03*
X73300000Y-102895000D03*
X75840000Y-102895000D03*
X78380000Y-102895000D03*
X80920000Y-102895000D03*
X83460000Y-102895000D03*
X86000000Y-102895000D03*
X88540000Y-102895000D03*
X91080000Y-102895000D03*
X93620000Y-102895000D03*
X96160000Y-102895000D03*
X98700000Y-102895000D03*
X101240000Y-102895000D03*
X103780000Y-102895000D03*
%TD*%
M02*
